<svg width="28" height="28" viewBox="0 0 28 28" fill="none" xmlns="http://www.w3.org/2000/svg">
<rect width="28" height="28" rx="8" fill="#EFF4FF"/>
<path d="M7.89315 22.5C7.65982 22.5 7.42515 22.4317 7.18915 22.295C6.95315 22.1583 6.78115 21.9927 6.67315 21.798L4.55815 18.096C4.45015 17.9013 4.39315 17.6683 4.38715 17.397C4.38115 17.1257 4.43782 16.8927 4.55715 16.698L10.6741 6.202C10.7941 6.00667 10.9681 5.841 11.1961 5.705C11.4235 5.56833 11.6535 5.5 11.8861 5.5H16.1161C16.3488 5.5 16.5788 5.56833 16.8061 5.705C17.0335 5.841 17.2075 6.00667 17.3281 6.202L21.3011 13.022C21.1098 12.9987 20.9191 12.9863 20.7291 12.985C20.5385 12.9837 20.3451 12.997 20.1491 13.025L16.3502 6.5H11.6501L5.30015 17.4L7.65015 21.5H15.5412C15.6231 21.6913 15.7151 21.867 15.8172 22.027C15.9192 22.187 16.0398 22.3447 16.1791 22.5H7.89315ZM9.53915 18.5L9.10215 17.725L13.5041 10.058H14.4962L17.0401 14.481C16.9108 14.597 16.7861 14.7213 16.6662 14.854C16.5462 14.9873 16.4331 15.12 16.3271 15.252L14.0001 11.2L10.3851 17.5H15.1961C15.1435 17.6627 15.1041 17.8243 15.0781 17.985C15.0515 18.145 15.0318 18.3167 15.0191 18.5H9.53915ZM20.5001 22.5V19.5H17.5001V18.5H20.5001V15.5H21.5001V18.5H24.5001V19.5H21.5001V22.5H20.5001Z" fill="#3572EF"/>
</svg>
