<svg width="28" height="28" viewBox="0 0 28 28" fill="none" xmlns="http://www.w3.org/2000/svg">
<rect width="28" height="28" rx="8" fill="#EFF4FF"/>
<path d="M7.45411 23.664L6.76611 22.95L10.2161 19.5H7.23411V18.5H11.9031V23.17H10.9031V20.213L7.45411 23.664ZM14.2891 23V22H19.3851C19.5644 22 19.7118 21.9423 19.8271 21.827C19.9424 21.7117 20.0001 21.5643 20.0001 21.385V10H16.0001V6H8.61611C8.43611 6 8.28845 6.05767 8.17311 6.173C8.05778 6.28833 8.00011 6.436 8.00011 6.616V16.116H7.00011V6.616C7.00011 6.168 7.15745 5.78667 7.47211 5.472C7.78678 5.15733 8.16811 5 8.61611 5H16.5001L21.0001 9.5V21.385C21.0001 21.8317 20.8428 22.2127 20.5281 22.528C20.2134 22.8427 19.8324 23 19.3851 23H14.2891Z" fill="#3572EF"/>
</svg>
