<svg width="28" height="28" viewBox="0 0 28 28" fill="none" xmlns="http://www.w3.org/2000/svg">
<rect width="28" height="28" rx="8" fill="#EFF4FF"/>
<path d="M7.616 22C7.15533 22 6.771 21.846 6.463 21.538C6.155 21.23 6.00067 20.8453 6 20.384V7.616C6 7.15533 6.15433 6.771 6.463 6.463C6.77167 6.155 7.156 6.00067 7.616 6H20.385C20.845 6 21.2293 6.15433 21.538 6.463C21.8467 6.77167 22.0007 7.156 22 7.616V20.385C22 20.845 21.846 21.2293 21.538 21.538C21.23 21.8467 20.8453 22.0007 20.384 22H7.616ZM7.616 21H20.385C20.5383 21 20.6793 20.936 20.808 20.808C20.9367 20.68 21.0007 20.5387 21 20.384V7.616C21 7.462 20.936 7.32067 20.808 7.192C20.68 7.06333 20.5387 6.99933 20.384 7H7.616C7.462 7 7.32067 7.064 7.192 7.192C7.06333 7.32 6.99933 7.46133 7 7.616V20.385C7 20.5383 7.064 20.6793 7.192 20.808C7.32 20.9367 7.461 21.0007 7.615 21M10.308 18.5H17.846C18.008 18.5 18.126 18.4277 18.2 18.283C18.274 18.1383 18.264 17.995 18.17 17.853L16.15 15.141C16.0633 15.033 15.9557 14.979 15.827 14.979C15.699 14.979 15.5913 15.033 15.504 15.141L13.212 18.039L11.785 16.314C11.6977 16.2187 11.593 16.171 11.471 16.171C11.3497 16.171 11.2453 16.225 11.158 16.333L10.004 17.853C9.896 17.995 9.87933 18.1383 9.954 18.283C10.0287 18.4277 10.1467 18.5 10.308 18.5ZM10.5 11.5C10.776 11.5 11.0117 11.4023 11.207 11.207C11.4023 11.0117 11.5 10.776 11.5 10.5C11.5 10.224 11.4023 9.98833 11.207 9.793C11.0117 9.59767 10.776 9.5 10.5 9.5C10.224 9.5 9.98833 9.59767 9.793 9.793C9.59767 9.98833 9.5 10.224 9.5 10.5C9.5 10.776 9.59767 11.0117 9.793 11.207C9.98833 11.4023 10.224 11.5 10.5 11.5Z" fill="#3572EF"/>
</svg>
