<svg width="28" height="28" viewBox="0 0 28 28" fill="none" xmlns="http://www.w3.org/2000/svg">
<rect width="28" height="28" rx="8" fill="#EFF4FF"/>
<path d="M15 15.5H16V12.5H19V11.5H16V8.5H15V11.5H12V12.5H15V15.5ZM10.116 19C9.65534 19 9.271 18.846 8.963 18.538C8.655 18.23 8.50067 17.8457 8.5 17.385V6.615C8.5 6.155 8.65434 5.77067 8.963 5.462C9.27167 5.15334 9.656 4.99934 10.116 5H20.885C21.345 5 21.7293 5.154 22.038 5.462C22.3467 5.77 22.5007 6.15434 22.5 6.615V17.385C22.5 17.845 22.346 18.229 22.038 18.537C21.73 18.845 21.3453 18.9993 20.884 19H10.116ZM10.116 18H20.885C21.0383 18 21.1793 17.936 21.308 17.808C21.4367 17.68 21.5007 17.539 21.5 17.385V6.615C21.5 6.46167 21.436 6.32067 21.308 6.192C21.18 6.06334 21.0387 5.99934 20.884 6H10.116C9.962 6 9.82067 6.064 9.692 6.192C9.56334 6.32 9.49934 6.461 9.5 6.615V17.385C9.5 17.5383 9.564 17.6793 9.692 17.808C9.82 17.9367 9.961 18.0007 10.115 18M7.115 22C6.655 22 6.27067 21.846 5.962 21.538C5.65334 21.23 5.49934 20.8457 5.5 20.385V8.615H6.5V20.385C6.5 20.5383 6.564 20.6793 6.692 20.808C6.82 20.9367 6.961 21.0007 7.115 21H18.885V22H7.115Z" fill="#3572EF"/>
</svg>
