<svg width="52" height="52" viewBox="0 0 52 52" fill="none" xmlns="http://www.w3.org/2000/svg">
<g filter="url(#filter0_d_1181_21595)">
<rect x="4" width="44" height="44" rx="22" fill="url(#paint0_linear_1181_21595)"/>
<path d="M32.9493 10.7686V9.06986C32.9493 8.16121 32.1834 7.4106 31.3025 7.4106H28.8515C28.8515 5.98838 27.7408 4.8822 26.4004 4.8822C25.06 4.8822 23.9493 5.98838 23.9493 7.4106H21.4983C20.6174 7.4106 19.8515 8.16121 19.8515 9.06986V10.7686C18.511 10.7686 17.4004 11.9143 17.4004 13.297C17.4004 14.6797 18.511 15.8254 19.8515 15.8254V19.1834C19.8515 20.1316 20.6174 20.8822 21.4983 20.8822H31.3025C32.1834 20.8822 32.9493 20.1316 32.9493 19.1834V15.8254C34.2898 15.8254 35.4004 14.6797 35.4004 13.297C35.4004 11.9143 34.2898 10.7686 32.9493 10.7686ZM22.7238 12.8624C22.7238 12.1908 23.26 11.5983 23.9493 11.5983C24.6387 11.5983 25.1749 12.1908 25.1749 12.8624C25.1749 13.5736 24.6387 14.1266 23.9493 14.1266C23.26 14.1266 22.7238 13.5736 22.7238 12.8624ZM28.8515 17.5242H23.9493C23.4898 17.5242 23.1451 17.1291 23.1451 16.655C23.1451 16.2205 23.4898 15.8254 23.9493 15.8254H28.8515C29.311 15.8254 29.6557 16.2205 29.6557 16.655C29.6557 17.1291 29.311 17.5242 28.8515 17.5242ZM28.8515 14.1266C28.1621 14.1266 27.6259 13.5736 27.6259 12.8624C27.6259 12.1908 28.1621 11.5983 28.8515 11.5983C29.5408 11.5983 30.077 12.1908 30.077 12.8624C30.077 13.5736 29.5408 14.1266 28.8515 14.1266Z" fill="white"/>
<path d="M16.4004 34.8782V25.2132C16.4004 24.9659 16.4654 24.7362 16.5954 24.5242C16.7254 24.3122 16.9077 24.1649 17.1424 24.0822C17.7297 23.8236 18.3407 23.6359 18.9754 23.5192C19.6101 23.4026 20.2517 23.3442 20.9004 23.3442C21.9931 23.3442 22.9631 23.4826 23.8104 23.7592C24.6571 24.0359 25.5231 24.4469 26.4084 24.9922C26.5657 25.0789 26.6871 25.1956 26.7724 25.3422C26.8577 25.4889 26.9004 25.6572 26.9004 25.8472V35.7012C27.7111 35.2492 28.5287 34.9226 29.3534 34.7212C30.1781 34.5199 31.0271 34.4199 31.9004 34.4212C32.5004 34.4212 33.0397 34.4582 33.5184 34.5322C33.9971 34.6062 34.4194 34.7049 34.7854 34.8282C34.9387 34.8922 35.0797 34.8826 35.2084 34.7992C35.3371 34.7159 35.4011 34.5846 35.4004 34.4052V24.4762C35.4004 24.3342 35.4481 24.2156 35.5434 24.1202C35.6387 24.0249 35.7577 23.9769 35.9004 23.9762C36.0431 23.9756 36.1621 24.0236 36.2574 24.1202C36.3527 24.2169 36.4004 24.3356 36.4004 24.4762V34.8782C36.4004 35.2876 36.2284 35.6019 35.8844 35.8212C35.5397 36.0399 35.1731 36.0769 34.7844 35.9322C34.3217 35.7522 33.8491 35.6222 33.3664 35.5422C32.8837 35.4616 32.3951 35.4212 31.9004 35.4212C31.0451 35.4212 30.2077 35.5322 29.3884 35.7542C28.5684 35.9769 27.7891 36.3049 27.0504 36.7382C26.9557 36.7956 26.8517 36.8389 26.7384 36.8682C26.6251 36.8976 26.5124 36.9119 26.4004 36.9112C26.2884 36.9106 26.1761 36.8962 26.0634 36.8682C25.9507 36.8402 25.8464 36.7969 25.7504 36.7382C25.0117 36.3049 24.2327 35.9769 23.4134 35.7542C22.5941 35.5316 21.7564 35.4206 20.9004 35.4212C20.3804 35.4212 19.8691 35.4646 19.3664 35.5512C18.8644 35.6386 18.3757 35.7786 17.9004 35.9712C17.5377 36.1159 17.1971 36.0722 16.8784 35.8402C16.5597 35.6082 16.4004 35.2876 16.4004 34.8782ZM29.5924 31.5442V22.9722C29.5924 22.7936 29.6454 22.6329 29.7514 22.4902C29.8574 22.3469 29.9911 22.2486 30.1524 22.1952L31.9254 21.6292C32.1201 21.5586 32.2994 21.5896 32.4634 21.7222C32.6267 21.8556 32.7084 22.0212 32.7084 22.2192V30.7912C32.7084 30.9692 32.6554 31.1296 32.5494 31.2722C32.4441 31.4156 32.3104 31.5139 32.1484 31.5672L30.3754 32.1332C30.1807 32.2039 30.0017 32.1729 29.8384 32.0402C29.6744 31.9069 29.5924 31.7422 29.5924 31.5442Z" fill="white"/>
</g>
<defs>
<filter id="filter0_d_1181_21595" x="0" y="0" width="52" height="52" filterUnits="userSpaceOnUse" color-interpolation-filters="sRGB">
<feFlood flood-opacity="0" result="BackgroundImageFix"/>
<feColorMatrix in="SourceAlpha" type="matrix" values="0 0 0 0 0 0 0 0 0 0 0 0 0 0 0 0 0 0 127 0" result="hardAlpha"/>
<feOffset dy="4"/>
<feGaussianBlur stdDeviation="2"/>
<feComposite in2="hardAlpha" operator="out"/>
<feColorMatrix type="matrix" values="0 0 0 0 0.00784314 0 0 0 0 0.0352941 0 0 0 0 0.0941176 0 0 0 0.1 0"/>
<feBlend mode="normal" in2="BackgroundImageFix" result="effect1_dropShadow_1181_21595"/>
<feBlend mode="normal" in="SourceGraphic" in2="effect1_dropShadow_1181_21595" result="shape"/>
</filter>
<linearGradient id="paint0_linear_1181_21595" x1="26" y1="-3" x2="26" y2="50" gradientUnits="userSpaceOnUse">
<stop offset="0.3" stop-color="#3686F1"/>
<stop offset="1" stop-color="#5DBCF8"/>
</linearGradient>
</defs>
</svg>
