<svg width="14" height="14" viewBox="0 0 14 14" fill="none" xmlns="http://www.w3.org/2000/svg">
<path d="M4.79792 13.1542L3.60208 11.1417L1.3125 10.6313L1.53125 8.3125L0 6.57708L1.53125 4.84167L1.3125 2.52292L3.60208 2.0125L4.79792 0L6.94167 0.91875L9.08542 0L10.2812 2.0125L12.5708 2.52292L12.3521 4.84167L13.8833 6.57708L12.3521 8.3125L12.5708 10.6313L10.2812 11.1417L9.08542 13.1542L6.94167 12.2354L4.79792 13.1542ZM5.49792 10.9812L6.94167 10.3542L8.38542 10.9812L9.1875 9.625L10.7042 9.28958L10.5875 7.72917L11.5938 6.57708L10.5875 5.425L10.7042 3.86458L9.1875 3.52917L8.38542 2.17292L6.94167 2.8L5.49792 2.17292L4.69583 3.52917L3.17917 3.85L3.29583 5.425L2.28958 6.57708L3.31042 7.72917L3.17917 9.30417L4.69583 9.63958L5.49792 10.9812ZM6.19792 8.8375L9.82917 5.22083L8.91042 4.33125L6.19792 7.02917L4.97292 5.78958L4.05417 6.70833L6.19792 8.8375Z" fill="#3B82F6"/>
</svg>
