<svg width="48" height="48" viewBox="0 0 48 48" fill="none" xmlns="http://www.w3.org/2000/svg">
<g filter="url(#filter0_d_1342_14900)">
<rect x="4" width="40" height="40" rx="12" fill="#EFF4FF" shape-rendering="crispEdges"/>
<path d="M16.616 27C16.1553 27 15.771 26.846 15.463 26.538C15.155 26.23 15.0007 25.8453 15 25.384V14.616C15 14.1553 15.1543 13.771 15.463 13.463C15.7717 13.155 16.1557 13.0007 16.615 13H21.596L23.596 15H31.385C31.845 15 32.2293 15.1543 32.538 15.463C32.8467 15.7717 33.0007 16.156 33 16.616V25.385C33 25.845 32.846 26.2293 32.538 26.538C32.23 26.8467 31.8457 27.0007 31.385 27H16.616Z" fill="#3572EF"/>
</g>
<defs>
<filter id="filter0_d_1342_14900" x="0" y="0" width="48" height="48" filterUnits="userSpaceOnUse" color-interpolation-filters="sRGB">
<feFlood flood-opacity="0" result="BackgroundImageFix"/>
<feColorMatrix in="SourceAlpha" type="matrix" values="0 0 0 0 0 0 0 0 0 0 0 0 0 0 0 0 0 0 127 0" result="hardAlpha"/>
<feOffset dy="4"/>
<feGaussianBlur stdDeviation="2"/>
<feComposite in2="hardAlpha" operator="out"/>
<feColorMatrix type="matrix" values="0 0 0 0 0 0 0 0 0 0 0 0 0 0 0 0 0 0 0.03 0"/>
<feBlend mode="normal" in2="BackgroundImageFix" result="effect1_dropShadow_1342_14900"/>
<feBlend mode="normal" in="SourceGraphic" in2="effect1_dropShadow_1342_14900" result="shape"/>
</filter>
</defs>
</svg>
