<svg width="24" height="24" viewBox="0 0 24 24" fill="none" xmlns="http://www.w3.org/2000/svg">
<path d="M21.5 16.5V21.5H16.5V20.5H20.5V16.5H21.5ZM3.5 16.5V20.5H7.50977V21.5H2.5V16.5H3.5ZM21.5 2.5V7.5H20.5V3.5H16.5V2.5H21.5ZM7.50977 2.5V3.5H3.5V7.5H2.5V2.5H7.50977Z" stroke="#94A0B8"/>
<path d="M5 11H11V5H5V11ZM7 7H9V9H7V7ZM5 19H11V13H5V19ZM7 15H9V17H7V15ZM19 5H13V11H19V5ZM17 9H15V7H17V9ZM13.01 13H15.01V15H13.01V13ZM15.01 15H17.01V17H15.01V15ZM17.01 17H19.01V19H17.01V17ZM17.01 13H19.01V15H17.01V13Z" fill="#94A0B8"/>
</svg>
