<svg width="32" height="32" viewBox="0 0 32 32" fill="none" xmlns="http://www.w3.org/2000/svg">
<rect width="32" height="32" rx="16" fill="#3572EF" fill-opacity="0.1"/>
<path d="M11.3335 18.0417C10.8474 18.0417 10.4342 17.8716 10.0939 17.5313C9.75363 17.191 9.5835 16.7778 9.5835 16.2917C9.5835 15.8056 9.75363 15.3924 10.0939 15.0521C10.4342 14.7118 10.8474 14.5417 11.3335 14.5417V13.375C11.3335 13.0542 11.4477 12.7796 11.6762 12.5511C11.9047 12.3226 12.1793 12.2084 12.5002 12.2084H14.2502C14.2502 11.7223 14.4203 11.3091 14.7606 10.9688C15.1009 10.6285 15.5141 10.4584 16.0002 10.4584C16.4863 10.4584 16.8995 10.6285 17.2397 10.9688C17.58 11.3091 17.7502 11.7223 17.7502 12.2084H19.5002C19.821 12.2084 20.0956 12.3226 20.3241 12.5511C20.5526 12.7796 20.6668 13.0542 20.6668 13.375V14.5417C21.1529 14.5417 21.5661 14.7118 21.9064 15.0521C22.2467 15.3924 22.4168 15.8056 22.4168 16.2917C22.4168 16.7778 22.2467 17.191 21.9064 17.5313C21.5661 17.8716 21.1529 18.0417 20.6668 18.0417V20.375C20.6668 20.6959 20.5526 20.9705 20.3241 21.199C20.0956 21.4275 19.821 21.5417 19.5002 21.5417H12.5002C12.1793 21.5417 11.9047 21.4275 11.6762 21.199C11.4477 20.9705 11.3335 20.6959 11.3335 20.375V18.0417ZM14.2502 16.875C14.4932 16.875 14.6998 16.79 14.87 16.6198C15.0401 16.4497 15.1252 16.2431 15.1252 16C15.1252 15.757 15.0401 15.5504 14.87 15.3802C14.6998 15.2101 14.4932 15.125 14.2502 15.125C14.0071 15.125 13.8005 15.2101 13.6304 15.3802C13.4602 15.5504 13.3752 15.757 13.3752 16C13.3752 16.2431 13.4602 16.4497 13.6304 16.6198C13.8005 16.79 14.0071 16.875 14.2502 16.875ZM17.7502 16.875C17.9932 16.875 18.1998 16.79 18.37 16.6198C18.5401 16.4497 18.6252 16.2431 18.6252 16C18.6252 15.757 18.5401 15.5504 18.37 15.3802C18.1998 15.2101 17.9932 15.125 17.7502 15.125C17.5071 15.125 17.3005 15.2101 17.1304 15.3802C16.9602 15.5504 16.8752 15.757 16.8752 16C16.8752 16.2431 16.9602 16.4497 17.1304 16.6198C17.3005 16.79 17.5071 16.875 17.7502 16.875ZM13.6668 19.2084H18.3335V18.0417H13.6668V19.2084ZM12.5002 20.375H19.5002V13.375H12.5002V20.375Z" fill="#3572EF"/>
</svg>
