<svg width="24" height="24" viewBox="0 0 24 24" fill="none" xmlns="http://www.w3.org/2000/svg">
<path d="M5.616 20C5.17133 20 4.791 19.8417 4.475 19.525C4.159 19.2083 4.00067 18.8287 4 18.386V5.615C4 5.171 4.15833 4.791 4.475 4.475C4.79167 4.159 5.17167 4.00067 5.615 4H10.315C10.2243 3.48933 10.3467 3.02833 10.682 2.617C11.0167 2.20567 11.4593 2 12.01 2C12.5607 2 13.0033 2.20567 13.338 2.617C13.6727 3.02833 13.7883 3.48933 13.685 4H18.385C18.829 4 19.209 4.15833 19.525 4.475C19.841 4.79167 19.9993 5.17167 20 5.615V18.385C20 18.829 19.8417 19.209 19.525 19.525C19.2083 19.841 18.8283 19.9993 18.385 20H5.616ZM5.616 19H18.385C18.5383 19 18.6793 18.936 18.808 18.808C18.9367 18.68 19.0007 18.5387 19 18.384V5.616C19 5.462 18.936 5.32067 18.808 5.192C18.68 5.06333 18.5387 4.99933 18.384 5H5.616C5.462 5 5.32067 5.064 5.192 5.192C5.06333 5.32 4.99933 5.46133 5 5.616V18.385C5 18.5383 5.064 18.6793 5.192 18.808C5.32 18.9367 5.461 19.0007 5.615 19M8 16.27H13C13.142 16.27 13.2607 16.2217 13.356 16.125C13.4513 16.0283 13.4993 15.9097 13.5 15.769C13.5007 15.6283 13.4527 15.5097 13.356 15.413C13.2593 15.3163 13.1407 15.2683 13 15.269H8C7.858 15.269 7.73933 15.317 7.644 15.413C7.548 15.509 7.5 15.628 7.5 15.77C7.5 15.912 7.548 16.0307 7.644 16.126C7.74 16.2213 7.85867 16.269 8 16.269M8 12.5H16C16.142 12.5 16.2607 12.452 16.356 12.356C16.4513 12.26 16.4993 12.141 16.5 11.999C16.5007 11.857 16.4527 11.7383 16.356 11.643C16.2593 11.5477 16.1407 11.5 16 11.5H8C7.858 11.5 7.73933 11.548 7.644 11.644C7.54867 11.74 7.50067 11.859 7.5 12.001C7.49933 12.143 7.54733 12.2617 7.644 12.357C7.74067 12.4523 7.85933 12.5 8 12.5ZM8 8.73H16C16.142 8.73 16.2607 8.68233 16.356 8.587C16.452 8.491 16.5 8.372 16.5 8.23C16.5 8.088 16.452 7.96933 16.356 7.874C16.26 7.77867 16.1413 7.731 16 7.731H8C7.858 7.731 7.73933 7.779 7.644 7.875C7.54867 7.971 7.50067 8.09 7.5 8.232C7.49933 8.374 7.54733 8.49267 7.644 8.588C7.74067 8.68333 7.85933 8.73067 8 8.73ZM12 4.441C12.2167 4.441 12.396 4.37033 12.538 4.229C12.68 4.08767 12.7507 3.90833 12.75 3.691C12.7493 3.47367 12.6783 3.29467 12.537 3.154C12.3957 3.01333 12.2167 2.94267 12 2.942C11.7833 2.94133 11.6043 3.01233 11.463 3.155C11.3217 3.29767 11.2507 3.47667 11.25 3.692C11.2493 3.90733 11.3203 4.08667 11.463 4.23C11.6057 4.37333 11.7847 4.443 12 4.441Z" fill="#94A0B8"/>
</svg>
