<svg width="24" height="24" viewBox="0 0 24 24" fill="none" xmlns="http://www.w3.org/2000/svg">
<path d="M14.4 7V0.46C15.5101 0.809335 16.5183 1.35131 17.358 2.05L21.5388 5.536C22.3782 6.23488 23.0291 7.07489 23.448 8H15.6C15.2817 8 14.9765 7.89464 14.7515 7.70711C14.5264 7.51957 14.4 7.26522 14.4 7ZM24 10.485V19C23.9981 20.3256 23.3653 21.5964 22.2405 22.5338C21.1157 23.4711 19.5907 23.9984 18 24H6C4.40929 23.9984 2.88427 23.4711 1.75946 22.5338C0.634658 21.5964 0.00190543 20.3256 0 19V5C0.00190543 3.67441 0.634658 2.40356 1.75946 1.46622C2.88427 0.528882 4.40929 0.00158786 6 0L11.418 0C11.6136 0 11.8068 0.013 12 0.024V7C12 7.79565 12.3793 8.55871 13.0544 9.12132C13.7295 9.68393 14.6452 10 15.6 10H23.9712C23.9844 10.161 24 10.322 24 10.485ZM14.4 19C14.4 18.7348 14.2736 18.4804 14.0485 18.2929C13.8235 18.1054 13.5183 18 13.2 18H7.2C6.88174 18 6.57652 18.1054 6.35147 18.2929C6.12643 18.4804 6 18.7348 6 19C6 19.2652 6.12643 19.5196 6.35147 19.7071C6.57652 19.8946 6.88174 20 7.2 20H13.2C13.5183 20 13.8235 19.8946 14.0485 19.7071C14.2736 19.5196 14.4 19.2652 14.4 19ZM18 15C18 14.7348 17.8736 14.4804 17.6485 14.2929C17.4235 14.1054 17.1183 14 16.8 14H7.2C6.88174 14 6.57652 14.1054 6.35147 14.2929C6.12643 14.4804 6 14.7348 6 15C6 15.2652 6.12643 15.5196 6.35147 15.7071C6.57652 15.8946 6.88174 16 7.2 16H16.8C17.1183 16 17.4235 15.8946 17.6485 15.7071C17.8736 15.5196 18 15.2652 18 15Z" fill="#858585"/>
</svg>
