<svg width="16" height="20" viewBox="0 0 16 20" fill="none" xmlns="http://www.w3.org/2000/svg">
<path d="M8 0L8.117 0.00699997C8.34022 0.0333238 8.54806 0.134079 8.70699 0.293011C8.86592 0.451943 8.96668 0.659783 8.993 0.883L9 1V5L9.005 5.15C9.04078 5.62617 9.24576 6.07383 9.58286 6.41203C9.91996 6.75023 10.3669 6.95666 10.843 6.994L11 7H15L15.117 7.007C15.3402 7.03332 15.5481 7.13408 15.707 7.29301C15.8659 7.45194 15.9667 7.65978 15.993 7.883L16 8V17C16 17.7652 15.7077 18.5015 15.1827 19.0583C14.6578 19.615 13.9399 19.9501 13.176 19.995L13 20H3C2.23479 20 1.49849 19.7077 0.941739 19.1827C0.384993 18.6578 0.0498925 17.9399 0.00500012 17.176L4.66045e-09 17V3C-4.26217e-05 2.23479 0.292325 1.49849 0.817284 0.941739C1.34224 0.384993 2.06011 0.0498925 2.824 0.00500011L3 0H8ZM11 14H5C4.73478 14 4.48043 14.1054 4.29289 14.2929C4.10536 14.4804 4 14.7348 4 15C4 15.2652 4.10536 15.5196 4.29289 15.7071C4.48043 15.8946 4.73478 16 5 16H11C11.2652 16 11.5196 15.8946 11.7071 15.7071C11.8946 15.5196 12 15.2652 12 15C12 14.7348 11.8946 14.4804 11.7071 14.2929C11.5196 14.1054 11.2652 14 11 14ZM11 10H5C4.73478 10 4.48043 10.1054 4.29289 10.2929C4.10536 10.4804 4 10.7348 4 11C4 11.2652 4.10536 11.5196 4.29289 11.7071C4.48043 11.8946 4.73478 12 5 12H11C11.2652 12 11.5196 11.8946 11.7071 11.7071C11.8946 11.5196 12 11.2652 12 11C12 10.7348 11.8946 10.4804 11.7071 10.2929C11.5196 10.1054 11.2652 10 11 10ZM6 6H5C4.73478 6 4.48043 6.10536 4.29289 6.29289C4.10536 6.48043 4 6.73478 4 7C4 7.26522 4.10536 7.51957 4.29289 7.70711C4.48043 7.89464 4.73478 8 5 8H6C6.26522 8 6.51957 7.89464 6.70711 7.70711C6.89464 7.51957 7 7.26522 7 7C7 6.73478 6.89464 6.48043 6.70711 6.29289C6.51957 6.10536 6.26522 6 6 6Z" fill="#3572EF"/>
<path d="M15 5.00002H11L10.999 0.999023L15 5.00002Z" fill="#3572EF"/>
</svg>
