<svg width="358" height="259" viewBox="0 0 358 259" fill="none" xmlns="http://www.w3.org/2000/svg">
<g clip-path="url(#clip0_63_17432)">
<g opacity="0.5">
<path opacity="0.5" d="M316.434 254.06C323.963 260.436 28.641 260.436 36.1719 254.059C28.6416 247.683 323.964 247.683 316.434 254.06Z" fill="#4DCDFF"/>
<g opacity="0.3">
<path opacity="0.8" d="M305.187 125.92C302.312 293.826 50.3176 293.8 47.4673 125.915C50.3423 -41.9857 302.337 -41.9593 305.187 125.92Z" fill="#4DCDFF"/>
<path opacity="0.6" d="M151.002 178.607C149.318 276.986 1.67034 276.97 0.000488281 178.604C1.68493 80.2285 149.332 80.2441 151.002 178.607Z" fill="#4DCDFF"/>
<path opacity="0.6" d="M201.603 178.607C203.287 276.986 350.935 276.97 352.604 178.604C350.92 80.2285 203.272 80.2441 201.603 178.607Z" fill="#4DCDFF"/>
<path opacity="0.5" d="M249.147 102.406C250.302 169.808 351.46 169.798 352.604 102.404C351.45 35.0035 250.292 35.0143 249.147 102.406Z" fill="#4DCDFF"/>
<path opacity="0.5" d="M103.457 102.406C102.303 169.809 1.14446 169.798 0 102.404C1.1543 35.0035 102.312 35.0143 103.457 102.406Z" fill="#4DCDFF"/>
</g>
</g>
<g opacity="0.9">
<g opacity="0.8">
<path d="M282.456 216.442C283.979 205.942 292.272 198.249 302.302 195.568C321.056 190.142 322.806 176.261 325.307 183.201C327.808 190.142 322.557 197.638 327.057 203.062C331.558 208.485 327.979 218.649 320.767 220.88C313.554 223.11 287.732 240.086 287.732 253.66C287.732 253.66 268.311 253.66 268.294 253.66C267.3 253.66 267.299 246.237 267.34 245.682C267.728 233.881 279.667 227.324 282.456 216.442Z" fill="#42CCA8"/>
<g opacity="0.8">
<path d="M296.5 225.251C296.092 218.572 299.211 211.878 304.235 207.493C307.1 204.981 310.293 203.152 313.069 200.713C315.252 198.92 317.712 197.196 318.95 194.577C317.952 197.805 315.059 199.929 312.718 202.179C304.6 208.323 297.205 214.232 296.5 225.251Z" fill="white"/>
</g>
</g>
<path d="M351.471 228.587C348.774 236.969 341.425 241.633 333.059 243.47C309.266 248.693 298.127 251.99 294.428 253.171C292.703 254.128 274.291 253.485 272.045 253.66C278.489 238.757 277.587 213.074 310.386 215.273C332.39 219.393 340.725 203.392 346.06 198.832C347.19 197.866 351.493 193.768 352.166 197.033C349.915 207.562 354.527 218.077 351.471 228.587Z" fill="#39C5E5"/>
<path d="M343.31 215.426C339.06 231.437 319.262 231.726 305.732 232.972C297.428 233.954 288.886 238.896 286.797 247.482C287.891 238.408 296.728 232.636 305.21 231.42C318.624 229.683 337.505 230.49 343.31 215.426Z" fill="#39C5E5"/>
<path opacity="0.8" d="M343.31 215.426C339.06 231.437 319.262 231.726 305.732 232.972C297.428 233.954 288.886 238.896 286.797 247.482C287.891 238.408 296.728 232.636 305.21 231.42C318.624 229.683 337.505 230.49 343.31 215.426Z" fill="white"/>
<g opacity="0.8">
<path d="M70.1483 216.442C68.6254 205.942 60.3322 198.249 50.3019 195.568C31.548 190.142 29.7977 176.261 27.297 183.201C24.7963 190.142 30.0475 197.638 25.5467 203.062C21.0456 208.485 24.6253 218.649 31.8375 220.88C39.0498 223.11 64.8724 240.086 64.8724 253.66C64.8724 253.66 84.2932 253.66 84.3098 253.66C85.3042 253.66 85.3053 246.237 85.2645 245.682C84.8759 233.881 72.9372 227.324 70.1483 216.442Z" fill="#42CCA8"/>
<g opacity="0.8">
<path d="M56.1056 225.251C56.5132 218.572 53.3938 211.878 48.37 207.493C45.5054 204.981 42.312 203.152 39.5357 200.713C37.3534 198.92 34.8934 197.196 33.6553 194.577C34.6534 197.805 37.5458 199.929 39.8867 202.179C48.0054 208.323 55.4003 214.232 56.1056 225.251Z" fill="white"/>
</g>
</g>
<path d="M1.13417 228.587C3.83172 236.969 11.1804 241.633 19.547 243.47C43.3392 248.693 54.478 251.99 58.1778 253.171C59.9026 254.128 78.3144 253.485 80.5606 253.66C74.116 238.757 75.0182 213.074 42.2196 215.273C20.2159 219.393 11.8809 203.392 6.54522 198.832C5.41536 197.866 1.11245 193.768 0.439756 197.033C2.68998 207.562 -1.92145 218.077 1.13417 228.587Z" fill="#39C5E5"/>
<path d="M9.29443 215.426C13.5447 231.437 33.343 231.726 46.8721 232.972C55.1766 233.954 63.7186 238.896 65.8073 247.482C64.7141 238.408 55.8764 232.636 47.3945 231.42C33.9804 229.683 15.0992 230.49 9.29443 215.426Z" fill="#39C5E5"/>
<path opacity="0.8" d="M9.29443 215.426C13.5447 231.437 33.343 231.726 46.8721 232.972C55.1766 233.954 63.7186 238.896 65.8073 247.482C64.7141 238.408 55.8764 232.636 47.3945 231.42C33.9804 229.683 15.0992 230.49 9.29443 215.426Z" fill="white"/>
</g>
<g opacity="0.5">
<g opacity="0.8">
<path opacity="0.8" d="M37.2007 169.05C35.7943 168.637 37.3827 167.444 37.9457 166.643C43.8611 159.672 51.853 150.59 58.3189 143.111C55.9651 145.484 53.3684 148.114 50.8891 150.625C33.8434 167.892 33.6903 167.892 33.2362 167.895C32.4888 167.845 32.5747 167.036 33.0156 166.645C40.4695 157.876 50.7469 146.653 58.6033 137.607C51.6992 144.562 42.1696 154.355 35.6147 160.912C28.9119 167.296 29.7166 167.28 28.4575 166.918C28.0125 166.476 28.3346 166.093 29.6912 164.476C37.1675 155.77 47.8725 144.164 55.9577 135.008C49.3771 141.478 23.7625 167.872 25.7585 164.967C25.6075 164.969 25.4572 164.908 25.3509 164.803C24.909 164.365 25.1799 164.046 26.6827 162.274C34.0277 153.782 44.243 142.691 52.225 133.735C49.6119 136.372 46.7131 139.313 43.947 142.118C24.6012 161.742 23.5043 162.679 22.9541 162.683C21.8218 162.281 22.2648 161.93 23.9105 159.95C31.416 151.285 41.8787 139.911 50.009 130.788C46.1388 134.655 41.5203 139.308 37.3667 143.492C20.7476 160.232 20.6954 160.232 20.2884 160.234C20.1408 160.246 19.9915 160.175 19.8856 160.07C19.2994 158.98 21.0921 157.901 21.8924 156.642C28.0247 149.459 36.1503 140.514 43.1786 132.674C37.6104 138.083 21.3436 155.344 18.1312 157.242C17.9812 157.242 17.823 157.179 17.7171 157.074C17.1843 156.19 18.3294 155.671 18.8738 154.804C26.418 146.129 37.2092 134.364 45.2194 125.31C42.0596 128.492 38.3191 132.297 34.7849 135.893C17.5627 153.413 16.6426 154.193 16.1084 154.197C14.9901 153.819 15.4364 153.419 16.9515 151.582C23.7568 143.64 33.1707 133.321 40.6026 124.911C37.6874 127.832 34.3691 131.172 31.2154 134.347C14.6619 151.011 14.5991 151.011 14.1894 151.012C13.2574 150.731 13.4387 150.364 14.5234 149.13C21.5704 140.986 31.2263 130.244 38.4436 121.881C34.8877 125.26 13.0497 147.824 13.8588 146.29C13.7088 146.291 13.5625 146.232 13.4567 146.127C12.9119 145.271 14.1283 144.648 14.669 143.751C19.8099 137.551 26.6121 129.688 32.3779 122.918C30.5108 124.809 28.5247 126.83 26.6848 128.703C13.3962 141.878 14.4029 141.853 13.0002 141.491C12.3051 140.543 15.1357 138.205 16.1613 136.588C19.2899 132.714 23.8956 127.121 27.4067 122.818C9.33023 141.728 11.6263 137.299 20.7079 124.368C18.9597 126.125 18.919 126.126 18.68 126.127C18.1363 126.145 17.9008 125.382 18.3739 125.101C18.6434 124.865 20.1215 123.373 21.2096 122.275C23.8287 119.633 23.8287 119.633 24.1019 119.631C25.5753 120.081 23.6896 121.643 23.1598 122.738C21.5011 125.215 18.9824 128.88 17.1419 131.608C19.7518 129.156 34.473 113.71 33.6085 115.314C34.5629 115.596 34.3203 115.996 33.2824 117.309C29.0735 122.64 23.4051 129.431 18.7937 135.119C20.9625 132.932 23.489 130.36 25.8797 127.926C39.2568 114.309 39.3929 114.308 39.8436 114.305C40.5672 114.35 40.518 115.137 40.0826 115.518C34.6868 122.056 27.5872 130.186 21.6664 137.18C62.2274 95.5761 40.7913 121.661 24.0344 139.983C26.1071 137.901 28.3013 135.692 30.4148 133.564C48.3544 115.505 48.4532 115.505 48.869 115.504C49.9832 115.892 49.522 116.289 47.9886 118.155C41.0292 126.284 31.3308 136.909 23.7652 145.476C26.8796 142.339 30.5285 138.627 33.9802 135.115C51.1657 117.632 52.0838 116.853 52.6163 116.85C53.7652 117.285 53.3606 117.543 51.4762 119.848C44.189 128.329 34.137 139.296 26.0939 148.318C30.5197 144.031 57.4904 116.271 55.529 119.025C55.6797 119.024 55.8277 119.084 55.9339 119.188C56.4532 119.965 55.5032 120.36 55.0617 121.054C47.0199 130.18 36.3166 141.882 27.9436 151.385C30.5733 148.747 33.5888 145.71 36.5661 142.71C58.3179 121.162 57.3082 121.184 58.7425 121.549C59.1854 121.988 58.9047 122.318 57.3465 124.152C49.727 132.954 39.0454 144.562 30.8153 153.802C34.5734 150.033 39.0902 145.452 43.1436 141.34C60.2681 123.969 60.3916 123.969 60.8512 123.966C61.0039 123.969 61.1539 124.027 61.2598 124.132C61.7078 124.576 61.3898 124.951 59.8621 126.755C52.655 135.107 42.7781 145.834 34.8351 154.731C37.2846 152.263 39.9553 149.561 42.5124 146.974C61.4892 127.777 62.4803 126.922 62.9883 126.92C64.1335 127.315 63.638 127.754 62.016 129.75C54.6262 138.405 44.2284 149.681 36.1774 158.762C43.2495 151.779 66.734 127.304 65.3496 129.769C65.5009 129.768 65.6571 129.83 65.7633 129.936C66.1964 130.365 65.9903 130.668 64.1735 132.848C57.822 140.355 49.4497 149.623 42.2266 157.795C50.5341 149.542 67.0401 132.323 66.3508 133.927C67.1307 134.022 67.0225 134.743 66.5056 135.251C60.3909 142.579 52.4653 151.496 45.7085 159.332C47.1968 157.827 48.7454 156.257 50.2439 154.739C66.4601 138.174 68.0118 136.767 67.1443 139.693C61.7903 146.305 54.6381 154.577 48.7763 161.604C51.9796 158.517 68.6 141.246 67.424 143.119C67.5743 143.118 67.7213 143.177 67.8272 143.282C68.3417 144.041 67.3866 144.527 66.9675 145.269C63.4696 149.752 58.9156 155.358 54.9303 160.329C65.9941 149.148 66.9943 147.968 66.6773 150.298C65.6808 151.007 60.0071 156.818 55.5212 161.321C48.9134 167.989 48.9206 167.986 48.6005 167.988C47.7283 167.725 47.8362 167.407 48.8008 166.216C52.5491 161.456 57.5233 155.342 61.6162 150.218C60.6115 151.235 59.5557 152.304 58.5089 153.365C43.2536 168.824 43.0856 168.825 42.6362 168.827C42.4923 168.831 42.3318 168.766 42.2259 168.661C41.786 168.225 41.786 168.225 46.1999 162.937C50.1981 158.149 56.0422 151.257 60.4574 146.008C57.5569 148.918 54.1314 152.39 51.0469 155.517C37.6976 169.048 37.6223 169.048 37.2038 169.05C37.2028 169.05 37.2018 169.05 37.2007 169.05ZM65.8841 150.3C65.9557 150.37 66.0362 150.414 66.1166 150.438C66.0318 150.412 65.9517 150.366 65.8841 150.3ZM18.677 125.013C18.8202 125.013 18.9631 125.067 19.0727 125.174C18.8799 124.984 18.605 124.976 18.4221 125.073C18.5022 125.033 18.5894 125.013 18.677 125.013Z" fill="#4DCDFF"/>
</g>
<g opacity="0.8">
<path opacity="0.8" d="M173.976 56.3068C172.944 56.0037 174.11 55.1284 174.523 54.5405C178.864 49.4254 184.728 42.7603 189.473 37.2729C182.37 44.0555 169.262 58.8777 170.905 54.5426C176.375 48.1072 183.917 39.872 189.682 33.234C184.045 38.6461 172.735 51.0956 167.864 54.8657C167.038 54.5904 167.387 54.2568 168.466 52.9505C173.952 46.5616 181.808 38.0454 187.741 31.3263C182.912 36.0741 164.116 55.4423 165.58 53.3106C165.47 53.3116 165.359 53.2671 165.281 53.1901C164.731 52.3402 167.933 49.6905 169.106 48.0777C173.557 43.0678 180.211 35.7483 185.002 30.3926C148.867 67.4737 164.365 48.7911 183.376 28.2292C180.536 31.0673 177.147 34.4813 174.098 37.5515C161.904 49.8358 161.865 49.8361 161.566 49.8371C161.458 49.846 161.349 49.7937 161.271 49.7166C160.868 48.8651 162.138 48.1581 162.744 47.201C167.243 41.9305 173.206 35.3668 178.363 29.613C174.275 33.5826 162.342 46.2507 159.981 47.6416C158.937 47.3252 160.102 46.4431 160.529 45.8526C166.065 39.4868 173.983 30.8531 179.861 24.2094C148.525 56.5705 154.48 47.9939 176.473 23.9165C143.798 57.196 158.016 40.6 174.889 21.6927C172.279 24.1727 156.254 40.73 156.848 39.6046C156.738 39.6052 156.631 39.5618 156.554 39.4844C156.154 38.8562 157.046 38.3997 157.443 37.7413C161.216 33.1916 166.207 27.4215 170.438 22.454C150.55 43.1462 153.502 38.1784 166.79 22.3807C153.561 36.2353 155.227 32.9673 161.875 23.5184C160.592 24.8077 160.562 24.8077 160.387 24.8088C159.988 24.8223 159.815 24.2623 160.162 24.056C160.582 23.7637 164.352 19.6448 164.365 20.0426C166.127 19.9852 159.737 27.6265 159.258 28.831C161.174 27.0312 171.976 15.6969 171.342 16.8743C172.042 17.0806 171.864 17.3742 171.102 18.3378C168.014 22.25 163.854 27.2331 160.471 31.4074C162.062 29.802 163.916 27.9149 165.67 26.129C175.486 16.1368 175.586 16.1361 175.917 16.134C176.447 16.1666 176.412 16.7443 176.092 17.0243C172.133 21.8217 166.923 27.7873 162.578 32.9197C192.179 2.54038 176.615 21.5536 164.315 34.9765C197.902 0.727646 178.461 23.3442 164.118 39.0079C166.403 36.7054 169.08 33.9814 171.613 31.4047C184.224 18.5757 184.898 18.0041 185.289 18.0014C185.399 18.0007 185.515 18.0469 185.593 18.1243C185.914 18.4433 185.76 18.6534 184.452 20.2011C179.105 26.425 171.728 34.4725 165.827 41.0932C169.074 37.9473 188.865 17.5761 187.426 19.5973C187.537 19.5963 187.646 19.6404 187.723 19.7174C188.166 20.5377 186.004 22.0437 185.197 23.2248C179.942 29.1117 172.623 37.1829 167.184 43.3441C204.336 5.43106 188.819 23.9083 169.292 45.1174C172.049 42.3517 175.364 38.9899 178.338 35.9726C190.904 23.2261 190.995 23.2255 191.332 23.2234C191.444 23.2255 191.554 23.2679 191.632 23.3453C192.148 24.2701 188.867 26.9813 187.627 28.6823C183.324 33.529 176.956 40.5383 172.242 45.799C208.166 8.98899 190.8 29.7063 173.227 48.7575C200.919 20.0327 201.959 21.204 177.665 48.0475C205.615 19.2955 196.686 30.6709 180.22 49.1756C206.46 22.1675 194.979 36.3667 182.472 50.8431C184.828 48.5742 197.012 35.9051 196.157 37.2783C197.529 37.6201 194.619 40.0651 193.998 41.1695C192.05 43.617 189.242 47.1012 186.987 49.9074C195.38 41.6875 194.628 41.7058 195.606 41.9688C196.064 42.7511 190.456 47.181 187.421 50.6357C182.574 55.5268 182.574 55.5268 182.344 55.5279C182.234 55.5282 182.127 55.4851 182.05 55.408C181.779 55.1396 181.888 55.0004 182.489 54.2276C185.24 50.7345 188.89 46.2483 191.893 42.4881C183.536 50.8679 178.029 56.7035 177.966 56.1432C177.86 56.1462 177.742 56.0987 177.665 56.0217C177.342 55.7016 177.342 55.7016 180.581 51.8219C183.515 48.3085 187.803 43.2507 191.043 39.3989C188.915 41.5344 186.401 44.0823 184.138 46.3766C174.342 56.3058 174.287 56.3061 173.979 56.3075C173.978 56.3068 173.977 56.3068 173.976 56.3068ZM195.025 42.5475C195.077 42.5991 195.136 42.631 195.195 42.6486C195.132 42.63 195.074 42.596 195.025 42.5475ZM160.383 23.9915C160.488 23.9915 160.593 24.0312 160.674 24.1103C160.532 23.9708 160.331 23.9643 160.196 24.0359C160.255 24.0064 160.319 23.9915 160.383 23.9915Z" fill="#4DCDFF"/>
</g>
<g opacity="0.8">
<path opacity="0.8" d="M323.873 157.178C323.187 156.977 323.961 156.395 324.236 156.004C327.121 152.605 331.019 148.175 334.173 144.527C311.817 167.396 324.719 152.424 334.312 141.843C330.566 145.44 323.047 153.712 319.812 156.22C319.261 156.039 319.493 155.816 320.21 154.947C323.857 150.701 329.078 145.041 333.021 140.575C311.005 163.177 316.008 156.472 331.201 139.955C307.393 164.403 317.509 152.133 330.12 138.517C328.233 140.403 325.98 142.672 323.954 144.713C315.849 152.877 315.824 152.877 315.625 152.878C315.183 152.805 315.328 152.421 315.638 152.068C318.885 148.123 323.049 143.638 326.789 139.436C324.073 142.075 316.14 150.493 314.573 151.419C313.876 151.211 314.651 150.622 314.935 150.23C318.614 145.999 323.877 140.261 327.784 135.845C307.124 157.204 310.993 151.543 325.532 135.651C303.932 157.659 313.274 146.717 324.479 134.173C322.744 135.821 312.094 146.825 312.489 146.077C311.791 145.868 312.606 145.255 312.884 144.839C315.391 141.815 318.709 137.98 321.521 134.679C308.383 148.366 310.301 145.065 319.096 134.63C310.336 143.817 311.427 141.627 315.829 135.386C314.799 136.329 315.089 136.334 314.645 136.164C314.387 135.614 315.467 135.167 316.074 134.365C317.351 133.076 317.351 133.076 317.484 133.076C318.556 133.272 314.469 137.972 314.09 138.917C327.624 124.914 322.074 132.052 314.896 140.629C331.253 123.713 325.732 130.9 316.297 141.634C335.85 121.557 325.628 134.093 317.452 143.002C339.549 120.456 326.869 135.277 317.32 145.681C340.101 122.18 331.726 132.698 318.456 147.067C320.615 144.975 333.769 131.436 332.812 132.78C333.441 132.943 332.841 133.457 332.584 133.769C328.662 138.22 323.442 143.928 319.358 148.563C343.866 123.54 333.714 135.689 320.759 149.741C342.315 127.528 337.984 133.624 322.719 150.194C346.389 125.926 335.045 139.531 323.374 152.16C341.692 133.14 342.389 133.954 326.324 151.688C344.739 132.727 338.928 140.204 328.022 152.438C345.317 134.622 337.824 143.956 329.519 153.546C331.082 152.039 339.186 143.618 338.613 144.531C339.908 144.622 333.195 151.712 332.52 152.925C338.099 147.462 337.599 147.473 338.249 147.648C338.412 148.336 334.915 151.004 332.808 153.409C329.587 156.659 329.587 156.659 329.434 156.66C328.111 156.634 335.173 149.14 335.781 147.993C319.112 165.137 328.159 154.066 335.216 145.94C333.801 147.359 332.131 149.053 330.626 150.578C324.115 157.177 324.079 157.177 323.875 157.178C323.874 157.178 323.873 157.178 323.873 157.178ZM337.862 148.033C337.897 148.068 337.936 148.089 337.975 148.101C337.934 148.088 337.895 148.066 337.862 148.033ZM314.838 135.701C314.908 135.701 314.978 135.727 315.032 135.779C314.938 135.687 314.803 135.683 314.714 135.73C314.753 135.711 314.796 135.701 314.838 135.701Z" fill="#4DCDFF"/>
</g>
</g>
<g opacity="0.5">
<path opacity="0.8" d="M9.25537 107.49C28.9762 95.969 49.7947 86.2469 71.3035 78.5588C51.5897 90.094 30.7577 99.7873 9.25537 107.49Z" fill="#4DCDFF"/>
<path opacity="0.8" d="M99.2734 42.5477C119.337 31.6428 140.066 21.9665 161.322 13.6162C141.263 24.531 120.525 34.1873 99.2734 42.5477Z" fill="#4DCDFF"/>
<path opacity="0.8" d="M317.722 166.803C330.714 159.662 344.174 153.378 358 148.023C345.011 155.171 331.545 161.441 317.722 166.803Z" fill="#4DCDFF"/>
</g>
<path d="M240.198 253.66H117.803C115.544 253.66 113.712 251.828 113.712 249.569V49.9952C113.712 47.7362 115.544 45.9048 117.803 45.9048H240.198C242.457 45.9048 244.289 47.7362 244.289 49.9952V249.569C244.289 251.828 242.457 253.66 240.198 253.66Z" fill="#0F557C"/>
<path d="M232.814 244.779H125.187C122.928 244.779 121.096 242.948 121.096 240.689V58.8751C121.096 56.6161 122.928 54.7847 125.187 54.7847H232.814C235.073 54.7847 236.905 56.6161 236.905 58.8751V240.689C236.905 242.948 235.073 244.779 232.814 244.779Z" fill="#E2F5F7"/>
<path d="M198.575 237.262H132.211C126.231 237.296 128.539 228.205 128.12 224.637C128.12 222.378 129.952 220.547 132.211 220.547H198.575C204.555 220.513 202.247 229.604 202.666 233.171C202.665 235.43 200.834 237.262 198.575 237.262Z" fill="#BAD8E2"/>
<path d="M177.038 183.264H225.79C228.049 183.264 229.88 185.096 229.88 187.355V211.025C229.88 213.284 228.049 215.115 225.79 215.115H177.038C174.779 215.115 172.948 213.284 172.948 211.025V187.355C172.947 185.096 174.779 183.264 177.038 183.264Z" fill="#B0DEEA"/>
<path d="M177.038 125.61H225.79C228.049 125.61 229.88 127.441 229.88 129.701V146.032C229.88 148.291 228.049 150.122 225.79 150.122H177.038C174.779 150.122 172.948 148.291 172.948 146.032V129.701C172.947 127.441 174.779 125.61 177.038 125.61Z" fill="#B0DEEA"/>
<path d="M177.038 62.3027H225.79C228.049 62.3027 229.88 64.1341 229.88 66.3932V78.5125C229.88 80.7715 228.049 82.6029 225.79 82.6029H177.038C174.779 82.6029 172.948 80.7715 172.948 78.5125V66.3932C172.947 64.1341 174.779 62.3027 177.038 62.3027Z" fill="#B0DEEA"/>
<path d="M132.211 155.553H180.962C183.221 155.553 185.052 157.385 185.052 159.644V173.742C185.052 176.001 183.221 177.833 180.962 177.833H132.211C129.952 177.833 128.12 176.001 128.12 173.742V159.644C128.12 157.385 129.952 155.553 132.211 155.553Z" fill="#86C5E0"/>
<path d="M132.211 88.0344H180.962C183.221 88.0344 185.052 89.8658 185.052 92.1252V116.088C185.052 118.347 183.221 120.179 180.962 120.179H132.211C129.952 120.179 128.12 118.347 128.12 116.088V92.1252C128.12 89.8658 129.952 88.0344 132.211 88.0344Z" fill="#86C5E0"/>
<path d="M225.789 237.262H212.021C209.762 237.262 207.93 235.43 207.93 233.171C208.355 229.592 206.034 220.524 212.021 220.547H225.789C228.049 220.547 229.88 222.379 229.88 224.638C229.456 228.217 231.777 237.286 225.789 237.262Z" fill="#66AADD"/>
<path d="M218.515 225.666C214.255 233.246 213.486 231.559 222.046 231.738C222.395 231.738 222.611 231.36 222.436 231.059L219.296 225.667C219.121 225.367 218.689 225.367 218.515 225.666Z" fill="#E2F5F7"/>
<path d="M120.702 113.953C120.702 113.953 127.705 126.962 130.173 135.645C130.54 142.617 125.267 141.318 123.923 141.028C122.58 140.738 120.702 113.953 120.702 113.953Z" fill="url(#paint0_linear_63_17432)"/>
<path d="M102.429 79.3216C112.724 75.5346 121.611 81.5264 121.976 92.3509C122.058 94.6843 122.598 108.219 119.072 108.475C116.03 108.696 115.751 104.622 99.0879 107.91C91.5712 109.394 88.5088 101.597 91.5862 95.4751C95.698 90.0328 95.3919 82.0844 102.429 79.3216Z" fill="url(#paint1_linear_63_17432)"/>
<path d="M114.457 100.701C114.457 100.701 113.422 110.181 116.41 111.367C116.41 111.367 111.759 116.328 106.998 109.053C106.998 109.053 107.949 104.068 106.998 100.162L114.457 100.701Z" fill="url(#paint2_linear_63_17432)"/>
<path d="M118.318 89.6207C116.411 94.746 121.43 101.028 114.237 106.043C112.183 105.77 103.46 104.978 103.03 97.4894C102.672 96.2088 100.733 95.6386 101.473 93.4906C102.214 91.3425 103.254 92.6699 103.254 92.6699C103.254 92.6699 103.395 91.0265 103.626 89.6455C103.858 88.2648 118.318 89.6207 118.318 89.6207Z" fill="url(#paint3_linear_63_17432)"/>
<path d="M123.743 244.673C123.743 244.673 123.712 246.883 123.755 247.989C123.773 248.474 118.583 250.845 117.479 247.521L118.181 244.864L122.494 243.336L123.743 244.673Z" fill="url(#paint4_linear_63_17432)"/>
<path d="M115.761 203.635C113.307 216.727 117.619 244.8 118.181 244.863C121.596 246.527 123.743 244.673 123.743 244.673C124.557 232.405 129.841 167.245 123.137 153.81L114.804 151.409C112.816 153.929 110.346 157.462 109.049 163.021C107.226 172.452 114.292 195.982 115.761 203.635Z" fill="url(#paint5_linear_63_17432)"/>
<path d="M95.0142 249.967C95.0142 249.967 97.3656 252.351 100.606 251.029C100.763 249.818 101.069 248.286 101.493 246.512C100.297 246.918 98.2144 247.173 95.4357 245.792C95.1123 248.314 94.9341 249.95 95.0142 249.967Z" fill="url(#paint6_linear_63_17432)"/>
<path opacity="0.5" d="M108.624 167.374C108.806 174.923 114.404 198.109 115.762 203.635C114.458 197.882 113.284 174.554 117.48 163.884C121.675 153.215 123.701 157.301 123.701 157.301L123.968 156.889C123.487 154.775 123.137 153.81 123.137 153.81L114.804 151.409C114.233 151.417 109.397 162.422 109.049 163.021C108.753 164.412 108.588 165.874 108.624 167.374Z" fill="url(#paint7_linear_63_17432)"/>
<path d="M101.061 154.225C101.061 154.225 93.0316 164.61 94.9953 187.942C96.9591 211.273 96.0808 240.247 95.4359 245.791C96.7524 249.967 101.493 246.512 101.493 246.512C107.959 228.587 111.665 179.987 116.453 155.815C120.185 140.67 101.061 154.225 101.061 154.225Z" fill="url(#paint8_linear_63_17432)"/>
<path d="M126.285 126.973C126.286 130.24 124.189 132.761 123.812 135.931C123.812 135.931 123.811 135.931 123.809 135.933C123.072 141.606 122.349 148.54 123.136 153.811C123.279 154.646 109.776 158.098 101.06 154.226C98.9352 146.058 97.1004 137.165 96.2719 128.679C96.1891 122.82 94.3672 114.978 98.9769 112.561C101.25 111.081 104.807 109.026 107.005 109.071C107.005 109.071 108.869 111.977 113.312 112.146C115.927 112.146 114.912 109.327 114.806 109.069C116.269 111.591 119.9 111.856 121.614 114.068C122.408 115.846 123.054 117.709 123.748 119.548C124.618 122.056 126.425 124.157 126.285 126.973Z" fill="url(#paint9_linear_63_17432)"/>
<path d="M121.629 113.953C121.665 114.051 122.837 117.246 123.883 119.914C123.173 117.455 122.341 114.979 121.629 113.953Z" fill="url(#paint10_linear_63_17432)"/>
<path d="M120.63 131.43C120.588 131.441 120.44 131.48 120.201 131.537C120.377 131.506 120.522 131.471 120.63 131.43Z" fill="url(#paint11_linear_63_17432)"/>
<path d="M107.067 108.645C107.067 108.645 105.984 108.668 105.749 109.224C105.513 109.78 108.169 115.519 109.327 116.059C110.485 116.599 113.313 112.146 113.313 112.146C113.313 112.146 108.075 110.952 107.067 108.645Z" fill="#E1FDFF"/>
<path d="M114.841 109.14C117.25 110.248 116.077 119.924 113.312 112.146C113.312 112.146 115.371 111.873 114.841 109.14Z" fill="#E1FDFF"/>
<path d="M118.318 89.6207C118.318 89.6207 114.821 98.0836 102.835 92.7819C90.85 87.4801 110.577 86.4001 110.577 86.4001L118.318 89.6207Z" fill="url(#paint12_linear_63_17432)"/>
<path opacity="0.5" d="M123.136 153.811C123.279 154.646 109.776 158.098 101.06 154.226C99.2601 146.671 96.9743 138.19 96.6519 130.359C96.6519 130.359 98.2871 131.259 99.567 129.286C101.282 126.381 102.899 120.82 103.238 121.628C103.957 122.206 103.799 127.06 103.532 131.009C103.435 132.42 103.326 133.717 103.238 134.66C102.903 138.242 113.316 136.067 113.316 136.067L123.142 141.938C123.127 142.111 123.113 142.284 123.099 142.456C115.939 142.597 105.35 145.526 100.22 147.522C102.385 154.255 106.542 156.184 123.136 153.811Z" fill="url(#paint13_linear_63_17432)"/>
<path d="M111.952 142.194C112.092 142.352 112.301 142.446 112.534 142.428L124.464 141.496C124.769 141.472 125.025 141.253 125.093 140.958L128.87 124.653C128.98 124.188 128.589 123.764 128.132 123.803C128.031 123.829 127.616 123.829 127.504 123.851L115.026 124.813C114.702 124.837 114.438 125.079 114.387 125.396L111.866 141.117L111.8 141.524C111.744 141.761 111.79 142.025 111.952 142.194Z" fill="url(#paint14_linear_63_17432)"/>
<path opacity="0.5" d="M111.932 141.831L113.663 141.696C113.267 141.69 113.205 141.153 113.373 141.024C113.458 140.919 117.692 135.761 117.643 135.818C117.661 135.741 118.436 132.551 118.436 132.551C118.436 132.551 119.481 134.833 119.09 136.238C118.698 137.643 123.346 131.89 123.346 131.89C123.346 131.89 123.165 135.35 121.427 136.82L124.789 134.198C124.789 134.198 124.038 136.32 122.142 137.476C123.337 136.904 125.11 136.062 125.11 136.062C125.11 136.062 124.058 137.798 122.65 138.496L124.257 138.237C123.931 139.61 120.387 141.133 118.033 141.354L123.862 140.898C124.971 140.977 127.915 124.685 128.28 123.806C130.132 123.217 124.777 140.629 125.094 140.958C125.617 141.944 112.782 142.19 112.534 142.429C112.155 142.458 111.832 142.188 111.783 141.824C111.831 141.832 111.88 141.834 111.932 141.831Z" fill="url(#paint15_linear_63_17432)"/>
<path d="M117.983 140.645C117.95 140.65 117.933 140.654 117.933 140.654C117.939 140.654 117.942 140.657 117.948 140.657C117.235 140.889 116.518 141.112 115.802 141.331C116.122 138.455 114.212 136.815 114.136 136.751C114.885 136.638 115.518 136.548 115.995 136.486C116.836 135.757 116.885 134.684 117.477 133.787C118.085 133.051 117.459 132.311 117.62 132.068C117.78 131.827 117.896 131.842 118.309 132.345C118.852 132.531 118.025 136.753 119.753 135.635L121.273 134.254C121.273 134.254 121.825 133.147 122.296 132.135C124.914 128.577 122.06 135.682 121.371 135.981C122.282 135.684 122.399 135.316 123.717 134.072C127.386 131.634 122.319 137.265 121.553 137.35C122.421 137.193 122.632 136.816 124.066 135.795C127.611 134.011 123.26 137.958 122.191 138.379C122.706 138.119 125.618 136.775 124.256 138.237C123.327 139.002 121.046 140.309 120.317 140.324C119.654 140.27 118.678 140.655 117.95 140.657C117.961 140.653 117.971 140.65 117.983 140.645Z" fill="url(#paint16_linear_63_17432)"/>
<path d="M117.981 140.645C117.97 140.65 117.96 140.653 117.949 140.657C117.944 140.657 117.939 140.654 117.933 140.654C117.933 140.654 117.95 140.65 117.981 140.645Z" fill="url(#paint17_linear_63_17432)"/>
<path d="M117.981 140.645C117.97 140.65 117.96 140.653 117.949 140.657C117.944 140.657 117.939 140.654 117.933 140.654C117.933 140.654 117.95 140.65 117.981 140.645Z" fill="url(#paint18_linear_63_17432)"/>
<path d="M93.0928 140.091C93.2061 144.734 94.0414 146.43 98.5354 145.76C104.46 144.638 110.079 142.992 115.802 141.331C116.123 138.455 114.212 136.815 114.136 136.75C107.749 137.685 99.1361 139.144 93.0928 140.091Z" fill="url(#paint19_linear_63_17432)"/>
<path d="M102.793 127.732C102.012 132.786 99.5273 137.633 99.586 142.803C98.8981 143.023 94.6943 144.357 93.9103 144.606C92.1576 139.577 92.9104 118.197 96.7364 114.402C104.212 106.68 103.617 123.912 102.793 127.732Z" fill="url(#paint20_linear_63_17432)"/>
<path d="M134.113 253.59C121.985 254.184 116.364 253.191 116.364 253.191C116.069 249.868 117.479 247.522 117.48 247.521C120.233 250.822 126.305 245.727 130.535 247.905C132.833 248.674 134.174 251.347 134.113 253.59Z" fill="url(#paint21_linear_63_17432)"/>
<path d="M100.606 251.029C100.393 250.935 103.414 255.18 101.026 255.496C99.1279 256.085 92.1237 256.731 91.9971 254.071C92.3636 252.967 93.2545 250.909 95.0147 249.967C95.0147 249.967 96.9265 251.434 100.606 251.029Z" fill="url(#paint22_linear_63_17432)"/>
<path d="M237.94 114.068C237.94 114.068 232.604 127.832 231.231 136.751C231.732 143.714 236.804 141.782 238.101 141.331C239.399 140.879 237.94 114.068 237.94 114.068Z" fill="url(#paint23_linear_63_17432)"/>
<path d="M245.096 100.701C245.096 100.701 246.131 110.181 243.143 111.367C243.143 111.367 247.794 116.328 252.555 109.053C252.555 109.053 251.604 104.068 252.555 100.162L245.096 100.701Z" fill="url(#paint24_linear_63_17432)"/>
<path d="M235.81 244.673C235.81 244.673 235.84 246.883 235.798 247.989C235.78 248.474 240.97 250.845 242.074 247.521L241.372 244.864L237.059 243.336L235.81 244.673Z" fill="url(#paint25_linear_63_17432)"/>
<path d="M243.791 203.635C246.245 216.727 241.933 244.8 241.371 244.863C237.957 246.527 235.81 244.673 235.81 244.673C234.995 232.405 229.712 167.245 236.415 153.81L244.748 151.409C246.736 153.929 249.206 157.462 250.504 163.021C252.327 172.452 245.261 195.982 243.791 203.635Z" fill="url(#paint26_linear_63_17432)"/>
<path d="M264.539 249.967C264.539 249.967 262.187 252.351 258.947 251.029C258.79 249.818 258.483 248.286 258.06 246.512C259.256 246.918 261.338 247.173 264.117 245.792C264.441 248.314 264.619 249.95 264.539 249.967Z" fill="url(#paint27_linear_63_17432)"/>
<path opacity="0.5" d="M250.93 167.374C250.748 174.923 245.15 198.109 243.792 203.635C245.096 197.882 246.269 174.554 242.074 163.884C237.879 153.215 235.853 157.301 235.853 157.301L235.585 156.889C236.066 154.775 236.417 153.81 236.417 153.81L244.75 151.409C245.32 151.417 250.157 162.422 250.504 163.021C250.8 164.412 250.965 165.874 250.93 167.374Z" fill="url(#paint28_linear_63_17432)"/>
<path d="M258.492 154.225C258.492 154.225 264.362 165.392 262.398 188.723C260.434 212.055 263.472 240.247 264.117 245.791C262.8 249.966 258.06 246.512 258.06 246.512C251.594 228.586 247.888 179.987 243.1 155.814C239.368 140.67 258.492 154.225 258.492 154.225Z" fill="url(#paint29_linear_63_17432)"/>
<path d="M263.282 128.679C262.454 137.16 260.618 146.063 258.493 154.226C249.745 158.106 236.255 154.642 236.418 153.811C238.081 140.942 232.322 126.602 237.94 114.068C239.653 111.857 243.284 111.59 244.748 109.069C244.641 109.327 243.626 112.146 246.241 112.146C250.685 111.977 252.548 109.071 252.548 109.071C254.746 109.026 258.304 111.081 260.576 112.561C265.185 114.971 263.365 122.829 263.282 128.679Z" fill="url(#paint30_linear_63_17432)"/>
<path d="M238.923 131.43C238.965 131.441 239.113 131.48 239.352 131.537C239.176 131.506 239.031 131.471 238.923 131.43Z" fill="url(#paint31_linear_63_17432)"/>
<path d="M252.486 108.645C252.486 108.645 253.569 108.668 253.804 109.224C254.04 109.78 251.383 115.519 250.226 116.059C249.068 116.599 246.24 112.146 246.24 112.146C246.24 112.146 251.478 110.952 252.486 108.645Z" fill="#E1FDFF"/>
<path d="M244.712 109.14C244.712 109.14 244.101 109.876 243.943 109.865C243.758 109.851 242.883 113.154 243.795 114.704C244.861 116.514 246.241 112.146 246.241 112.146C246.241 112.146 244.182 111.873 244.712 109.14Z" fill="#E1FDFF"/>
<path opacity="0.5" d="M236.417 153.811C236.274 154.646 249.777 158.098 258.492 154.226C260.293 146.671 262.578 138.19 262.901 130.359C262.901 130.359 261.266 131.259 259.986 129.286C258.271 126.381 256.654 120.82 256.314 121.628C255.596 122.206 255.754 127.06 256.021 131.009C256.117 132.42 256.226 133.717 256.314 134.66C256.649 138.242 246.236 136.067 246.236 136.067L236.411 141.938C236.425 142.111 236.439 142.284 236.454 142.456C243.613 142.597 254.202 145.526 259.332 147.522C257.168 154.255 253.01 156.184 236.417 153.811Z" fill="url(#paint32_linear_63_17432)"/>
<path d="M247.601 142.194C247.461 142.352 247.252 142.446 247.019 142.428L235.089 141.496C234.785 141.472 234.529 141.253 234.46 140.958L230.683 124.653C230.573 124.188 230.965 123.764 231.422 123.803C231.523 123.829 231.938 123.829 232.049 123.851L244.527 124.813C244.852 124.837 245.116 125.079 245.166 125.396L247.688 141.117L247.753 141.524C247.81 141.761 247.763 142.025 247.601 142.194Z" fill="url(#paint33_linear_63_17432)"/>
<path opacity="0.5" d="M247.621 141.831L245.891 141.696C246.225 141.671 246.393 141.283 246.182 141.025L241.911 135.82L241.118 132.551C241.118 132.551 240.073 134.833 240.464 136.238C240.855 137.643 236.207 131.89 236.207 131.89C236.207 131.89 236.389 135.35 238.126 136.82L234.765 134.198C234.765 134.198 235.516 136.32 237.412 137.476C236.217 136.904 234.443 136.062 234.443 136.062C234.443 136.062 235.496 137.798 236.904 138.496L235.297 138.237C235.623 139.61 239.167 141.133 241.52 141.354L235.691 140.898C234.582 140.977 231.639 124.685 231.274 123.806C229.421 123.217 234.777 140.629 234.46 140.958C233.936 141.944 246.771 142.19 247.019 142.429C247.398 142.458 247.722 142.188 247.771 141.824C247.722 141.832 247.673 141.834 247.621 141.831Z" fill="url(#paint34_linear_63_17432)"/>
<path d="M241.57 140.645C241.602 140.65 241.619 140.654 241.619 140.654C241.614 140.654 241.61 140.657 241.605 140.657C242.318 140.889 243.034 141.112 243.751 141.331C243.43 138.455 245.34 136.815 245.416 136.751C244.667 136.638 244.035 136.548 243.557 136.486C242.716 135.757 242.668 134.684 242.076 133.787C241.467 133.051 242.093 132.311 241.933 132.068C241.772 131.827 241.656 131.842 241.243 132.345C240.7 132.531 241.527 136.753 239.8 135.635L238.279 134.254C238.279 134.254 237.727 133.147 237.256 132.135C234.639 128.577 237.493 135.682 238.182 135.981C237.271 135.684 237.153 135.316 235.835 134.072C232.167 131.634 237.233 137.265 237.999 137.35C237.131 137.193 236.921 136.816 235.487 135.795C231.941 134.011 236.293 137.958 237.362 138.379C236.847 138.119 233.935 136.775 235.296 138.237C236.226 139.002 238.507 140.309 239.235 140.324C239.898 140.27 240.875 140.655 241.602 140.657C241.591 140.653 241.582 140.65 241.57 140.645Z" fill="url(#paint35_linear_63_17432)"/>
<path d="M241.57 140.645C241.586 140.651 241.6 140.661 241.618 140.654C241.618 140.654 241.601 140.65 241.57 140.645Z" fill="url(#paint36_linear_63_17432)"/>
<path d="M241.57 140.645C241.586 140.651 241.6 140.661 241.618 140.654C241.618 140.654 241.601 140.65 241.57 140.645Z" fill="url(#paint37_linear_63_17432)"/>
<path d="M266.461 140.091C266.348 144.734 265.512 146.43 261.018 145.76C255.094 144.638 249.475 142.992 243.752 141.331C243.431 138.455 245.341 136.815 245.418 136.75C251.805 137.685 260.418 139.144 266.461 140.091Z" fill="url(#paint38_linear_63_17432)"/>
<path d="M256.761 127.732C257.542 132.786 260.027 137.633 259.968 142.803C260.656 143.023 264.86 144.357 265.644 144.606C267.396 139.577 266.644 118.197 262.818 114.402C255.342 106.68 255.937 123.912 256.761 127.732Z" fill="url(#paint39_linear_63_17432)"/>
<path d="M225.439 253.59C237.567 254.184 243.188 253.191 243.188 253.191C243.484 249.868 242.073 247.522 242.072 247.521C239.319 250.822 233.248 245.727 229.018 247.905C226.72 248.674 225.378 251.347 225.439 253.59Z" fill="url(#paint40_linear_63_17432)"/>
<path d="M258.947 251.029C259.159 250.935 256.138 255.18 258.526 255.496C260.425 256.085 267.429 256.731 267.556 254.071C267.189 252.967 266.298 250.909 264.538 249.967C264.538 249.967 262.627 251.434 258.947 251.029Z" fill="url(#paint41_linear_63_17432)"/>
<path d="M236.372 85.9775C236.372 85.9775 240.99 75.7663 250.549 78.7201C253.901 79.5815 255.143 82.0809 255.143 82.0809C255.143 82.0809 258.4 81.2198 259.875 86.2463C261.35 91.2728 256.521 99.6872 256.521 99.6872L250.549 87.7037L236.372 85.9775Z" fill="url(#paint42_linear_63_17432)"/>
<path d="M237.492 90.6238C241.093 95.7888 237.323 104.078 246.733 107.608C248.981 106.668 258.286 103.453 256.647 94.9848C256.673 93.469 258.65 92.2899 257.213 90.1269C255.776 87.9643 255.01 89.7248 255.01 89.7248C255.01 89.7248 254.381 87.9493 253.726 86.4899C253.072 85.0298 237.492 90.6238 237.492 90.6238Z" fill="url(#paint43_linear_63_17432)"/>
<path d="M255.566 92.0257C255.566 92.0257 255.012 98.4434 254.317 98.9318C251.391 98.1624 253.287 90.382 248.695 89.8223C246.001 89.4962 239.974 98.8551 229.407 94.5929C232.428 94.9395 234.792 91.2692 235.274 88.7424C237.659 77.0018 256.686 80.4705 255.566 92.0257Z" fill="url(#paint44_linear_63_17432)"/>
</g>
<defs>
<linearGradient id="paint0_linear_63_17432" x1="122.832" y1="127.302" x2="129.876" y2="145.498" gradientUnits="userSpaceOnUse">
<stop stop-color="#0063B9"/>
<stop offset="1" stop-color="#00C3E7"/>
</linearGradient>
<linearGradient id="paint1_linear_63_17432" x1="122.167" y1="71.1547" x2="102.473" y2="107.31" gradientUnits="userSpaceOnUse">
<stop stop-color="#005A8B"/>
<stop offset="1" stop-color="#001145"/>
</linearGradient>
<linearGradient id="paint2_linear_63_17432" x1="111.245" y1="101.31" x2="111.695" y2="110.043" gradientUnits="userSpaceOnUse">
<stop stop-color="#F0877E"/>
<stop offset="1" stop-color="#FABEB2"/>
</linearGradient>
<linearGradient id="paint3_linear_63_17432" x1="107.771" y1="84.6761" x2="111.338" y2="101.357" gradientUnits="userSpaceOnUse">
<stop stop-color="#F0877E"/>
<stop offset="1" stop-color="#FABEB2"/>
</linearGradient>
<linearGradient id="paint4_linear_63_17432" x1="121.954" y1="242.051" x2="120.162" y2="249.704" gradientUnits="userSpaceOnUse">
<stop stop-color="#F0877E"/>
<stop offset="1" stop-color="#FABEB2"/>
</linearGradient>
<linearGradient id="paint5_linear_63_17432" x1="117.341" y1="252.919" x2="117.746" y2="141.938" gradientUnits="userSpaceOnUse">
<stop stop-color="#005A8B"/>
<stop offset="1" stop-color="#001145"/>
</linearGradient>
<linearGradient id="paint6_linear_63_17432" x1="98.3963" y1="246.616" x2="97.5847" y2="250.495" gradientUnits="userSpaceOnUse">
<stop stop-color="#F0877E"/>
<stop offset="1" stop-color="#FABEB2"/>
</linearGradient>
<linearGradient id="paint7_linear_63_17432" x1="115.962" y1="252.914" x2="116.367" y2="141.933" gradientUnits="userSpaceOnUse">
<stop stop-color="#005A8B"/>
<stop offset="1" stop-color="#001145"/>
</linearGradient>
<linearGradient id="paint8_linear_63_17432" x1="105.496" y1="252.876" x2="105.901" y2="141.895" gradientUnits="userSpaceOnUse">
<stop stop-color="#005A8B"/>
<stop offset="1" stop-color="#001145"/>
</linearGradient>
<linearGradient id="paint9_linear_63_17432" x1="108.095" y1="154.359" x2="111.539" y2="118.295" gradientUnits="userSpaceOnUse">
<stop stop-color="#0063B9"/>
<stop offset="1" stop-color="#00C3E7"/>
</linearGradient>
<linearGradient id="paint10_linear_63_17432" x1="118.102" y1="153.535" x2="124.04" y2="106.841" gradientUnits="userSpaceOnUse">
<stop stop-color="#0063B9"/>
<stop offset="1" stop-color="#00C3E7"/>
</linearGradient>
<linearGradient id="paint11_linear_63_17432" x1="117.608" y1="153.557" x2="123.567" y2="106.704" gradientUnits="userSpaceOnUse">
<stop stop-color="#0063B9"/>
<stop offset="1" stop-color="#00C3E7"/>
</linearGradient>
<linearGradient id="paint12_linear_63_17432" x1="119.531" y1="69.5845" x2="99.747" y2="105.904" gradientUnits="userSpaceOnUse">
<stop stop-color="#005A8B"/>
<stop offset="1" stop-color="#001145"/>
</linearGradient>
<linearGradient id="paint13_linear_63_17432" x1="99.2266" y1="135.237" x2="116.273" y2="150.854" gradientUnits="userSpaceOnUse">
<stop stop-color="#0063B9"/>
<stop offset="1" stop-color="#00C3E7"/>
</linearGradient>
<linearGradient id="paint14_linear_63_17432" x1="118.932" y1="129.975" x2="130.977" y2="157.003" gradientUnits="userSpaceOnUse">
<stop stop-color="#FFC15C"/>
<stop offset="1" stop-color="#FF5600"/>
</linearGradient>
<linearGradient id="paint15_linear_63_17432" x1="119.771" y1="129.687" x2="122.992" y2="153.903" gradientUnits="userSpaceOnUse">
<stop stop-color="#FFC15C"/>
<stop offset="1" stop-color="#FF5600"/>
</linearGradient>
<linearGradient id="paint16_linear_63_17432" x1="112.782" y1="137.724" x2="122.556" y2="135.246" gradientUnits="userSpaceOnUse">
<stop stop-color="#F0877E"/>
<stop offset="1" stop-color="#FABEB2"/>
</linearGradient>
<linearGradient id="paint17_linear_63_17432" x1="117.981" y1="140.617" x2="117.936" y2="140.678" gradientUnits="userSpaceOnUse">
<stop stop-color="#F0877E"/>
<stop offset="1" stop-color="#FABEB2"/>
</linearGradient>
<linearGradient id="paint18_linear_63_17432" x1="118.193" y1="140.331" x2="117.893" y2="140.736" gradientUnits="userSpaceOnUse">
<stop stop-color="#F0877E"/>
<stop offset="1" stop-color="#FABEB2"/>
</linearGradient>
<linearGradient id="paint19_linear_63_17432" x1="105.07" y1="156.287" x2="103.317" y2="110.179" gradientUnits="userSpaceOnUse">
<stop stop-color="#0063B9"/>
<stop offset="1" stop-color="#00C3E7"/>
</linearGradient>
<linearGradient id="paint20_linear_63_17432" x1="97.0428" y1="156.885" x2="98.8096" y2="110.42" gradientUnits="userSpaceOnUse">
<stop stop-color="#0063B9"/>
<stop offset="1" stop-color="#00C3E7"/>
</linearGradient>
<linearGradient id="paint21_linear_63_17432" x1="127.21" y1="247.022" x2="124.26" y2="254.251" gradientUnits="userSpaceOnUse">
<stop stop-color="#005A8B"/>
<stop offset="1" stop-color="#001145"/>
</linearGradient>
<linearGradient id="paint22_linear_63_17432" x1="97.0025" y1="252.448" x2="96.9296" y2="257.045" gradientUnits="userSpaceOnUse">
<stop stop-color="#005A8B"/>
<stop offset="1" stop-color="#001145"/>
</linearGradient>
<linearGradient id="paint23_linear_63_17432" x1="247.787" y1="141.516" x2="231.365" y2="123.04" gradientUnits="userSpaceOnUse">
<stop stop-color="#0063B9"/>
<stop offset="1" stop-color="#00C3E7"/>
</linearGradient>
<linearGradient id="paint24_linear_63_17432" x1="248.308" y1="101.31" x2="247.858" y2="110.043" gradientUnits="userSpaceOnUse">
<stop stop-color="#F0877E"/>
<stop offset="1" stop-color="#FABEB2"/>
</linearGradient>
<linearGradient id="paint25_linear_63_17432" x1="237.599" y1="242.051" x2="239.391" y2="249.704" gradientUnits="userSpaceOnUse">
<stop stop-color="#F0877E"/>
<stop offset="1" stop-color="#FABEB2"/>
</linearGradient>
<linearGradient id="paint26_linear_63_17432" x1="242.212" y1="252.919" x2="241.807" y2="141.938" gradientUnits="userSpaceOnUse">
<stop stop-color="#005A8B"/>
<stop offset="1" stop-color="#001145"/>
</linearGradient>
<linearGradient id="paint27_linear_63_17432" x1="261.157" y1="246.616" x2="261.968" y2="250.495" gradientUnits="userSpaceOnUse">
<stop stop-color="#F0877E"/>
<stop offset="1" stop-color="#FABEB2"/>
</linearGradient>
<linearGradient id="paint28_linear_63_17432" x1="243.592" y1="252.914" x2="243.187" y2="141.933" gradientUnits="userSpaceOnUse">
<stop stop-color="#005A8B"/>
<stop offset="1" stop-color="#001145"/>
</linearGradient>
<linearGradient id="paint29_linear_63_17432" x1="253.563" y1="252.878" x2="253.158" y2="141.896" gradientUnits="userSpaceOnUse">
<stop stop-color="#005A8B"/>
<stop offset="1" stop-color="#001145"/>
</linearGradient>
<linearGradient id="paint30_linear_63_17432" x1="250.292" y1="150.849" x2="249.414" y2="118.786" gradientUnits="userSpaceOnUse">
<stop stop-color="#0063B9"/>
<stop offset="1" stop-color="#00C3E7"/>
</linearGradient>
<linearGradient id="paint31_linear_63_17432" x1="241.945" y1="153.558" x2="235.986" y2="106.703" gradientUnits="userSpaceOnUse">
<stop stop-color="#0063B9"/>
<stop offset="1" stop-color="#00C3E7"/>
</linearGradient>
<linearGradient id="paint32_linear_63_17432" x1="260.326" y1="135.237" x2="243.28" y2="150.854" gradientUnits="userSpaceOnUse">
<stop stop-color="#0063B9"/>
<stop offset="1" stop-color="#00C3E7"/>
</linearGradient>
<linearGradient id="paint33_linear_63_17432" x1="240.621" y1="129.975" x2="228.576" y2="157.003" gradientUnits="userSpaceOnUse">
<stop stop-color="#FFC15C"/>
<stop offset="1" stop-color="#FF5600"/>
</linearGradient>
<linearGradient id="paint34_linear_63_17432" x1="239.782" y1="129.687" x2="236.561" y2="153.903" gradientUnits="userSpaceOnUse">
<stop stop-color="#FFC15C"/>
<stop offset="1" stop-color="#FF5600"/>
</linearGradient>
<linearGradient id="paint35_linear_63_17432" x1="246.771" y1="137.724" x2="236.997" y2="135.246" gradientUnits="userSpaceOnUse">
<stop stop-color="#F0877E"/>
<stop offset="1" stop-color="#FABEB2"/>
</linearGradient>
<linearGradient id="paint36_linear_63_17432" x1="241.57" y1="140.617" x2="241.615" y2="140.678" gradientUnits="userSpaceOnUse">
<stop stop-color="#F0877E"/>
<stop offset="1" stop-color="#FABEB2"/>
</linearGradient>
<linearGradient id="paint37_linear_63_17432" x1="241.358" y1="140.331" x2="241.658" y2="140.736" gradientUnits="userSpaceOnUse">
<stop stop-color="#F0877E"/>
<stop offset="1" stop-color="#FABEB2"/>
</linearGradient>
<linearGradient id="paint38_linear_63_17432" x1="255.375" y1="150.878" x2="254.488" y2="118.526" gradientUnits="userSpaceOnUse">
<stop stop-color="#0063B9"/>
<stop offset="1" stop-color="#00C3E7"/>
</linearGradient>
<linearGradient id="paint39_linear_63_17432" x1="262.029" y1="150.583" x2="261.151" y2="118.526" gradientUnits="userSpaceOnUse">
<stop stop-color="#0063B9"/>
<stop offset="1" stop-color="#00C3E7"/>
</linearGradient>
<linearGradient id="paint40_linear_63_17432" x1="232.342" y1="247.022" x2="235.293" y2="254.251" gradientUnits="userSpaceOnUse">
<stop stop-color="#005A8B"/>
<stop offset="1" stop-color="#001145"/>
</linearGradient>
<linearGradient id="paint41_linear_63_17432" x1="262.55" y1="252.448" x2="262.623" y2="257.045" gradientUnits="userSpaceOnUse">
<stop stop-color="#005A8B"/>
<stop offset="1" stop-color="#001145"/>
</linearGradient>
<linearGradient id="paint42_linear_63_17432" x1="233.323" y1="70.8687" x2="255.411" y2="92.5148" gradientUnits="userSpaceOnUse">
<stop stop-color="#005A8B"/>
<stop offset="1" stop-color="#001145"/>
</linearGradient>
<linearGradient id="paint43_linear_63_17432" x1="247.734" y1="82.1866" x2="248.559" y2="101.611" gradientUnits="userSpaceOnUse">
<stop stop-color="#F0877E"/>
<stop offset="1" stop-color="#FABEB2"/>
</linearGradient>
<linearGradient id="paint44_linear_63_17432" x1="227.633" y1="76.3862" x2="249.847" y2="98.1555" gradientUnits="userSpaceOnUse">
<stop stop-color="#005A8B"/>
<stop offset="1" stop-color="#001145"/>
</linearGradient>
<clipPath id="clip0_63_17432">
<rect width="358" height="258.842" fill="white"/>
</clipPath>
</defs>
</svg>
