<svg width="358" height="259" viewBox="0 0 358 259" fill="none" xmlns="http://www.w3.org/2000/svg">
<g clip-path="url(#clip0_114_907)">
<g opacity="0.5">
<path opacity="0.5" d="M316.434 254.058C323.963 260.434 28.6405 260.434 36.1714 254.057C28.6412 247.682 323.964 247.682 316.434 254.058Z" fill="#4DCDFF"/>
<g opacity="0.3">
<path opacity="0.8" d="M305.186 125.919C302.311 293.824 50.3166 293.798 47.4663 125.914C50.3414 -41.9855 302.336 -41.959 305.186 125.919Z" fill="#4DCDFF"/>
<path opacity="0.6" d="M151.002 178.606C149.317 276.984 1.66985 276.969 0 178.603C1.68444 80.2284 149.332 80.244 151.002 178.606Z" fill="#4DCDFF"/>
<path opacity="0.6" d="M201.602 178.606C203.286 276.984 350.934 276.969 352.604 178.603C350.919 80.2284 203.272 80.244 201.602 178.606Z" fill="#4DCDFF"/>
<path opacity="0.5" d="M249.147 102.405C250.302 169.808 351.46 169.797 352.604 102.403C351.45 35.0033 250.292 35.0142 249.147 102.405Z" fill="#4DCDFF"/>
<path opacity="0.5" d="M103.457 102.405C102.302 169.808 1.14412 169.797 0 102.403C1.15396 35.0033 102.312 35.0142 103.457 102.405Z" fill="#4DCDFF"/>
</g>
</g>
<g opacity="0.9">
<g opacity="0.8">
<path d="M282.455 216.442C283.978 205.941 292.271 198.248 302.301 195.567C321.055 190.141 322.805 176.26 325.306 183.201C327.807 190.141 322.556 197.637 327.056 203.061C331.557 208.484 327.978 218.648 320.766 220.878C313.553 223.109 287.731 240.085 287.731 253.658C287.731 253.658 268.31 253.658 268.293 253.658C267.299 253.658 267.298 246.236 267.339 245.681C267.727 233.88 279.666 227.323 282.455 216.442Z" fill="#42CCA8"/>
<g opacity="0.8">
<path d="M296.499 225.25C296.091 218.57 299.21 211.877 304.234 207.492C307.099 204.98 310.292 203.151 313.068 200.712C315.251 198.919 317.711 197.195 318.949 194.576C317.951 197.804 315.058 199.928 312.717 202.178C304.599 208.322 297.204 214.231 296.499 225.25Z" fill="white"/>
</g>
</g>
<path d="M351.47 228.586C348.773 236.968 341.424 241.632 333.058 243.469C309.265 248.691 298.126 251.989 294.427 253.169C292.702 254.127 274.29 253.484 272.044 253.659C278.488 238.756 277.586 213.073 310.385 215.272C332.389 219.392 340.724 203.391 346.059 198.831C347.189 197.865 351.492 193.767 352.165 197.032C349.914 207.561 354.526 218.076 351.47 228.586Z" fill="#39C5E5"/>
<path d="M343.31 215.425C339.059 231.436 319.261 231.725 305.732 232.97C297.428 233.953 288.886 238.895 286.797 247.481C287.89 238.407 296.728 232.635 305.21 231.419C318.624 229.681 337.505 230.489 343.31 215.425Z" fill="#39C5E5"/>
<path opacity="0.8" d="M343.31 215.425C339.059 231.436 319.261 231.725 305.732 232.97C297.428 233.953 288.886 238.895 286.797 247.481C287.89 238.407 296.728 232.635 305.21 231.419C318.624 229.681 337.505 230.489 343.31 215.425Z" fill="white"/>
<g opacity="0.8">
<path d="M70.1488 216.442C68.6259 205.941 60.3327 198.248 50.3024 195.567C31.5485 190.141 29.7982 176.26 27.2975 183.201C24.7968 190.141 30.048 197.637 25.5472 203.061C21.0461 208.484 24.6258 218.648 31.838 220.878C39.0503 223.109 64.8728 240.085 64.8728 253.658C64.8728 253.658 84.2936 253.658 84.3103 253.658C85.3047 253.658 85.3057 246.236 85.265 245.681C84.8764 233.88 72.9376 227.323 70.1488 216.442Z" fill="#42CCA8"/>
<g opacity="0.8">
<path d="M56.1051 225.25C56.5127 218.57 53.3933 211.877 48.3695 207.492C45.5049 204.98 42.3115 203.151 39.5352 200.712C37.3529 198.919 34.8929 197.195 33.6548 194.576C34.653 197.804 37.5453 199.928 39.8862 202.178C48.005 208.322 55.3998 214.231 56.1051 225.25Z" fill="white"/>
</g>
</g>
<path d="M1.13368 228.586C3.83123 236.968 11.1799 241.632 19.5465 243.469C43.3387 248.691 54.4775 251.989 58.1773 253.169C59.9021 254.127 78.3139 253.484 80.56 253.659C74.1155 238.756 75.0176 213.073 42.2191 215.272C20.2154 219.392 11.8804 203.391 6.54473 198.831C5.41487 197.865 1.11196 193.767 0.439268 197.032C2.68949 207.561 -1.92194 218.076 1.13368 228.586Z" fill="#39C5E5"/>
<path d="M9.29395 215.425C13.5443 231.436 33.3425 231.725 46.8716 232.97C55.1761 233.953 63.7181 238.895 65.8067 247.481C64.7135 238.407 55.8759 232.635 47.394 231.419C33.9799 229.681 15.0987 230.489 9.29395 215.425Z" fill="#39C5E5"/>
<path opacity="0.8" d="M9.29395 215.425C13.5443 231.436 33.3425 231.725 46.8716 232.97C55.1761 233.953 63.7181 238.895 65.8067 247.481C64.7135 238.407 55.8759 232.635 47.394 231.419C33.9799 229.681 15.0987 230.489 9.29395 215.425Z" fill="white"/>
</g>
<g opacity="0.5">
<g opacity="0.8">
<path opacity="0.8" d="M37.2012 169.049C35.7947 168.636 37.3831 167.443 37.9462 166.642C43.8616 159.671 51.8534 150.589 58.3194 143.11C55.9656 145.483 53.3689 148.113 50.8896 150.624C33.8439 167.891 33.6908 167.891 33.2367 167.894C32.4893 167.843 32.5752 167.035 33.0161 166.644C40.47 157.875 50.7473 146.652 58.6038 137.606C51.6997 144.561 42.17 154.354 35.6152 160.911C28.9124 167.295 29.7171 167.279 28.4579 166.917C28.013 166.475 28.3351 166.092 29.6917 164.475C37.168 155.769 47.873 144.163 55.9581 135.007C49.3775 141.477 23.763 167.871 25.759 164.966C25.608 164.968 25.4576 164.907 25.3514 164.802C24.9095 164.364 25.1804 164.045 26.6832 162.273C34.0282 153.782 44.2434 142.69 52.2254 133.735C49.6124 136.371 46.7136 139.312 43.9475 142.117C24.6017 161.741 23.5047 162.678 22.9546 162.682C21.8223 162.28 22.2652 161.929 23.911 159.949C31.4165 151.284 41.8792 139.91 50.0095 130.787C46.1393 134.654 41.5208 139.307 37.3672 143.491C20.7481 160.231 20.6959 160.231 20.2889 160.233C20.1413 160.245 19.9919 160.174 19.8861 160.069C19.2999 158.979 21.0926 157.9 21.8929 156.641C28.0252 149.458 36.1508 140.513 43.1791 132.673C37.6109 138.082 21.3438 155.343 18.1317 157.241C17.9817 157.241 17.8235 157.178 17.7176 157.073C17.1848 156.189 18.3299 155.67 18.8743 154.803C26.4185 146.129 37.2097 134.363 45.2199 125.309C42.0601 128.491 38.3195 132.297 34.7854 135.892C17.5632 153.412 16.6431 154.193 16.1089 154.196C14.9905 153.818 15.4369 153.418 16.9519 151.582C23.7573 143.639 33.1712 133.32 40.603 124.911C37.6879 127.831 34.3696 131.171 31.2159 134.346C14.6624 151.009 14.5996 151.01 14.1899 151.011C13.2579 150.73 13.4392 150.363 14.5239 149.129C21.5708 140.985 31.2268 130.244 38.4441 121.88C34.8882 125.259 13.0502 147.823 13.8593 146.289C13.7093 146.29 13.563 146.231 13.4571 146.126C12.9124 145.27 14.1288 144.647 14.6695 143.75C19.8104 137.55 26.613 129.687 32.3783 122.917C30.5113 124.808 28.5251 126.83 26.6853 128.702C13.3967 141.877 14.4034 141.852 13.0006 141.49C12.3056 140.542 15.1362 138.204 16.1618 136.588C19.2904 132.713 23.8961 127.12 27.4072 122.817C9.33072 141.727 11.6268 137.298 20.7084 124.368C18.9602 126.125 18.9194 126.125 18.6805 126.126C18.1368 126.145 17.9012 125.381 18.3744 125.1C18.6439 124.864 20.1219 123.372 21.2101 122.274C23.8292 119.632 23.8292 119.632 24.1024 119.631C25.5758 120.08 23.69 121.642 23.1602 122.737C21.5016 125.214 18.9829 128.879 17.1423 131.607C19.7523 129.155 34.4735 113.709 33.609 115.313C34.5634 115.595 34.3207 115.995 33.2828 117.308C29.0739 122.639 23.4056 129.43 18.7942 135.118C20.963 132.931 23.4895 130.359 25.8802 127.925C39.2573 114.308 39.3934 114.307 39.8441 114.304C40.5677 114.349 40.5185 115.136 40.0831 115.517C34.6873 122.055 27.5877 130.185 21.6669 137.179C62.2279 95.5754 40.7917 121.66 24.0349 139.982C26.1076 137.9 28.3018 135.692 30.4153 133.564C48.3549 115.505 48.4537 115.505 48.8694 115.503C49.9837 115.891 49.5224 116.288 47.989 118.155C41.0296 126.283 31.3313 136.908 23.7657 145.475C26.8801 142.338 30.529 138.626 33.9806 135.114C51.1662 117.632 52.0842 116.853 52.6168 116.849C53.7656 117.284 53.3611 117.542 51.4767 119.847C44.1895 128.328 34.1375 139.295 26.0944 148.318C30.5201 144.03 57.4909 116.27 55.5295 119.024C55.6802 119.023 55.8282 119.083 55.9344 119.188C56.4537 119.964 55.5037 120.36 55.0621 121.053C47.0204 130.179 36.3171 141.882 27.9441 151.385C30.5738 148.747 33.5893 145.709 36.5665 142.71C58.3183 121.162 57.309 121.184 58.7429 121.549C59.1858 121.988 58.9052 122.319 57.347 124.152C49.7274 132.954 39.0459 144.562 30.8157 153.802C34.5739 150.033 39.0907 145.451 43.1441 141.34C60.2685 123.969 60.3921 123.968 60.8516 123.966C61.0043 123.968 61.1544 124.026 61.2603 124.132C61.7083 124.576 61.3902 124.951 59.8626 126.755C52.6554 135.106 42.7786 145.834 34.8356 154.73C37.2851 152.262 39.9558 149.56 42.5128 146.974C61.4897 127.777 62.4807 126.922 62.9888 126.919C64.1339 127.314 63.6384 127.753 62.0164 129.749C54.6267 138.404 44.2288 149.681 36.1779 158.761C43.25 151.778 66.7344 127.303 65.35 129.769C65.5014 129.767 65.6575 129.83 65.7638 129.935C66.1968 130.364 65.9908 130.667 64.174 132.848C57.8225 140.355 49.4502 149.623 42.2271 157.794C50.5345 149.541 67.0406 132.322 66.3513 133.926C67.1312 134.022 67.0229 134.743 66.506 135.25C60.3914 142.578 52.4657 151.496 45.709 159.331C47.1972 157.826 48.7459 156.256 50.2444 154.738C66.4605 138.174 68.0123 136.766 67.1448 139.692C61.7907 146.304 54.6386 154.576 48.7768 161.604C51.98 158.517 68.6005 141.245 67.4244 143.118C67.5748 143.117 67.7218 143.177 67.8276 143.282C68.3422 144.04 67.3871 144.527 66.9679 145.269C63.4701 149.751 58.916 155.357 54.9308 160.329C65.9945 149.147 66.9948 147.968 66.6778 150.298C65.6813 151.007 60.0075 156.818 55.5217 161.321C48.9139 167.989 48.921 167.986 48.601 167.988C47.7287 167.724 47.8367 167.407 48.8012 166.216C52.5496 161.456 57.5238 155.342 61.6166 150.218C60.612 151.234 59.5561 152.304 58.5094 153.365C43.2541 168.824 43.0861 168.825 42.6367 168.827C42.4928 168.83 42.3323 168.766 42.2264 168.661C41.7865 168.225 41.7865 168.225 46.2004 162.937C50.1985 158.149 56.0427 151.256 60.4579 146.008C57.5574 148.918 54.1318 152.39 51.0474 155.517C37.6981 169.047 37.6228 169.048 37.2043 169.05C37.2033 169.049 37.2022 169.049 37.2012 169.049ZM65.8846 150.299C65.9562 150.369 66.0366 150.413 66.1171 150.437C66.0322 150.411 65.9521 150.365 65.8846 150.299ZM18.6775 125.012C18.8207 125.012 18.9636 125.066 19.0732 125.174C18.8804 124.984 18.6055 124.975 18.4226 125.073C18.5027 125.032 18.5899 125.012 18.6775 125.012Z" fill="#4DCDFF"/>
</g>
<g opacity="0.8">
<path opacity="0.8" d="M173.976 56.3066C172.944 56.0035 174.109 55.1282 174.523 54.5403C178.864 49.4253 184.728 42.7601 189.473 37.2728C187.745 39.0135 185.84 40.9437 184.021 42.7866C171.512 55.4567 171.4 55.4574 171.067 55.4591C170.519 55.4221 170.581 54.8288 170.905 54.542C176.374 48.107 183.916 39.8719 189.681 33.2339C184.044 38.646 172.734 51.0954 167.863 54.8655C167.037 54.5902 167.386 54.2566 168.465 52.9502C173.951 46.5614 181.807 38.0452 187.74 31.3262C182.911 36.074 164.115 55.4424 165.579 53.3103C165.469 53.3114 165.358 53.2669 165.28 53.1899C164.73 52.34 167.932 49.6903 169.105 48.0775C173.556 43.068 180.21 35.7482 185.001 30.3925C148.866 67.4734 164.364 48.7909 183.375 28.2292C180.535 31.0672 177.146 34.4812 174.098 37.5514C161.903 49.8356 161.864 49.8359 161.566 49.8369C161.457 49.8458 161.348 49.7935 161.27 49.7165C160.867 48.8649 162.137 48.158 162.743 47.2009C167.242 41.9303 173.205 35.3664 178.362 29.6129C174.274 33.5825 162.341 46.2505 159.981 47.6414C158.936 47.3251 160.101 46.443 160.528 45.8524C166.064 39.4867 173.982 30.853 179.86 24.2093C148.524 56.5703 154.479 47.9937 176.472 23.9165C143.797 57.1958 158.015 40.5999 174.888 21.6927C172.278 24.1727 156.253 40.7299 156.848 39.6044C156.737 39.6051 156.63 39.5616 156.553 39.4843C156.153 38.856 157.045 38.3996 157.442 37.7411C161.215 33.1915 166.206 27.4214 170.437 22.454C150.549 43.146 153.501 38.1783 166.789 22.3806C153.56 36.2352 155.226 32.9671 161.874 23.5183C160.591 24.8077 160.561 24.8077 160.386 24.8087C159.987 24.8223 159.814 24.2623 160.161 24.0559C160.581 23.7637 164.351 19.6448 164.364 20.0425C166.126 19.9852 159.736 27.6264 159.257 28.8309C161.173 27.0311 171.975 15.6969 171.341 16.8743C172.041 17.0806 171.863 17.3742 171.101 18.3377C168.013 22.2496 163.853 27.233 160.47 31.4073C162.061 29.8019 163.915 27.9149 165.669 26.129C175.485 16.1367 175.585 16.1361 175.916 16.134C176.447 16.1666 176.411 16.7443 176.091 17.0243C172.132 21.8217 166.922 27.7873 162.577 32.9197C192.178 2.54047 176.614 21.5535 164.314 34.9764C197.901 0.727722 178.46 23.3439 164.117 39.0074C166.402 36.705 169.079 33.9809 171.612 31.4042C184.223 18.5753 184.897 18.0038 185.288 18.0011C185.398 18.0004 185.514 18.0465 185.592 18.1239C185.913 18.443 185.759 18.653 184.451 20.2007C179.104 26.4246 171.727 34.472 165.826 41.0927C169.073 37.9465 188.864 17.5758 187.425 19.5969C187.536 19.5959 187.645 19.64 187.722 19.7171C188.165 20.5374 186.003 22.0433 185.196 23.2244C179.941 29.1113 172.622 37.1825 167.183 43.3432C204.335 5.43042 188.818 23.9076 169.291 45.1166C172.048 42.3509 175.363 38.9891 178.337 35.9718C190.903 23.2254 190.994 23.2247 191.331 23.2227C191.443 23.2247 191.553 23.2672 191.631 23.3445C192.147 24.2694 188.866 26.9805 187.626 28.6816C183.323 33.5282 176.955 40.5374 172.241 45.7981C208.165 8.98834 190.799 29.7052 173.226 48.7566C200.918 20.032 201.958 21.2033 177.664 48.0466C205.614 19.2952 196.685 30.6701 180.219 49.1748C206.459 22.1668 194.978 36.3659 182.471 50.8423C184.827 48.5734 197.011 35.9043 196.156 37.2775C197.528 37.6193 194.618 40.0643 193.997 41.1687C192.049 43.6161 189.241 47.1004 186.986 49.9065C195.379 41.6866 194.627 41.7049 195.605 41.968C196.063 42.7503 190.455 47.1805 187.42 50.6349C182.573 55.5259 182.573 55.5259 182.343 55.527C182.233 55.5273 182.126 55.4842 182.049 55.4071C181.778 55.1387 181.887 54.9995 182.488 54.2267C185.239 50.7336 188.889 46.2475 191.892 42.4873C183.535 50.867 178.028 56.7026 177.965 56.1423C177.859 56.1453 177.741 56.0978 177.664 56.0208C177.341 55.7007 177.341 55.7007 180.58 51.8207C183.514 48.3073 187.802 43.2495 191.042 39.3977C188.914 41.5332 186.4 44.0811 184.137 46.3754C174.341 56.3045 174.286 56.3049 173.978 56.3062C173.978 56.3066 173.977 56.3066 173.976 56.3066ZM195.024 42.5473C195.077 42.5989 195.136 42.6312 195.195 42.6485C195.132 42.6298 195.073 42.5959 195.024 42.5473ZM160.383 23.9914C160.488 23.9914 160.593 24.0311 160.674 24.1102C160.532 23.9707 160.33 23.9643 160.196 24.0359C160.255 24.0064 160.319 23.9914 160.383 23.9914Z" fill="#4DCDFF"/>
</g>
<g opacity="0.8">
<path opacity="0.8" d="M323.872 157.177C323.186 156.976 323.961 156.395 324.236 156.004C327.121 152.604 331.018 148.174 334.172 144.527C311.816 167.395 324.718 152.423 334.311 141.842C330.566 145.44 323.047 153.712 319.811 156.219C319.261 156.038 319.493 155.815 320.21 154.947C323.856 150.7 329.077 145.04 333.02 140.574C311.004 163.176 316.008 156.471 331.2 139.954C307.392 164.403 317.508 152.133 330.12 138.516C328.232 140.403 325.98 142.672 323.954 144.712C315.849 152.877 315.823 152.877 315.625 152.877C315.182 152.805 315.327 152.42 315.637 152.068C318.884 148.122 323.049 143.638 326.788 139.436C324.072 142.075 316.139 150.493 314.572 151.419C313.876 151.211 314.65 150.622 314.934 150.23C318.614 145.999 323.877 140.261 327.783 135.845C307.123 157.204 310.992 151.542 325.532 135.65C303.931 157.658 313.274 146.717 324.478 134.172C322.744 135.821 312.093 146.825 312.488 146.077C311.79 145.867 312.606 145.254 312.883 144.839C315.39 141.815 318.708 137.98 321.52 134.678C308.382 148.366 310.301 145.065 319.096 134.63C310.336 143.817 311.427 141.627 315.829 135.386C314.798 136.329 315.088 136.333 314.644 136.164C314.387 135.614 315.466 135.167 316.073 134.365C317.35 133.076 317.35 133.076 317.484 133.076C318.556 133.272 314.469 137.972 314.089 138.917C327.623 124.914 322.074 132.052 314.895 140.629C331.253 123.713 325.731 130.899 316.296 141.634C335.85 121.556 325.627 134.093 317.451 143.001C339.549 120.455 326.869 135.277 317.32 145.68C340.1 122.179 331.725 132.698 318.455 147.066C320.614 144.975 333.768 131.436 332.811 132.78C333.44 132.943 332.84 133.457 332.583 133.769C328.662 138.22 323.441 143.928 319.358 148.562C343.865 123.539 333.713 135.689 320.758 149.741C342.315 127.528 337.984 133.624 322.719 150.194C346.388 125.926 335.045 139.531 323.373 152.16C341.692 133.14 342.389 133.954 326.323 151.688C344.738 132.727 338.928 140.204 328.022 152.438C345.348 134.592 337.825 143.949 329.518 153.546C331.082 152.039 339.185 143.618 338.612 144.531C339.907 144.622 333.194 151.712 332.519 152.924C338.098 147.461 337.598 147.473 338.248 147.648C338.412 148.335 334.915 151.003 332.808 153.408C329.586 156.659 329.586 156.659 329.433 156.66C328.11 156.633 335.173 149.14 335.78 147.993C319.111 165.136 328.158 154.066 335.215 145.939C333.8 147.359 332.13 149.052 330.625 150.577C324.115 157.176 324.078 157.176 323.874 157.177C323.873 157.177 323.872 157.177 323.872 157.177ZM337.861 148.033C337.896 148.067 337.935 148.088 337.975 148.1C337.933 148.088 337.894 148.065 337.861 148.033ZM314.838 135.7C314.908 135.7 314.977 135.727 315.031 135.779C314.937 135.686 314.803 135.682 314.714 135.729C314.753 135.71 314.795 135.7 314.838 135.7Z" fill="#4DCDFF"/>
</g>
</g>
<g opacity="0.5">
<path opacity="0.8" d="M9.25586 107.49C28.9767 95.9684 49.7951 86.2464 71.3039 78.5583C51.5902 90.0935 30.7582 99.7867 9.25586 107.49Z" fill="#4DCDFF"/>
<path opacity="0.8" d="M99.2739 42.5475C119.338 31.6427 140.066 21.9668 161.322 13.6162C141.263 24.5309 120.525 34.1871 99.2739 42.5475Z" fill="#4DCDFF"/>
<path opacity="0.8" d="M317.722 166.802C330.714 159.661 344.174 153.378 358 148.022C345.011 155.17 331.545 161.44 317.722 166.802Z" fill="#4DCDFF"/>
</g>
<path d="M240.197 253.658H117.802C115.543 253.658 113.712 251.827 113.712 249.567V49.9945C113.712 47.7354 115.543 45.9041 117.802 45.9041H240.197C242.456 45.9041 244.288 47.7354 244.288 49.9945V249.567C244.288 251.827 242.457 253.658 240.197 253.658Z" fill="#0F557C"/>
<path d="M232.814 244.778H125.186C122.927 244.778 121.096 242.947 121.096 240.688V58.8747C121.096 56.6157 122.927 54.7839 125.186 54.7839H232.814C235.073 54.7839 236.904 56.6153 236.904 58.8747V240.688C236.904 242.947 235.073 244.778 232.814 244.778Z" fill="#E2F5F7"/>
<path d="M198.574 237.26H132.211C126.231 237.294 128.539 228.204 128.12 224.636C128.12 222.377 129.951 220.546 132.211 220.546H198.574C204.554 220.512 202.246 229.603 202.665 233.17C202.665 235.429 200.833 237.26 198.574 237.26Z" fill="#BAD8E2"/>
<path d="M177.038 125.609H225.79C228.049 125.609 229.88 127.44 229.88 129.7V146.031C229.88 148.29 228.049 150.121 225.79 150.121H177.038C174.779 150.121 172.948 148.29 172.948 146.031V129.7C172.947 127.44 174.779 125.609 177.038 125.609Z" fill="#B0DEEA"/>
<path d="M177.038 62.302H225.79C228.049 62.302 229.88 64.1334 229.88 66.3924V78.5116C229.88 80.7707 228.049 82.602 225.79 82.602H177.038C174.779 82.602 172.948 80.7707 172.948 78.5116V66.3924C172.947 64.1334 174.779 62.302 177.038 62.302Z" fill="#B0DEEA"/>
<path d="M132.211 88.0339H180.962C183.221 88.0339 185.052 89.8653 185.052 92.1244V116.087C185.052 118.346 183.221 120.178 180.962 120.178H132.211C129.952 120.178 128.12 118.346 128.12 116.087V92.1244C128.12 89.8653 129.952 88.0339 132.211 88.0339Z" fill="#86C5E0"/>
<path d="M225.789 237.261H212.02C209.761 237.261 207.93 235.429 207.93 233.17C208.354 229.591 206.033 220.522 212.02 220.546H225.789C228.048 220.546 229.879 222.378 229.879 224.637C229.456 228.216 231.776 237.284 225.789 237.261Z" fill="#66AADD"/>
<path d="M218.515 225.665C214.255 233.245 213.486 231.557 222.046 231.736C222.394 231.736 222.611 231.359 222.436 231.058L219.295 225.665C219.121 225.366 218.689 225.366 218.515 225.665Z" fill="#E2F5F7"/>
<path opacity="0.9" d="M231.105 217.277L207.948 207.823C206.87 207.383 206.356 206.159 206.8 205.09L216.337 182.135C216.781 181.066 218.016 180.556 219.094 180.996L242.251 190.45C243.329 190.891 243.844 192.114 243.399 193.184L233.862 216.138C233.418 217.208 232.184 217.718 231.105 217.277Z" fill="url(#paint0_linear_114_907)"/>
<path d="M233.103 201.608L227.442 203.057L231.737 213.817L234.874 206.266L233.103 201.608Z" fill="#E8F1F7"/>
<path d="M224.14 194.786L213.095 197.374L209.958 204.925L213.883 206.528L227.442 203.057L224.14 194.786Z" fill="#E8F1F7"/>
<path d="M213.883 206.528L231.737 213.817L227.442 203.057L213.883 206.528Z" fill="#C4DBE8"/>
<path d="M234.218 196.051C232.793 199.649 227.101 197.353 228.642 193.774C230.068 190.176 235.759 192.472 234.218 196.051Z" fill="#E8F1F7"/>
<path d="M176.748 158.14C176.721 158.13 176.706 158.126 176.706 158.126C176.71 158.129 176.712 158.132 176.716 158.134C176.069 158.012 175.422 157.881 174.778 157.747C176.258 155.671 175.493 153.606 175.462 153.524C176.087 153.754 176.612 153.951 177.005 154.105C177.964 153.899 178.462 153.095 179.302 152.655C180.086 152.346 179.922 151.513 180.15 151.394C180.377 151.276 180.459 151.336 180.561 151.897C180.901 152.268 178.449 155.163 180.258 155.035L182.02 154.615C182.02 154.615 182.919 153.997 183.716 153.417C187.223 151.808 182.021 156.041 181.354 155.983C182.183 156.139 182.431 155.905 183.977 155.506C187.806 155.188 181.541 157.371 180.907 157.113C181.642 157.358 181.966 157.157 183.506 156.977C186.996 157.101 181.955 158.3 180.955 158.172C181.463 158.189 184.278 158.384 182.604 158.934C181.561 159.131 179.247 159.173 178.681 158.878C178.194 158.556 177.278 158.441 176.718 158.135C176.729 158.137 176.738 158.139 176.748 158.14Z" fill="url(#paint1_linear_114_907)"/>
<path d="M176.748 158.14C176.737 158.139 176.728 158.137 176.718 158.135C176.713 158.133 176.71 158.129 176.706 158.126C176.706 158.126 176.721 158.13 176.748 158.14Z" fill="url(#paint2_linear_114_907)"/>
<path d="M176.748 158.14C176.737 158.139 176.728 158.137 176.718 158.135C176.713 158.133 176.71 158.129 176.706 158.126C176.706 158.126 176.721 158.13 176.748 158.14Z" fill="url(#paint3_linear_114_907)"/>
<path d="M175.462 153.523C170.876 151.829 166.172 150.173 161.556 148.525C161.245 148.447 161.037 148.22 161.029 147.895C160.291 141.34 160.362 128.341 154.196 124.246C144.436 127.818 155.894 151.572 157.027 153.351C158.085 154.399 174.776 157.747 174.776 157.747C176.258 155.672 175.493 153.606 175.462 153.523Z" fill="url(#paint4_linear_114_907)"/>
<path opacity="0.9" d="M219.733 207.889L171.413 201.746C169.163 201.46 167.572 199.419 167.861 197.188L174.058 149.289C174.347 147.058 176.406 145.481 178.656 145.767L226.976 151.911C229.226 152.197 230.817 154.238 230.528 156.469L224.331 204.368C224.042 206.599 221.984 208.176 219.733 207.889Z" fill="url(#paint5_linear_114_907)"/>
<path d="M215.488 177.458L205.595 183.018L219.155 201.074L221.194 185.317L215.488 177.458Z" fill="#E8F1F7"/>
<path d="M195.173 169.139L175.747 179.538L173.708 195.295L181.899 196.337L205.596 183.018L195.173 169.139Z" fill="#E8F1F7"/>
<path d="M181.898 196.337L219.155 201.074L205.595 183.018L181.898 196.337Z" fill="#C4DBE8"/>
<path d="M214.747 166.459C213.643 174.014 202.265 172.585 203.113 164.98C204.217 157.426 215.595 158.854 214.747 166.459Z" fill="#E8F1F7"/>
<path d="M126.863 243.75C126.863 243.75 126.744 245.92 126.741 247.008C126.739 247.485 121.544 249.608 120.594 246.299L121.391 243.715L125.691 242.386L126.863 243.75Z" fill="url(#paint6_linear_114_907)"/>
<path d="M136.692 252.924C124.751 253.025 119.268 251.825 119.268 251.825C119.112 248.548 120.594 246.299 120.594 246.298C123.132 249.648 129.327 244.891 133.406 247.195C135.634 248.043 136.843 250.723 136.692 252.924Z" fill="url(#paint7_linear_114_907)"/>
<path d="M161.816 245.709C161.816 245.709 161.954 247.878 162.078 248.959C162.133 249.434 157.223 252.144 155.889 248.967L156.376 246.309L160.49 244.491L161.816 245.709Z" fill="url(#paint8_linear_114_907)"/>
<path d="M172.659 253.682C160.811 255.166 155.225 254.609 155.225 254.609C154.683 251.373 155.89 248.968 155.89 248.967C158.838 251.999 164.407 246.552 168.72 248.373C171.031 248.957 172.549 251.478 172.659 253.682Z" fill="url(#paint9_linear_114_907)"/>
<path d="M152.275 94.6294C162.419 93.9384 168.731 101.568 166.195 111.278C165.651 113.372 162.555 125.534 159.355 124.846C156.595 124.252 157.423 120.561 141.753 119.155C134.684 118.521 134.024 110.8 138.375 106.162C143.465 102.397 145.294 95.2563 152.275 94.6294Z" fill="url(#paint10_linear_114_907)"/>
<path d="M138.345 175.851C140.571 183.768 145.783 188.947 151.156 196.742C155.075 202.013 158.06 205.718 161.23 209.87L169.627 204.566C164.799 188.244 152.05 166.544 150.088 164.205C148.797 162.51 147.162 161.984 147.162 161.984L138.744 163.18C137.999 166.233 137.235 170.368 138.345 175.851Z" fill="url(#paint11_linear_114_907)"/>
<path d="M156.297 246.874C159.716 247.389 161.846 245.898 161.846 245.898C163.649 232.735 165.76 227.552 169.683 206.611C169.735 206.564 169.674 204.288 169.483 203.518L159.714 203.487C154.99 215.987 156.003 246.698 156.297 246.874Z" fill="url(#paint12_linear_114_907)"/>
<path d="M121.378 243.772C124.425 245.394 126.854 244.705 126.854 244.705C133.006 232.904 136.831 228.716 147.612 210.293C147.678 210.265 148.39 208.102 148.47 207.312L139.279 204.034C130.601 214.232 121.16 243.51 121.378 243.772Z" fill="url(#paint13_linear_114_907)"/>
<path opacity="0.5" d="M141.195 182.508C143.501 186.302 147.386 191.703 151.156 196.74C153.888 180.135 136.626 159.551 141.195 182.508Z" fill="url(#paint14_linear_114_907)"/>
<path d="M128.497 170.895C127.781 181.332 135.249 199.013 138.546 210.552L148.251 208.347C149.133 188.352 143.933 166.935 141.495 160.762L133.161 159.09C133.161 159.09 132.294 159.188 131.864 159.885C130.714 161.755 129.1 166.128 128.497 170.895Z" fill="url(#paint15_linear_114_907)"/>
<path d="M157.365 114.308C157.365 114.308 153.956 123.112 156.511 124.996C156.511 124.996 150.798 128.573 148.103 120.424C148.103 120.424 150.284 115.896 150.372 111.922L157.365 114.308Z" fill="url(#paint16_linear_114_907)"/>
<path d="M159.997 138.18C159.855 142.697 157.585 146.586 155.964 150.7C154.04 155.761 152.281 161.27 152.035 166.706C151.328 167.701 137.697 167.085 131.02 161.611C131.102 161.296 133.821 150.682 133.46 141.273C133.38 139.212 133.522 137.316 133.795 135.614C135.109 125.001 142.204 121.109 148.066 120.317C148.066 120.317 149.097 123.532 153.263 124.797C154.788 125.197 155.491 124.333 155.609 123.477C155.652 123.167 155.812 122.98 155.986 123.242C158.871 127.59 159.935 133.017 159.997 138.18Z" fill="url(#paint17_linear_114_907)"/>
<path d="M146.382 134.912C146.343 134.928 146.206 134.989 145.983 135.081C146.149 135.024 146.284 134.968 146.382 134.912Z" fill="url(#paint18_linear_114_907)"/>
<path d="M153.054 127.432L153.276 127.598C153.214 127.528 153.137 127.471 153.054 127.432Z" fill="url(#paint19_linear_114_907)"/>
<path opacity="0.6" d="M149.812 152.476C149.832 152.522 149.866 152.561 149.914 152.584L149.812 152.476Z" fill="url(#paint20_linear_114_907)"/>
<path d="M168.996 127.499C169.033 127.472 169.074 127.446 169.113 127.417C169.085 127.433 169.051 127.457 169.007 127.481C169.004 127.488 169 127.494 168.996 127.499Z" fill="url(#paint21_linear_114_907)"/>
<path d="M163.666 107.903C160.657 111.888 163.371 118.902 155.703 121.431C153.99 120.701 146.375 117.615 148.008 110.923C148.028 109.693 146.456 108.682 147.682 106.967C148.907 105.251 149.48 106.7 149.48 106.7C149.48 106.7 150.04 105.277 150.61 104.11C151.181 102.944 163.666 107.903 163.666 107.903Z" fill="url(#paint22_linear_114_907)"/>
<path d="M163.667 107.903C163.667 107.903 158.324 114.512 149.079 106.691C139.834 98.8698 157.642 103.033 157.642 103.033L163.667 107.903Z" fill="url(#paint23_linear_114_907)"/>
<path opacity="0.5" d="M155.964 150.7C154.565 154.328 153.315 158.189 152.587 162.036C148.218 159.435 140.904 146.198 137.279 134.912C131.906 142.63 134.818 168.854 151.899 166.736C151.261 167.697 137.625 167.044 131.02 161.611C131.103 161.294 133.821 150.683 133.46 141.273C133.371 138.651 133.576 136.529 134.052 134.231L134.347 134.132C135.543 131.442 138.828 126.41 145.572 130.668C150.602 134.622 153.683 144.495 155.964 150.7Z" fill="url(#paint24_linear_114_907)"/>
<path d="M175.049 162.641C175.017 162.634 174.999 162.633 174.999 162.633C175.004 162.635 175.007 162.638 175.012 162.641C174.264 162.623 173.516 162.597 172.77 162.567C174.035 159.97 172.789 157.8 172.739 157.715C173.481 157.856 174.105 157.979 174.575 158.079C175.609 157.67 176.015 156.678 176.871 156.03C177.689 155.539 177.349 154.638 177.581 154.462C177.813 154.289 177.917 154.341 178.137 154.949C178.586 155.302 176.391 158.996 178.39 158.516L180.282 157.719C180.282 157.719 181.171 156.861 181.953 156.065C185.604 153.584 180.541 159.32 179.795 159.374C180.751 159.394 180.985 159.087 182.639 158.353C186.903 157.27 180.253 160.893 179.507 160.72C180.376 160.858 180.7 160.573 182.389 160.086C186.318 159.578 180.905 161.854 179.761 161.896C180.119 161.894 180.559 161.867 181 161.787C185.286 161.871 177.624 163.617 177.35 163.107C176.745 162.838 175.698 162.878 175.014 162.641C175.027 162.641 175.037 162.641 175.049 162.641Z" fill="url(#paint25_linear_114_907)"/>
<path d="M175.05 162.641C175.037 162.641 175.027 162.641 175.015 162.641C175.009 162.639 175.005 162.635 175 162.633C175 162.633 175.018 162.635 175.05 162.641Z" fill="url(#paint26_linear_114_907)"/>
<path d="M175.05 162.641C175.037 162.641 175.027 162.641 175.015 162.641C175.009 162.639 175.005 162.635 175 162.633C175 162.633 175.018 162.635 175.05 162.641Z" fill="url(#paint27_linear_114_907)"/>
<path d="M172.74 157.714C167.289 156.668 161.715 155.687 156.239 154.7C155.875 154.671 155.602 154.454 155.53 154.093C153.629 147.351 152.587 140.248 148.739 134.244C147.716 132.571 145.858 129.099 143.542 129.25C134.291 132.484 146.455 152.737 149.803 157.955C150.433 158.902 151.127 160.261 152.084 160.938C153.464 161.916 172.77 162.567 172.77 162.567C174.035 159.97 172.79 157.801 172.74 157.714Z" fill="url(#paint28_linear_114_907)"/>
<path d="M148.168 120.198C148.168 120.198 147.096 120.047 146.773 120.558C146.45 121.069 148.133 127.158 149.187 127.877C150.241 128.596 153.661 124.874 153.661 124.874C153.661 124.874 148.787 122.637 148.168 120.198Z" fill="#E1FDFF"/>
<path d="M155.563 122.401C155.563 122.401 156.166 123.536 156.324 123.55C157.253 125.105 155.149 131.877 153.662 124.874C153.662 124.874 155.639 125.183 155.563 122.401Z" fill="#E1FDFF"/>
</g>
<defs>
<linearGradient id="paint0_linear_114_907" x1="247.256" y1="181.554" x2="209.595" y2="211.441" gradientUnits="userSpaceOnUse">
<stop stop-color="#45C2FF"/>
<stop offset="1" stop-color="#007DB9"/>
</linearGradient>
<linearGradient id="paint1_linear_114_907" x1="174.014" y1="153.678" x2="182.572" y2="155.929" gradientUnits="userSpaceOnUse">
<stop stop-color="#F0877E"/>
<stop offset="1" stop-color="#FABEB2"/>
</linearGradient>
<linearGradient id="paint2_linear_114_907" x1="176.761" y1="158.117" x2="176.698" y2="158.146" gradientUnits="userSpaceOnUse">
<stop stop-color="#F0877E"/>
<stop offset="1" stop-color="#FABEB2"/>
</linearGradient>
<linearGradient id="paint3_linear_114_907" x1="177.056" y1="157.983" x2="176.638" y2="158.174" gradientUnits="userSpaceOnUse">
<stop stop-color="#F0877E"/>
<stop offset="1" stop-color="#FABEB2"/>
</linearGradient>
<linearGradient id="paint4_linear_114_907" x1="153.242" y1="164.642" x2="170.051" y2="126.389" gradientUnits="userSpaceOnUse">
<stop stop-color="#0063B9"/>
<stop offset="1" stop-color="#00C3E7"/>
</linearGradient>
<linearGradient id="paint5_linear_114_907" x1="231.838" y1="132.695" x2="176.352" y2="207.713" gradientUnits="userSpaceOnUse">
<stop stop-color="#45C2FF"/>
<stop offset="1" stop-color="#007DB9"/>
</linearGradient>
<linearGradient id="paint6_linear_114_907" x1="125.21" y1="241.101" x2="123.142" y2="248.551" gradientUnits="userSpaceOnUse">
<stop stop-color="#F0877E"/>
<stop offset="1" stop-color="#FABEB2"/>
</linearGradient>
<linearGradient id="paint7_linear_114_907" x1="130.175" y1="246.195" x2="126.984" y2="253.183" gradientUnits="userSpaceOnUse">
<stop stop-color="#005A8B"/>
<stop offset="1" stop-color="#001145"/>
</linearGradient>
<linearGradient id="paint8_linear_114_907" x1="159.867" y1="243.272" x2="158.684" y2="250.907" gradientUnits="userSpaceOnUse">
<stop stop-color="#F0877E"/>
<stop offset="1" stop-color="#FABEB2"/>
</linearGradient>
<linearGradient id="paint9_linear_114_907" x1="165.395" y1="247.757" x2="163.046" y2="255.059" gradientUnits="userSpaceOnUse">
<stop stop-color="#005A8B"/>
<stop offset="1" stop-color="#001145"/>
</linearGradient>
<linearGradient id="paint10_linear_114_907" x1="167.892" y1="92.6232" x2="149.34" y2="115.592" gradientUnits="userSpaceOnUse">
<stop stop-color="#005A8B"/>
<stop offset="1" stop-color="#001145"/>
</linearGradient>
<linearGradient id="paint11_linear_114_907" x1="144.792" y1="253.476" x2="156.517" y2="165.535" gradientUnits="userSpaceOnUse">
<stop stop-color="#005A8B"/>
<stop offset="1" stop-color="#001145"/>
</linearGradient>
<linearGradient id="paint12_linear_114_907" x1="157.528" y1="255.198" x2="169.262" y2="167.197" gradientUnits="userSpaceOnUse">
<stop stop-color="#005A8B"/>
<stop offset="1" stop-color="#001145"/>
</linearGradient>
<linearGradient id="paint13_linear_114_907" x1="131.426" y1="251.755" x2="143.16" y2="163.748" gradientUnits="userSpaceOnUse">
<stop stop-color="#005A8B"/>
<stop offset="1" stop-color="#001145"/>
</linearGradient>
<linearGradient id="paint14_linear_114_907" x1="136.895" y1="252.752" x2="148.686" y2="164.32" gradientUnits="userSpaceOnUse">
<stop stop-color="#005A8B"/>
<stop offset="1" stop-color="#001145"/>
</linearGradient>
<linearGradient id="paint15_linear_114_907" x1="130.116" y1="251.556" x2="141.844" y2="163.595" gradientUnits="userSpaceOnUse">
<stop stop-color="#005A8B"/>
<stop offset="1" stop-color="#001145"/>
</linearGradient>
<linearGradient id="paint16_linear_114_907" x1="154.163" y1="116.175" x2="151.542" y2="124.467" gradientUnits="userSpaceOnUse">
<stop stop-color="#F0877E"/>
<stop offset="1" stop-color="#FABEB2"/>
</linearGradient>
<linearGradient id="paint17_linear_114_907" x1="142.043" y1="169.674" x2="148.181" y2="128.611" gradientUnits="userSpaceOnUse">
<stop stop-color="#0063B9"/>
<stop offset="1" stop-color="#00C3E7"/>
</linearGradient>
<linearGradient id="paint18_linear_114_907" x1="146.182" y1="135.123" x2="146.182" y2="134.956" gradientUnits="userSpaceOnUse">
<stop stop-color="#0063B9"/>
<stop offset="1" stop-color="#00C3E7"/>
</linearGradient>
<linearGradient id="paint19_linear_114_907" x1="153.117" y1="127.429" x2="153.23" y2="127.633" gradientUnits="userSpaceOnUse">
<stop stop-color="#00D1D0"/>
<stop offset="1" stop-color="#0098D0"/>
</linearGradient>
<linearGradient id="paint20_linear_114_907" x1="149.866" y1="152.509" x2="149.849" y2="152.643" gradientUnits="userSpaceOnUse">
<stop stop-color="#00D1D0"/>
<stop offset="1" stop-color="#0098D0"/>
</linearGradient>
<linearGradient id="paint21_linear_114_907" x1="169.134" y1="127.492" x2="168.987" y2="127.429" gradientUnits="userSpaceOnUse">
<stop stop-color="#F0877E"/>
<stop offset="1" stop-color="#FABEB2"/>
</linearGradient>
<linearGradient id="paint22_linear_114_907" x1="155.587" y1="100.784" x2="154.387" y2="116.517" gradientUnits="userSpaceOnUse">
<stop stop-color="#F0877E"/>
<stop offset="1" stop-color="#FABEB2"/>
</linearGradient>
<linearGradient id="paint23_linear_114_907" x1="166.381" y1="91.3695" x2="147.808" y2="114.366" gradientUnits="userSpaceOnUse">
<stop stop-color="#005A8B"/>
<stop offset="1" stop-color="#001145"/>
</linearGradient>
<linearGradient id="paint24_linear_114_907" x1="103.523" y1="161.599" x2="157.549" y2="144.139" gradientUnits="userSpaceOnUse">
<stop stop-color="#0063B9"/>
<stop offset="1" stop-color="#00C3E7"/>
</linearGradient>
<linearGradient id="paint25_linear_114_907" x1="161.045" y1="164.434" x2="185.273" y2="156.605" gradientUnits="userSpaceOnUse">
<stop stop-color="#F0877E"/>
<stop offset="1" stop-color="#FABEB2"/>
</linearGradient>
<linearGradient id="paint26_linear_114_907" x1="173.254" y1="174.495" x2="179.43" y2="133.218" gradientUnits="userSpaceOnUse">
<stop stop-color="#F0877E"/>
<stop offset="1" stop-color="#FABEB2"/>
</linearGradient>
<linearGradient id="paint27_linear_114_907" x1="173.254" y1="174.495" x2="179.43" y2="133.218" gradientUnits="userSpaceOnUse">
<stop stop-color="#F0877E"/>
<stop offset="1" stop-color="#FABEB2"/>
</linearGradient>
<linearGradient id="paint28_linear_114_907" x1="153.139" y1="171.397" x2="159.238" y2="130.588" gradientUnits="userSpaceOnUse">
<stop stop-color="#0063B9"/>
<stop offset="1" stop-color="#00C3E7"/>
</linearGradient>
<clipPath id="clip0_114_907">
<rect width="358" height="258.84" fill="white"/>
</clipPath>
</defs>
</svg>
