<svg width="358" height="259" viewBox="0 0 358 259" fill="none" xmlns="http://www.w3.org/2000/svg">
<g clip-path="url(#clip0_114_635)">
<g opacity="0.5">
<path opacity="0.5" d="M316.434 254.058C323.963 260.434 28.6405 260.434 36.1714 254.057C28.6412 247.681 323.964 247.681 316.434 254.058Z" fill="#4DCDFF"/>
<g opacity="0.3">
<path opacity="0.8" d="M305.187 125.919C302.312 293.824 50.3171 293.798 47.4668 125.914C50.3419 -41.9854 302.336 -41.959 305.187 125.919Z" fill="#4DCDFF"/>
<path opacity="0.6" d="M151.002 178.606C149.317 276.984 1.66985 276.968 0 178.603C1.68444 80.2282 149.332 80.2438 151.002 178.606Z" fill="#4DCDFF"/>
<path opacity="0.6" d="M201.602 178.606C203.286 276.984 350.934 276.968 352.604 178.603C350.919 80.2282 203.272 80.2438 201.602 178.606Z" fill="#4DCDFF"/>
<path opacity="0.5" d="M249.147 102.405C250.302 169.807 351.46 169.797 352.604 102.403C351.45 35.0031 250.292 35.014 249.147 102.405Z" fill="#4DCDFF"/>
<path opacity="0.5" d="M103.457 102.405C102.302 169.807 1.14412 169.797 0 102.403C1.15396 35.0031 102.312 35.014 103.457 102.405Z" fill="#4DCDFF"/>
</g>
</g>
<g opacity="0.9">
<g opacity="0.8">
<path d="M282.455 216.441C283.978 205.941 292.271 198.248 302.301 195.567C321.055 190.141 322.805 176.26 325.306 183.2C327.807 190.141 322.556 197.637 327.056 203.061C331.558 208.484 327.978 218.647 320.766 220.878C313.553 223.109 287.731 240.085 287.731 253.658C287.731 253.658 268.31 253.658 268.293 253.658C267.299 253.658 267.298 246.235 267.339 245.68C267.727 233.879 279.666 227.322 282.455 216.441Z" fill="#42CCA8"/>
<g opacity="0.8">
<path d="M296.499 225.25C296.092 218.57 299.211 211.877 304.235 207.492C307.099 204.98 310.293 203.151 313.069 200.712C315.251 198.919 317.711 197.195 318.949 194.576C317.951 197.804 315.059 199.928 312.718 202.178C304.599 208.321 297.204 214.231 296.499 225.25Z" fill="white"/>
</g>
</g>
<path d="M351.47 228.586C348.773 236.968 341.424 241.631 333.058 243.469C309.265 248.691 298.126 251.989 294.427 253.169C292.702 254.126 274.29 253.484 272.044 253.658C278.488 238.756 277.586 213.073 310.385 215.272C332.389 219.391 340.724 203.39 346.059 198.831C347.189 197.865 351.492 193.766 352.165 197.031C349.914 207.561 354.526 218.076 351.47 228.586Z" fill="#39C5E5"/>
<path d="M343.31 215.425C339.06 231.435 319.262 231.725 305.732 232.97C297.428 233.953 288.886 238.895 286.797 247.48C287.891 238.407 296.728 232.635 305.21 231.419C318.624 229.681 337.505 230.488 343.31 215.425Z" fill="#39C5E5"/>
<path opacity="0.8" d="M343.31 215.425C339.06 231.435 319.262 231.725 305.732 232.97C297.428 233.953 288.886 238.895 286.797 247.48C287.891 238.407 296.728 232.635 305.21 231.419C318.624 229.681 337.505 230.488 343.31 215.425Z" fill="white"/>
<g opacity="0.8">
<path d="M70.1493 216.441C68.6264 205.941 60.3332 198.248 50.3029 195.567C31.549 190.141 29.7987 176.26 27.298 183.2C24.7973 190.141 30.0485 197.637 25.5477 203.061C21.0466 208.484 24.6263 218.647 31.8385 220.878C39.0508 223.109 64.8733 240.085 64.8733 253.658C64.8733 253.658 84.2941 253.658 84.3108 253.658C85.3049 253.658 85.3062 246.235 85.2655 245.68C84.8765 233.879 72.9378 227.322 70.1493 216.441Z" fill="#42CCA8"/>
<g opacity="0.8">
<path d="M56.1051 225.25C56.5123 218.57 53.3933 211.877 48.3695 207.492C45.5053 204.98 42.3115 203.151 39.5352 200.712C37.3529 198.919 34.8929 197.195 33.6548 194.576C34.653 197.804 37.5453 199.928 39.8862 202.178C48.0053 208.321 55.3998 214.231 56.1051 225.25Z" fill="white"/>
</g>
</g>
<path d="M1.13368 228.586C3.83123 236.968 11.18 241.631 19.5465 243.469C43.3388 248.691 54.4775 251.989 58.1773 253.169C59.9021 254.126 78.3139 253.484 80.56 253.658C74.1155 238.756 75.0176 213.073 42.219 215.272C20.2154 219.391 11.8804 203.39 6.54473 198.831C5.41487 197.865 1.11195 193.766 0.439263 197.031C2.68948 207.561 -1.92193 218.076 1.13368 228.586Z" fill="#39C5E5"/>
<path d="M9.29395 215.425C13.5443 231.435 33.3424 231.725 46.8716 232.97C55.176 233.953 63.7181 238.895 65.8067 247.48C64.7135 238.407 55.8759 232.635 47.3939 231.419C33.9802 229.681 15.0987 230.488 9.29395 215.425Z" fill="#39C5E5"/>
<path opacity="0.8" d="M9.29395 215.425C13.5443 231.435 33.3424 231.725 46.8716 232.97C55.176 233.953 63.7181 238.895 65.8067 247.48C64.7135 238.407 55.8759 232.635 47.3939 231.419C33.9802 229.681 15.0987 230.488 9.29395 215.425Z" fill="white"/>
</g>
<g opacity="0.5">
<g opacity="0.8">
<path d="M37.2014 169.049C35.7945 168.636 37.3833 167.443 37.9463 166.642C43.8617 159.671 51.8533 150.589 58.3195 143.11C55.9661 145.483 53.369 148.113 50.8897 150.624C33.844 167.89 33.6909 167.891 33.2368 167.894C32.4895 167.843 32.5753 167.035 33.0162 166.644C40.4698 157.875 50.7475 146.652 58.6039 137.606C51.6998 144.561 42.1702 154.353 35.6154 160.911C28.9125 167.294 29.7173 167.279 28.4581 166.916C28.0131 166.475 28.3352 166.091 29.6918 164.475C37.1681 155.768 47.8731 144.163 55.9583 135.006C49.3777 141.477 23.7632 167.871 25.7592 164.966C25.6081 164.967 25.4578 164.906 25.3519 164.801C24.91 164.363 25.1808 164.044 26.6837 162.273C34.0286 153.781 44.2439 142.69 52.2259 133.734C49.6129 136.371 46.7141 139.311 43.9483 142.117C24.6025 161.741 23.5056 162.678 22.9554 162.681C21.8232 162.279 22.2661 161.929 23.9118 159.948C31.4173 151.283 41.8803 139.909 50.0103 130.787C46.1401 134.654 41.5216 139.307 37.368 143.491C20.7489 160.231 20.6967 160.231 20.2897 160.233C20.1421 160.245 19.9928 160.174 19.8865 160.069C19.3007 158.979 21.0931 157.899 21.8934 156.64C28.0257 149.458 36.1513 140.513 43.1796 132.672C37.6114 138.082 21.3446 155.342 18.1322 157.241C17.9821 157.241 17.824 157.178 17.7178 157.073C17.1849 156.188 18.33 155.669 18.8744 154.803C26.4186 146.128 37.2098 134.363 45.22 125.309C42.0605 128.491 38.3197 132.296 34.7855 135.892C17.5633 153.412 16.6432 154.192 16.109 154.196C14.9907 153.818 15.437 153.418 16.9521 151.581C23.7574 143.638 33.1713 133.32 40.6031 124.91C37.688 127.831 34.3701 131.171 31.216 134.346C14.6625 151.009 14.5997 151.009 14.1904 151.011C13.2584 150.73 13.4396 150.362 14.5243 149.128C21.5716 140.985 31.2272 130.243 38.4446 121.88C34.8887 125.259 13.0507 147.822 13.8598 146.289C13.7098 146.29 13.5635 146.231 13.4576 146.125C12.9129 145.269 14.129 144.647 14.67 143.75C19.8109 137.55 26.6131 129.687 32.3788 122.917C30.5118 124.808 28.5256 126.829 26.6857 128.702C13.3972 141.877 14.4039 141.851 13.0011 141.49C12.306 140.542 15.1366 138.204 16.162 136.587C19.2909 132.713 23.8962 127.12 27.4073 122.817C9.33084 141.727 11.6269 137.298 20.7086 124.367C18.9603 126.124 18.9196 126.125 18.6807 126.126C18.1369 126.144 17.9014 125.381 18.3745 125.1C18.644 124.864 20.1221 123.372 21.2102 122.274C23.8294 119.632 23.8293 119.632 24.1026 119.63C25.5759 120.08 23.6902 121.642 23.1604 122.737C21.5017 125.214 18.9831 128.879 17.1425 131.607C19.7525 129.155 34.4736 113.709 33.6092 115.313C34.5639 115.595 34.3212 115.995 33.283 117.308C29.0741 122.639 23.4058 129.429 18.7943 135.118C20.9631 132.931 23.4896 130.359 25.8804 127.925C39.2575 114.308 39.3935 114.307 39.8443 114.304C40.5679 114.349 40.5186 115.136 40.0832 115.517C34.6874 122.055 27.5879 130.185 21.667 137.179C62.228 95.5752 40.7919 121.66 24.0347 139.982C26.1074 137.9 28.3016 135.691 30.4151 133.563C48.3547 115.504 48.4535 115.504 48.8693 115.503C49.9835 115.891 49.5219 116.288 47.9888 118.154C41.0294 126.283 31.3311 136.908 23.7655 145.475C26.8799 142.337 30.5288 138.625 33.9805 135.114C51.166 117.631 52.084 116.852 52.6165 116.849C53.7654 117.284 53.3608 117.542 51.4765 119.847C44.1892 128.328 34.1373 139.295 26.0942 148.317C30.5199 144.03 57.4907 116.27 55.5293 119.024C55.68 119.023 55.828 119.083 55.9342 119.187C56.4535 119.964 55.5035 120.359 55.0619 121.053C47.0202 130.179 36.3169 141.881 27.9439 151.384C30.5736 148.746 33.5891 145.708 36.5664 142.709C58.3181 121.161 57.3088 121.183 58.7427 121.548C59.1856 121.987 58.9049 122.317 57.3468 124.151C49.7272 132.953 39.0456 144.561 30.8155 153.801C34.5737 150.032 39.0905 145.45 43.1439 141.339C60.2683 123.968 60.3919 123.968 60.8514 123.965C61.0042 123.968 61.1542 124.026 61.2601 124.131C61.7081 124.575 61.39 124.95 59.8624 126.754C52.6552 135.106 42.7784 145.833 34.8354 154.73C37.2849 152.262 39.9556 149.56 42.5126 146.973C61.4895 127.776 62.4805 126.921 62.9883 126.919C64.1334 127.314 63.6379 127.752 62.0159 129.748C54.6262 138.404 44.2283 149.68 36.1774 158.761C43.2495 151.778 66.7339 127.302 65.3495 129.768C65.5008 129.766 65.657 129.829 65.7632 129.934C66.1963 130.363 65.9903 130.667 64.1735 132.847C57.8219 140.354 49.4496 149.622 42.2265 157.794C50.534 149.54 67.04 132.321 66.3507 133.926C67.1307 134.021 67.0224 134.742 66.5055 135.25C60.3908 142.577 52.4652 151.495 45.7084 159.331C47.1967 157.826 48.7454 156.256 50.2438 154.737C66.4603 138.173 68.0114 136.766 67.1442 139.692C61.7902 146.304 54.638 154.575 48.7763 161.603C51.9795 158.516 68.5999 141.245 67.4239 143.118C67.5743 143.117 67.7212 143.176 67.8271 143.281C68.342 144.04 67.3866 144.526 66.9674 145.268C63.4696 149.751 58.9155 155.357 54.9302 160.328C65.994 149.147 66.9939 147.967 66.6772 150.297C65.6808 151.006 60.007 156.817 55.5212 161.32C48.9134 167.988 48.9205 167.985 48.6004 167.987C47.7282 167.723 47.8361 167.406 48.8007 166.215C52.549 161.455 57.5232 155.341 61.6161 150.217C60.6114 151.233 59.5559 152.303 58.5089 153.364C43.2535 168.823 43.0855 168.824 42.6361 168.826C42.4922 168.829 42.3317 168.765 42.2258 168.66C41.786 168.224 41.786 168.224 46.1998 162.936C50.198 158.148 56.0421 151.255 60.4574 146.007C57.5569 148.917 54.1313 152.389 51.0468 155.516C37.6975 169.046 37.6222 169.047 37.2037 169.049C37.2037 169.049 37.202 169.049 37.2014 169.049ZM65.8847 150.299C65.9563 150.369 66.0368 150.413 66.1172 150.436C66.032 150.411 65.9519 150.365 65.8847 150.299ZM18.6776 125.012C18.8208 125.012 18.9637 125.065 19.0733 125.173C18.8806 124.983 18.6056 124.975 18.4227 125.072C18.5025 125.032 18.59 125.012 18.6776 125.012Z" fill="#4DCDFF"/>
</g>
<g opacity="0.8">
<path opacity="0.8" d="M173.976 56.3065C172.944 56.0034 174.109 55.1281 174.522 54.5403C178.863 49.4252 184.728 42.7601 189.472 37.2727C187.745 39.0135 185.84 40.9437 184.02 42.7866C171.512 55.4566 171.4 55.4573 171.066 55.459C170.518 55.422 170.581 54.8288 170.904 54.542C176.374 48.107 183.916 39.8718 189.681 33.2339C184.044 38.6459 172.734 51.0954 167.862 54.8654C167.037 54.5902 167.386 54.2565 168.465 52.9502C173.951 46.5614 181.806 38.0452 187.739 31.3261C182.91 36.074 164.114 55.4421 165.579 53.3103C165.468 53.3113 165.358 53.2669 165.28 53.1898C164.73 52.34 167.931 49.6903 169.104 48.0775C173.556 43.0676 180.21 35.7482 185 30.3925C148.866 67.473 164.364 48.7909 183.374 28.2291C180.534 31.0672 177.145 34.4812 174.097 37.5514C161.902 49.8355 161.863 49.8359 161.565 49.8369C161.456 49.8457 161.347 49.7935 161.269 49.7164C160.866 48.8649 162.136 48.1579 162.742 47.2008C167.241 41.9303 173.204 35.3663 178.361 29.6129C174.273 33.5825 162.34 46.2505 159.98 47.6413C158.935 47.325 160.1 46.4429 160.527 45.8524C166.063 39.4866 173.981 30.853 179.859 24.2093C148.523 56.5702 154.478 47.9936 176.471 23.9164C143.796 57.1957 158.015 40.5999 174.887 21.6927C172.277 24.1727 156.253 40.7298 156.847 39.6044C156.736 39.6051 156.629 39.5616 156.552 39.4843C156.152 38.856 157.044 38.3995 157.441 37.7411C161.214 33.1915 166.205 27.4214 170.436 22.454C150.548 43.146 153.5 38.1786 166.788 22.3806C153.559 36.2352 155.225 32.9671 161.873 23.5183C160.59 24.8077 160.56 24.8077 160.385 24.8087C159.986 24.8223 159.813 24.2623 160.16 24.0559C160.58 23.7637 164.35 19.6448 164.363 20.0425C166.125 19.9852 159.736 27.6264 159.256 28.8309C161.172 27.0311 171.974 15.6969 171.34 16.8743C172.04 17.0806 171.862 17.3742 171.1 18.3377C168.012 22.25 163.852 27.233 160.469 31.4073C162.06 29.8019 163.914 27.9149 165.669 26.129C175.485 16.1368 175.584 16.1361 175.915 16.134C176.446 16.1666 176.411 16.7443 176.091 17.0243C172.131 21.8217 166.921 27.7873 162.576 32.9196C192.177 2.54048 176.613 21.5535 164.314 34.9764C197.9 0.727753 178.459 23.3442 164.116 39.0077C166.402 36.7053 169.079 33.9813 171.612 31.4046C184.223 18.5757 184.897 18.0041 185.288 18.0014C185.398 18.0007 185.513 18.0469 185.591 18.1243C185.913 18.4433 185.758 18.6534 184.451 20.201C179.104 26.4249 171.727 34.4724 165.825 41.093C169.073 37.9471 188.864 17.5761 187.425 19.5972C187.536 19.5962 187.644 19.6404 187.722 19.7174C188.165 20.5377 186.002 22.0436 185.196 23.2247C179.941 29.1116 172.622 37.1828 167.183 43.3439C204.335 5.43113 188.817 23.9083 169.29 45.1172C172.048 42.3515 175.362 38.9897 178.337 35.9725C190.903 23.2261 190.993 23.2254 191.331 23.2234C191.443 23.2254 191.553 23.2678 191.631 23.3452C192.147 24.2701 188.865 26.9812 187.625 28.6822C183.322 33.5288 176.954 40.5381 172.24 45.7987C208.165 8.98904 190.798 29.7062 173.225 48.7573C200.917 20.0327 201.957 21.204 177.664 48.0473C205.613 19.2955 196.684 30.6708 180.219 49.1754C206.458 22.1675 194.978 36.3665 182.47 50.8429C184.826 48.574 197.01 35.905 196.156 37.2782C197.527 37.6199 194.617 40.0646 193.996 41.1694C192.048 43.6168 189.24 47.101 186.985 49.9072C195.378 41.6873 194.627 41.7056 195.604 41.9686C196.062 42.751 190.454 47.1808 187.419 50.6355C182.572 55.5266 182.572 55.5266 182.342 55.5276C182.232 55.5279 182.126 55.4848 182.048 55.4078C181.777 55.1393 181.886 55.0002 182.487 54.2273C185.238 50.7343 188.888 46.2481 191.891 42.4879C183.534 50.8677 178.027 56.7033 177.964 56.1429C177.858 56.146 177.74 56.0984 177.663 56.0214C177.34 55.7014 177.34 55.7014 180.579 51.8217C183.513 48.3083 187.801 43.2505 191.041 39.3987C188.912 41.5342 186.399 44.0821 184.135 46.3764C174.34 56.3055 174.284 56.3058 173.977 56.3072C173.977 56.3065 173.976 56.3065 173.976 56.3065ZM195.024 42.5473C195.077 42.5989 195.135 42.6308 195.195 42.6485C195.132 42.6298 195.074 42.5959 195.024 42.5473ZM160.383 23.9914C160.488 23.9914 160.593 24.0311 160.673 24.1102C160.532 23.9707 160.33 23.9643 160.196 24.0359C160.254 24.0064 160.319 23.9914 160.383 23.9914Z" fill="#4DCDFF"/>
</g>
<g opacity="0.8">
<path opacity="0.8" d="M323.872 157.177C323.186 156.975 323.96 156.394 324.235 156.003C327.12 152.604 331.018 148.174 334.172 144.526C311.816 167.395 324.718 152.422 334.311 141.842C330.565 145.439 323.046 153.711 319.811 156.219C319.26 156.038 319.492 155.814 320.21 154.946C323.856 150.7 329.077 145.04 333.02 140.574C311.004 163.176 316.007 156.471 331.2 139.954C307.392 164.402 317.508 152.132 330.119 138.516C328.232 140.402 325.979 142.671 323.953 144.712C315.848 152.876 315.823 152.876 315.624 152.877C315.182 152.804 315.327 152.42 315.637 152.067C318.884 148.122 323.049 143.637 326.788 139.435C324.072 142.074 316.139 150.492 314.572 151.418C313.875 151.21 314.65 150.621 314.934 150.229C318.613 145.998 323.876 140.26 327.783 135.844C307.123 157.203 310.992 151.542 325.531 135.65C303.931 157.658 313.273 146.716 324.478 134.172C322.743 135.82 312.093 146.824 312.487 146.076C311.789 145.867 312.605 145.254 312.883 144.838C315.39 141.814 318.708 137.979 321.52 134.678C308.382 148.365 310.3 145.064 319.095 134.629C310.335 143.816 311.426 141.626 315.828 135.385C314.797 136.328 315.088 136.333 314.643 136.163C314.386 135.613 315.465 135.166 316.072 134.364C317.35 133.075 317.35 133.075 317.483 133.075C318.555 133.271 314.468 137.971 314.089 138.916C327.622 124.913 322.073 132.051 314.895 140.628C331.252 123.712 325.731 130.899 316.295 141.633C335.849 121.556 325.626 134.092 317.45 143C339.548 120.455 326.867 135.276 317.319 145.68C340.1 122.179 331.725 132.697 318.455 147.066C320.614 144.974 333.767 131.435 332.811 132.779C333.439 132.942 332.84 133.456 332.583 133.768C328.661 138.219 323.44 143.927 319.357 148.561C343.865 123.539 333.713 135.688 320.758 149.74C342.314 127.527 337.983 133.623 322.718 150.193C346.387 125.925 335.044 139.53 323.373 152.159C341.691 133.139 342.388 133.953 326.323 151.687C344.738 132.726 338.927 140.203 328.021 152.437C345.316 134.621 337.822 143.955 329.517 153.545C331.081 152.038 339.185 143.617 338.612 144.53C339.906 144.621 333.193 151.711 332.519 152.923C338.097 147.46 337.597 147.472 338.247 147.647C338.411 148.334 334.914 151.002 332.807 153.407C329.586 156.658 329.586 156.658 329.433 156.659C328.11 156.633 335.172 149.139 335.779 147.992C319.111 165.136 328.158 154.065 335.214 145.939C333.8 147.358 332.129 149.052 330.625 150.576C324.114 157.176 324.077 157.176 323.873 157.177H323.872ZM337.861 148.032C337.896 148.067 337.935 148.088 337.975 148.1C337.933 148.087 337.894 148.065 337.861 148.032ZM314.838 135.7C314.908 135.7 314.977 135.726 315.031 135.778C314.937 135.686 314.803 135.682 314.714 135.729C314.752 135.71 314.795 135.7 314.838 135.7Z" fill="#4DCDFF"/>
</g>
</g>
<g opacity="0.5">
<path opacity="0.8" d="M9.25586 107.489C28.9767 95.9682 49.7951 86.2461 71.3039 78.5581C51.5906 90.0932 30.7585 99.7864 9.25586 107.489Z" fill="#4DCDFF"/>
<path opacity="0.8" d="M99.2739 42.5472C119.338 31.6424 140.066 21.9662 161.322 13.616C141.263 24.5307 120.525 34.1869 99.2739 42.5472Z" fill="#4DCDFF"/>
<path opacity="0.8" d="M317.722 166.802C330.714 159.661 344.174 153.377 358 148.022C345.011 155.17 331.545 161.44 317.722 166.802Z" fill="#4DCDFF"/>
</g>
<path d="M258.218 251.973H135.823C133.564 251.973 131.732 250.141 131.732 247.882V48.3094C131.732 46.0504 133.564 44.219 135.823 44.219H258.218C260.477 44.219 262.308 46.0504 262.308 48.3094V247.882C262.308 250.141 260.477 251.973 258.218 251.973Z" fill="#0F557C"/>
<path d="M250.834 243.093H143.207C140.948 243.093 139.116 241.261 139.116 239.002V57.1898C139.116 54.9308 140.948 53.0994 143.207 53.0994H250.834C253.093 53.0994 254.925 54.9308 254.925 57.1898V239.002C254.925 241.261 253.093 243.093 250.834 243.093Z" fill="#E2F5F7"/>
<mask id="mask0_114_635" style="mask-type:luminance" maskUnits="userSpaceOnUse" x="139" y="53" width="116" height="191">
<path d="M250.834 243.093H143.207C140.948 243.093 139.116 241.261 139.116 239.002V57.1898C139.116 54.9308 140.948 53.0994 143.207 53.0994H250.834C253.093 53.0994 254.925 54.9308 254.925 57.1898V239.002C254.925 241.261 253.093 243.093 250.834 243.093Z" fill="white"/>
</mask>
<g mask="url(#mask0_114_635)">
<path d="M216.595 156.546H150.231C144.251 156.58 146.559 147.489 146.14 143.922C146.14 141.663 147.972 139.831 150.231 139.831H216.595C222.575 139.797 220.267 148.888 220.686 152.456C220.685 154.715 218.854 156.546 216.595 156.546Z" fill="#BAD8E2"/>
<path d="M195.059 102.549H243.81C246.069 102.549 247.901 104.38 247.901 106.64V130.309C247.901 132.568 246.069 134.4 243.81 134.4H195.059C192.8 134.4 190.968 132.568 190.968 130.309V106.64C190.968 104.38 192.799 102.549 195.059 102.549Z" fill="#B0DEEA"/>
<path opacity="0.5" d="M195.059 44.8945H243.81C246.069 44.8945 247.901 46.7259 247.901 48.9853V65.3164C247.901 67.5755 246.069 69.4068 243.81 69.4068H195.059C192.8 69.4068 190.968 67.5755 190.968 65.3164V48.9853C190.968 46.7259 192.799 44.8945 195.059 44.8945Z" fill="#B0DEEA"/>
<g opacity="0.8">
<path d="M150.231 74.8381H198.982C201.241 74.8381 203.073 76.6695 203.073 78.9289V93.0275C203.073 95.2865 201.241 97.1179 198.982 97.1179H150.231C147.972 97.1179 146.141 95.2865 146.141 93.0275V78.9289C146.14 76.6695 147.972 74.8381 150.231 74.8381Z" fill="#86C5E0"/>
</g>
<path d="M243.81 156.546H230.041C227.782 156.546 225.95 154.715 225.95 152.456C226.375 148.876 224.054 139.808 230.041 139.832L243.809 139.831C246.069 139.831 247.9 141.663 247.9 143.922C247.476 147.501 249.797 156.57 243.81 156.546Z" fill="#66AADD"/>
<path d="M236.535 144.95C232.275 152.53 231.506 150.843 240.066 151.022C240.415 151.022 240.631 150.644 240.456 150.343L237.316 144.951C237.141 144.651 236.709 144.651 236.535 144.95Z" fill="#E2F5F7"/>
<path d="M153.465 190.393C151.658 190.09 146.07 191.533 146.141 188.347V180.635C146.141 179.505 147.057 178.59 148.186 178.59C149.993 178.893 155.582 177.449 155.51 180.635V188.347C155.51 189.477 154.595 190.393 153.465 190.393Z" fill="#86C5E0"/>
<path d="M153.465 175.731C151.658 175.428 146.07 176.872 146.141 173.686V165.973C146.141 164.844 147.057 163.928 148.186 163.928C149.993 164.231 155.582 162.787 155.51 165.973V173.686C155.51 174.815 154.595 175.731 153.465 175.731Z" fill="#86C5E0"/>
<path d="M166.977 219.717H148.186C147.056 219.717 146.141 218.801 146.141 217.671V209.959C146.141 208.83 147.056 207.914 148.186 207.914H166.977C168.107 207.914 169.022 208.83 169.022 209.959V217.671C169.023 218.801 168.107 219.717 166.977 219.717Z" fill="#86C5E0"/>
<path d="M166.977 234.379H148.186C147.056 234.379 146.141 233.463 146.141 232.334V224.621C146.141 223.492 147.056 222.576 148.186 222.576H166.977C168.107 222.576 169.022 223.492 169.022 224.621V232.334C169.023 233.463 168.107 234.379 166.977 234.379Z" fill="#66AADD"/>
<path d="M166.977 190.393C165.17 190.09 159.581 191.533 159.653 188.347V180.635C159.653 179.505 160.568 178.59 161.698 178.59C163.505 178.893 169.093 177.449 169.022 180.635V188.347C169.022 189.477 168.107 190.393 166.977 190.393Z" fill="#86C5E0"/>
<path d="M166.977 175.731C165.17 175.428 159.581 176.872 159.653 173.686V165.973C159.653 164.844 160.568 163.928 161.698 163.928C163.505 164.231 169.093 162.787 169.022 165.973V173.686C169.022 174.815 168.107 175.731 166.977 175.731Z" fill="#86C5E0"/>
<path d="M166.977 205.055C165.17 204.752 159.581 206.196 159.653 203.01V195.297C159.653 194.168 160.568 193.252 161.698 193.252C163.505 193.555 169.093 192.111 169.022 195.297V203.01C169.022 204.139 168.107 205.055 166.977 205.055Z" fill="#86C5E0"/>
<path d="M180.489 190.393C178.682 190.09 173.093 191.533 173.165 188.347V180.635C173.165 179.505 174.08 178.59 175.21 178.59C177.017 178.893 182.606 177.449 182.534 180.635V188.347C182.534 189.477 181.619 190.393 180.489 190.393Z" fill="#86C5E0"/>
<path d="M180.489 175.731C178.682 175.428 173.093 176.872 173.165 173.686V165.973C173.165 164.844 174.08 163.928 175.21 163.928C177.017 164.231 182.606 162.787 182.534 165.973V173.686C182.534 174.815 181.619 175.731 180.489 175.731Z" fill="#86C5E0"/>
<path d="M180.489 205.055C178.682 204.752 173.093 206.196 173.165 203.01V195.297C173.165 194.168 174.08 193.252 175.21 193.252C177.017 193.555 182.606 192.111 182.534 195.297V203.01C182.534 204.139 181.619 205.055 180.489 205.055Z" fill="#86C5E0"/>
<path d="M180.489 219.717C178.682 219.414 173.093 220.857 173.165 217.671V209.959C173.165 208.829 174.08 207.914 175.21 207.914C177.017 208.217 182.606 206.773 182.534 209.959V217.671C182.534 218.801 181.619 219.717 180.489 219.717Z" fill="#86C5E0"/>
<path d="M221.025 234.379H175.21C174.08 234.379 173.165 233.463 173.165 232.334V224.621C173.165 223.492 174.08 222.576 175.21 222.576H221.025C222.155 222.576 223.07 223.492 223.07 224.621V232.334C223.07 233.463 222.155 234.379 221.025 234.379Z" fill="#86C5E0"/>
<path d="M194.001 190.393C192.194 190.09 186.606 191.533 186.677 188.347V180.635C186.677 179.505 187.593 178.59 188.722 178.59C190.529 178.893 196.118 177.449 196.046 180.635V188.347C196.046 189.477 195.131 190.393 194.001 190.393Z" fill="#86C5E0"/>
<path d="M194.001 175.731C192.194 175.428 186.606 176.872 186.677 173.686V165.973C186.677 164.844 187.593 163.928 188.722 163.928C190.529 164.231 196.118 162.787 196.046 165.973V173.686C196.046 174.815 195.131 175.731 194.001 175.731Z" fill="#86C5E0"/>
<path d="M194.001 205.055C192.194 204.752 186.606 206.196 186.677 203.01V195.297C186.677 194.168 187.593 193.252 188.722 193.252C190.529 193.555 196.118 192.111 196.046 195.297V203.01C196.046 204.139 195.131 205.055 194.001 205.055Z" fill="#86C5E0"/>
<path d="M194.001 219.717C192.194 219.414 186.606 220.857 186.677 217.671V209.959C186.677 208.829 187.593 207.914 188.722 207.914C190.529 208.217 196.118 206.773 196.046 209.959V217.671C196.046 218.801 195.131 219.717 194.001 219.717Z" fill="#86C5E0"/>
<path d="M207.513 190.393C205.706 190.09 200.118 191.533 200.189 188.347V180.635C200.189 179.505 201.105 178.59 202.234 178.59C204.042 178.893 209.63 177.449 209.559 180.635V188.347C209.559 189.477 208.643 190.393 207.513 190.393Z" fill="#86C5E0"/>
<path d="M207.513 175.731C205.706 175.428 200.118 176.872 200.189 173.686V165.973C200.189 164.844 201.105 163.928 202.234 163.928C204.042 164.231 209.63 162.787 209.559 165.973V173.686C209.559 174.815 208.643 175.731 207.513 175.731Z" fill="#86C5E0"/>
<path d="M207.513 205.055C205.706 204.752 200.118 206.196 200.189 203.01V195.297C200.189 194.168 201.105 193.252 202.234 193.252C204.042 193.555 209.63 192.111 209.559 195.297V203.01C209.559 204.139 208.643 205.055 207.513 205.055Z" fill="#86C5E0"/>
<path d="M207.513 219.717C205.706 219.414 200.118 220.857 200.189 217.671V209.959C200.189 208.829 201.105 207.914 202.234 207.914C204.042 208.217 209.63 206.773 209.559 209.959V217.671C209.559 218.801 208.643 219.717 207.513 219.717Z" fill="#86C5E0"/>
<path d="M221.024 190.393C219.217 190.09 213.629 191.533 213.7 188.347V180.635C213.7 179.505 214.616 178.59 215.745 178.59C217.552 178.893 223.141 177.449 223.069 180.635V188.347C223.069 189.477 222.154 190.393 221.024 190.393Z" fill="#86C5E0"/>
<path d="M221.024 175.731C219.217 175.428 213.629 176.872 213.7 173.686V165.973C213.7 164.844 214.616 163.928 215.745 163.928C217.552 164.231 223.141 162.787 223.069 165.973V173.686C223.069 174.815 222.154 175.731 221.024 175.731Z" fill="#86C5E0"/>
<path d="M221.024 205.055C219.217 204.752 213.629 206.196 213.7 203.01V195.297C213.7 194.168 214.616 193.252 215.745 193.252C217.552 193.555 223.141 192.111 223.069 195.297V203.01C223.069 204.139 222.154 205.055 221.024 205.055Z" fill="#86C5E0"/>
<path d="M221.024 219.717C219.217 219.414 213.629 220.857 213.7 217.671V209.959C213.7 208.829 214.616 207.914 215.745 207.914C217.552 208.217 223.141 206.773 223.069 209.959V217.671C223.069 218.801 222.154 219.717 221.024 219.717Z" fill="#86C5E0"/>
<path d="M234.537 190.393C232.73 190.09 227.142 191.533 227.213 188.347V180.635C227.213 179.505 228.129 178.59 229.258 178.59C231.066 178.893 236.654 177.449 236.583 180.635V188.347C236.583 189.477 235.667 190.393 234.537 190.393Z" fill="#86C5E0"/>
<path d="M234.537 175.731C232.73 175.428 227.142 176.872 227.213 173.686V165.973C227.213 164.844 228.129 163.928 229.258 163.928C231.066 164.231 236.654 162.787 236.583 165.973V173.686C236.583 174.815 235.667 175.731 234.537 175.731Z" fill="#86C5E0"/>
<path d="M234.537 205.055C232.73 204.752 227.142 206.196 227.213 203.01V195.297C227.213 194.168 228.129 193.252 229.258 193.252C231.066 193.555 236.654 192.111 236.583 195.297V203.01C236.583 204.139 235.667 205.055 234.537 205.055Z" fill="#86C5E0"/>
<path d="M248.049 190.393C246.242 190.09 240.654 191.533 240.725 188.347V180.635C240.725 179.505 241.64 178.59 242.77 178.59C244.577 178.893 250.166 177.449 250.094 180.635V188.347C250.094 189.477 249.179 190.393 248.049 190.393Z" fill="#86C5E0"/>
<path d="M248.049 175.731C246.242 175.428 240.654 176.872 240.725 173.686V165.973C240.725 164.844 241.64 163.928 242.77 163.928C244.577 164.231 250.166 162.787 250.094 165.973V173.686C250.094 174.815 249.179 175.731 248.049 175.731Z" fill="#86C5E0"/>
<path d="M248.049 219.717H229.258C228.128 219.717 227.212 218.801 227.212 217.671V209.959C227.212 208.83 228.128 207.914 229.258 207.914H248.049C249.178 207.914 250.094 208.83 250.094 209.959V217.671C250.094 218.801 249.178 219.717 248.049 219.717Z" fill="#86C5E0"/>
<path d="M248.049 234.379H229.258C228.128 234.379 227.212 233.463 227.212 232.334V224.621C227.212 223.492 228.128 222.576 229.258 222.576H248.049C249.178 222.576 250.094 223.492 250.094 224.621V232.334C250.094 233.463 249.178 234.379 248.049 234.379Z" fill="#66AADD"/>
<path d="M157.247 211.307C153.599 217.762 152.976 216.376 160.274 216.511C160.572 216.511 160.758 216.188 160.608 215.93L157.916 211.307C157.767 211.051 157.396 211.051 157.247 211.307Z" fill="#E2F5F7"/>
<path d="M235.765 214.151C242.211 217.668 240.887 218.56 241.007 211.146C241.007 210.849 240.686 210.663 240.428 210.811L235.765 213.479C235.505 213.628 235.505 214.002 235.765 214.151Z" fill="#E2F5F7"/>
<path d="M241.549 228.141C235.103 224.624 236.427 223.733 236.307 231.146C236.307 231.443 236.628 231.629 236.886 231.482L241.549 228.813C241.808 228.664 241.808 228.29 241.549 228.141Z" fill="#E2F5F7"/>
<path d="M160.663 228.477C160.722 232.44 154.441 232.44 154.5 228.477C154.442 224.514 160.722 224.514 160.663 228.477Z" fill="#E2F5F7"/>
</g>
<path d="M153.215 146.494H151.696L151.879 145.606H156.018L155.834 146.494H154.322L153.548 150.314H152.449L153.215 146.494Z" fill="#66AADD"/>
<path d="M160.4 146.696C159.267 147.946 157.67 153.033 155.312 151.356L155.8 150.603C156.215 150.988 156.836 150.857 157.075 150.321L156.234 146.696H157.293L157.835 149.158L159.355 146.696L160.4 146.696Z" fill="#66AADD"/>
<path d="M164.352 146.837C166.623 148.194 163.645 151.81 161.941 149.83L161.581 151.619H160.522L161.513 146.696H162.517L162.442 147.052C162.922 146.598 163.762 146.512 164.352 146.837ZM163.555 149.349C164.606 148.712 163.902 146.924 162.687 147.661C161.635 148.299 162.339 150.087 163.555 149.349Z" fill="#66AADD"/>
<path d="M166.872 146.696H167.924L167.198 150.314H166.146L166.872 146.696ZM167.133 146.033C166.532 145.43 167.566 144.677 168.111 145.172C168.715 145.77 167.674 146.547 167.133 146.033Z" fill="#66AADD"/>
<path d="M172.68 146.961C173.484 147.62 172.654 149.479 172.585 150.314H171.527C171.495 149.699 172.603 147.503 171.323 147.55C170.06 147.455 170.183 149.524 169.919 150.314H168.86L169.586 146.696H170.59L170.509 147.086C171.028 146.569 172.137 146.469 172.68 146.961Z" fill="#66AADD"/>
<path d="M178.759 146.696C178.274 149.521 177.928 153.094 174.084 151.195L174.586 150.435C175.392 151.056 177.035 151.032 177.089 149.735C175.694 150.985 173.549 149.229 174.627 147.617C175.154 146.613 177.008 146.169 177.632 147.287L177.748 146.695H178.759V146.696ZM177.022 148.982C177.955 148.063 176.587 146.938 175.729 147.805C174.788 148.719 176.168 149.852 177.022 148.982Z" fill="#66AADD"/>
<path d="M179.729 150.196C179.132 149.59 180.105 148.661 180.703 149.231C181.29 149.83 180.322 150.775 179.729 150.196Z" fill="#66AADD"/>
<path d="M182.185 150.196C181.588 149.59 182.561 148.661 183.159 149.231C183.746 149.83 182.778 150.775 182.185 150.196Z" fill="#66AADD"/>
<path d="M184.641 150.196C184.044 149.59 185.017 148.661 185.614 149.231C186.202 149.83 185.234 150.775 184.641 150.196Z" fill="#66AADD"/>
<path d="M132.107 158.474C132.107 158.474 132.839 161.357 133.287 161.864C133.734 162.371 134.342 163.165 133.287 163.386C132.231 163.607 132.455 164.559 132.599 164.892C132.743 165.225 132.008 165.637 131.943 165.954C132.15 166.961 131.006 167.499 130.504 167.951L132.107 158.474Z" fill="url(#paint0_linear_114_635)"/>
<path d="M93.9802 244.311C93.9802 244.311 92.4081 244.404 91.6241 244.491C91.2802 244.529 89.3263 241.027 91.6312 240.084L93.5563 240.437L94.8653 243.37L93.9802 244.311Z" fill="url(#paint1_linear_114_635)"/>
<path d="M88.1799 252.016C87.1292 243.576 87.5442 239.599 87.5442 239.599C89.8908 239.22 91.631 240.085 91.6317 240.085C89.4334 242.387 93.3979 246.185 92.0352 249.222C91.6082 250.872 89.7615 251.946 88.1799 252.016Z" fill="url(#paint2_linear_114_635)"/>
<path d="M123.495 244.588C123.493 244.614 123.491 244.638 123.487 244.665L123.417 244.555C123.444 244.565 123.468 244.577 123.495 244.588Z" fill="url(#paint3_linear_114_635)"/>
<path d="M128.288 210.758C127.927 203.963 115.912 212.479 115.912 212.479C115.484 212.147 111.02 225.622 113.044 241.824C103.407 240.257 93.0181 240.336 93.0181 240.336C91.2061 242.663 92.2596 244.434 92.2599 244.432C101.478 246.167 108.342 249.344 118.556 251.787C118.556 251.787 122.54 251.439 123.417 244.555C123.443 244.565 123.468 244.578 123.495 244.588C124.558 233.058 126.834 219.423 128.288 210.758Z" fill="url(#paint4_linear_114_635)"/>
<path d="M123.417 244.555C123.443 244.565 123.468 244.577 123.495 244.587C123.493 244.614 123.491 244.638 123.487 244.665L123.417 244.555Z" fill="url(#paint5_linear_114_635)"/>
<path d="M108.934 250.58C108.934 250.58 107.493 250.034 106.758 249.798C106.436 249.694 106.119 245.786 108.56 245.867L110.135 246.953L110.108 250.095L108.934 250.58Z" fill="url(#paint6_linear_114_635)"/>
<path d="M100.618 255.134C103.12 247.181 105.11 243.798 105.11 243.798C107.359 244.399 108.56 245.867 108.56 245.868C105.676 247.005 107.647 252.014 105.197 254.185C104.145 255.484 102.063 255.706 100.618 255.134Z" fill="url(#paint7_linear_114_635)"/>
<path d="M139.951 243.656C139.955 243.682 139.958 243.707 139.961 243.733L139.867 243.642C139.896 243.646 139.923 243.652 139.951 243.656Z" fill="url(#paint8_linear_114_635)"/>
<path d="M136.752 209.642C134.821 203.112 125.108 214.144 125.108 214.144C124.622 213.358 123.448 228.472 129.138 243.354C119.397 244.03 109.306 246.48 109.306 246.48C108.084 249.158 108.934 250.583 108.934 250.58C118.395 250.168 126.227 251.748 136.818 251.79C136.818 251.79 140.614 250.541 139.867 243.642C139.895 243.646 139.922 243.652 139.95 243.656C138.305 232.197 137.351 218.405 136.752 209.642Z" fill="url(#paint9_linear_114_635)"/>
<path d="M139.867 243.642C139.895 243.646 139.922 243.652 139.951 243.656C139.955 243.682 139.958 243.707 139.961 243.733L139.867 243.642Z" fill="url(#paint10_linear_114_635)"/>
<path d="M128.584 175.149C128.672 175.352 129.108 176.208 127.019 176.208C123.575 176.074 122.497 175.193 122.426 175.132C122.643 174.628 123.011 169.505 122.426 167.951L128.45 168.386C128.188 169.322 127.857 174.244 128.863 175.559C128.744 175.426 128.648 175.287 128.584 175.149Z" fill="url(#paint11_linear_114_635)"/>
<path d="M129.798 169.663C130.027 168.72 130.005 167.951 130.005 167.951C126.702 176.198 116.479 170.303 117.052 162.089C117.051 156.66 120.536 152.259 124.834 152.259C132.305 151.99 135.119 164.827 129.798 169.663Z" fill="url(#paint12_linear_114_635)"/>
<path d="M130.722 155.663C130.722 155.663 130.598 151.598 125.859 150.481C125.859 150.481 126.975 151.888 126.965 152.258C117.795 148.356 117.557 159.033 111.406 159.972C111.406 159.972 114.092 161.61 116.145 159.972C116.145 159.972 114.486 165.624 118.909 169.475C118.909 169.475 115.288 155.451 130.722 155.663Z" fill="url(#paint13_linear_114_635)"/>
<path d="M137.827 200.875C137.753 205.41 137.536 209.96 137.104 214.475C126.075 216.177 115.93 212.486 115.913 212.48C115.257 212.241 114.449 208.014 114.234 207.263C113.785 205.703 113.381 204.129 113.034 202.543C110.886 193.566 109.656 175.508 122.428 175.135C122.495 175.192 123.583 176.076 127.019 176.208C129.021 176.208 128.704 175.422 128.598 175.177C129.075 176.551 130.643 176.575 131.559 177.467C139.212 182.798 138.147 192.685 137.827 200.875Z" fill="url(#paint14_linear_114_635)"/>
<path d="M160.877 179.218C158.897 182.376 156.578 186.768 154.29 189.847C149.242 197.836 146.531 197.625 139.097 192.531C130.901 188.782 129.692 186.378 128.311 177.354C127.821 172.633 146.577 187.765 146.957 189.348C146.907 189.408 146.87 189.448 146.837 189.49C146.848 189.486 146.908 189.467 147.012 189.431C146.429 188.909 150.463 185.352 150.835 184.938C153.302 182.513 155.795 179.968 157.507 176.946C157.683 178.01 159.239 178.876 160.877 179.218Z" fill="url(#paint15_linear_114_635)"/>
<path d="M162.682 175.722C162.638 175.473 162.466 175.414 162.466 175.414V175.412C162.307 175.454 162.156 175.498 162.016 175.544L162.403 175.004C162.48 174.834 162.707 173.991 162.236 173.91C161.923 174.125 161.645 174.341 161.444 174.533C161.695 173.838 162.748 172.491 161.947 171.787C161.28 172.453 160.767 173.041 160.614 173.479L160.83 172.369C160.758 172.322 162.568 170.034 161.552 169.474C160.343 171.152 159.388 172.858 159.262 174.424C158.282 175.136 157.306 172.015 156.774 172.228C156.226 172.09 156.138 172.155 156.157 172.461C156.177 172.768 156.994 172.961 156.971 173.975C156.947 174.989 157.617 175.823 157.382 176.844C157.148 177.865 159.687 180.125 160.919 179.335C161.985 178.677 161.893 177.135 162.598 176.28C162.613 176.251 162.723 175.961 162.682 175.722Z" fill="url(#paint16_linear_114_635)"/>
<path opacity="0.5" d="M137.104 214.475C126.075 216.177 115.93 212.486 115.913 212.48C112.868 204.518 110.883 194.921 112.053 186.232C112.053 186.232 109.81 213.08 137.104 214.475Z" fill="url(#paint17_linear_114_635)"/>
<path opacity="0.5" d="M137.827 200.875C137.415 201.132 132.8 187.778 138.027 191.959C138.101 194.942 137.875 197.944 137.827 200.875Z" fill="url(#paint18_linear_114_635)"/>
</g>
<defs>
<linearGradient id="paint0_linear_114_635" x1="131.952" y1="177.304" x2="132.352" y2="157.208" gradientUnits="userSpaceOnUse">
<stop stop-color="#F0877E"/>
<stop offset="1" stop-color="#FABEB2"/>
</linearGradient>
<linearGradient id="paint1_linear_114_635" x1="95.7466" y1="242.939" x2="90.2224" y2="242.067" gradientUnits="userSpaceOnUse">
<stop stop-color="#F0877E"/>
<stop offset="1" stop-color="#FABEB2"/>
</linearGradient>
<linearGradient id="paint2_linear_114_635" x1="92.4793" y1="246.869" x2="87.226" y2="245.162" gradientUnits="userSpaceOnUse">
<stop stop-color="#005A8B"/>
<stop offset="1" stop-color="#001145"/>
</linearGradient>
<linearGradient id="paint3_linear_114_635" x1="123.456" y1="244.684" x2="123.457" y2="244.393" gradientUnits="userSpaceOnUse">
<stop stop-color="#005A8B"/>
<stop offset="1" stop-color="#001145"/>
</linearGradient>
<linearGradient id="paint4_linear_114_635" x1="102.141" y1="256.295" x2="124.458" y2="207.631" gradientUnits="userSpaceOnUse">
<stop stop-color="#005A8B"/>
<stop offset="1" stop-color="#001145"/>
</linearGradient>
<linearGradient id="paint5_linear_114_635" x1="123.439" y1="244.645" x2="123.47" y2="244.558" gradientUnits="userSpaceOnUse">
<stop stop-color="#005A8B"/>
<stop offset="1" stop-color="#001145"/>
</linearGradient>
<linearGradient id="paint6_linear_114_635" x1="111.063" y1="250.071" x2="106.499" y2="247.07" gradientUnits="userSpaceOnUse">
<stop stop-color="#F0877E"/>
<stop offset="1" stop-color="#FABEB2"/>
</linearGradient>
<linearGradient id="paint7_linear_114_635" x1="106.547" y1="252.263" x2="102.568" y2="248.637" gradientUnits="userSpaceOnUse">
<stop stop-color="#005A8B"/>
<stop offset="1" stop-color="#001145"/>
</linearGradient>
<linearGradient id="paint8_linear_114_635" x1="139.935" y1="243.759" x2="139.868" y2="243.475" gradientUnits="userSpaceOnUse">
<stop stop-color="#005A8B"/>
<stop offset="1" stop-color="#001145"/>
</linearGradient>
<linearGradient id="paint9_linear_114_635" x1="122.66" y1="258.143" x2="127.722" y2="225.569" gradientUnits="userSpaceOnUse">
<stop stop-color="#005A8B"/>
<stop offset="1" stop-color="#001145"/>
</linearGradient>
<linearGradient id="paint10_linear_114_635" x1="139.91" y1="243.725" x2="139.92" y2="243.634" gradientUnits="userSpaceOnUse">
<stop stop-color="#005A8B"/>
<stop offset="1" stop-color="#001145"/>
</linearGradient>
<linearGradient id="paint11_linear_114_635" x1="125.645" y1="169.11" x2="125.645" y2="177.21" gradientUnits="userSpaceOnUse">
<stop stop-color="#F0877E"/>
<stop offset="1" stop-color="#FABEB2"/>
</linearGradient>
<linearGradient id="paint12_linear_114_635" x1="116.961" y1="148.017" x2="129.143" y2="169.946" gradientUnits="userSpaceOnUse">
<stop stop-color="#005A8B"/>
<stop offset="1" stop-color="#001145"/>
</linearGradient>
<linearGradient id="paint13_linear_114_635" x1="116.103" y1="148.39" x2="128.442" y2="170.6" gradientUnits="userSpaceOnUse">
<stop stop-color="#005A8B"/>
<stop offset="1" stop-color="#001145"/>
</linearGradient>
<linearGradient id="paint14_linear_114_635" x1="124.239" y1="224.357" x2="125.165" y2="177.749" gradientUnits="userSpaceOnUse">
<stop stop-color="#0063B9"/>
<stop offset="1" stop-color="#00C3E7"/>
</linearGradient>
<linearGradient id="paint15_linear_114_635" x1="143.716" y1="222.131" x2="144.592" y2="178.039" gradientUnits="userSpaceOnUse">
<stop stop-color="#0063B9"/>
<stop offset="1" stop-color="#00C3E7"/>
</linearGradient>
<linearGradient id="paint16_linear_114_635" x1="214.847" y1="182.624" x2="166.432" y2="175.325" gradientUnits="userSpaceOnUse">
<stop stop-color="#F0877E"/>
<stop offset="1" stop-color="#FABEB2"/>
</linearGradient>
<linearGradient id="paint17_linear_114_635" x1="123.618" y1="242.558" x2="124.807" y2="182.7" gradientUnits="userSpaceOnUse">
<stop stop-color="#0063B9"/>
<stop offset="1" stop-color="#00C3E7"/>
</linearGradient>
<linearGradient id="paint18_linear_114_635" x1="136.457" y1="210.368" x2="136.865" y2="189.86" gradientUnits="userSpaceOnUse">
<stop stop-color="#0063B9"/>
<stop offset="1" stop-color="#00C3E7"/>
</linearGradient>
<clipPath id="clip0_114_635">
<rect width="358" height="258.84" fill="white"/>
</clipPath>
</defs>
</svg>
