<svg width="358" height="179" viewBox="0 0 358 179" fill="none" xmlns="http://www.w3.org/2000/svg">
<g clip-path="url(#clip0_83_22514)">
<g filter="url(#filter0_d_83_22514)">
<g clip-path="url(#clip1_83_22514)">
<path d="M68.7306 148.306C65.8073 148.306 63.2855 147.652 61.1654 146.345C59.0585 145.025 57.4322 143.184 56.2866 140.824C55.1541 138.45 54.5879 135.689 54.5879 132.541C54.5879 129.393 55.1541 126.619 56.2866 124.219C57.4322 121.804 59.0256 119.924 61.0667 118.577C63.1209 117.216 65.5176 116.536 68.2565 116.536C69.8368 116.536 71.3972 116.803 72.9379 117.336C74.4785 117.87 75.881 118.737 77.1452 119.937C78.4093 121.124 79.4167 122.698 80.1672 124.659C80.9177 126.619 81.2934 129.033 81.2934 131.901V133.902H57.9063V129.82H76.5526C76.5526 128.086 76.2102 126.539 75.5255 125.179C74.8538 123.818 73.8926 122.745 72.6416 121.958C71.4038 121.171 69.9421 120.777 68.2565 120.777C66.3998 120.777 64.7933 121.244 63.437 122.178C62.0938 123.098 61.0601 124.299 60.3358 125.779C59.6116 127.259 59.2495 128.847 59.2495 130.54V133.261C59.2495 135.582 59.6445 137.549 60.4346 139.163C61.2378 140.763 62.3506 141.984 63.7728 142.824C65.195 143.651 66.8476 144.065 68.7306 144.065C69.9553 144.065 71.0614 143.891 72.049 143.544C73.0498 143.184 73.9123 142.651 74.6366 141.944C75.3608 141.224 75.9205 140.33 76.3156 139.263L80.8191 140.544C80.345 142.091 79.5484 143.451 78.429 144.625C77.3097 145.785 75.9271 146.692 74.281 147.346C72.635 147.986 70.7849 148.306 68.7306 148.306ZM154.436 135.102V116.936H159.098V147.666H154.436V142.464H154.12C153.409 144.025 152.303 145.352 150.802 146.445C149.301 147.526 147.405 148.066 145.113 148.066C143.217 148.066 141.531 147.646 140.056 146.805C138.582 145.952 137.423 144.672 136.58 142.964C135.737 141.244 135.316 139.076 135.316 136.462V116.936H139.977V136.142C139.977 138.383 140.596 140.17 141.834 141.504C143.085 142.838 144.679 143.504 146.614 143.504C147.773 143.504 148.952 143.204 150.15 142.604C151.361 142.004 152.375 141.084 153.192 139.843C154.022 138.603 154.436 137.022 154.436 135.102Z" fill="#292A2D"/>
<path d="M223.495 148.386C221.573 148.386 219.828 148.019 218.261 147.286C216.694 146.539 215.45 145.465 214.528 144.065C213.606 142.651 213.145 140.944 213.145 138.943C213.145 137.183 213.488 135.755 214.173 134.662C214.857 133.555 215.772 132.688 216.918 132.061C218.064 131.434 219.328 130.967 220.71 130.661C222.106 130.34 223.509 130.087 224.918 129.9C226.761 129.66 228.256 129.48 229.402 129.36C230.561 129.227 231.403 129.007 231.93 128.7C232.47 128.393 232.739 127.86 232.739 127.099V126.939C232.739 124.965 232.206 123.432 231.139 122.338C230.086 121.244 228.486 120.697 226.34 120.697C224.114 120.697 222.37 121.191 221.106 122.178C219.842 123.165 218.953 124.219 218.439 125.339L214.014 123.738C214.805 121.871 215.858 120.417 217.175 119.377C218.505 118.323 219.953 117.59 221.52 117.176C223.1 116.75 224.654 116.536 226.182 116.536C227.156 116.536 228.275 116.656 229.54 116.896C230.817 117.123 232.048 117.596 233.233 118.317C234.432 119.037 235.426 120.124 236.216 121.578C237.006 123.032 237.401 124.979 237.401 127.42V147.666H232.739V143.505H232.503C232.187 144.171 231.66 144.885 230.923 145.645C230.185 146.405 229.204 147.052 227.979 147.586C226.755 148.119 225.26 148.386 223.495 148.386ZM224.206 144.145C226.05 144.145 227.604 143.778 228.868 143.045C230.145 142.311 231.107 141.364 231.752 140.204C232.41 139.043 232.739 137.823 232.739 136.542V132.221C232.542 132.461 232.107 132.681 231.436 132.881C230.777 133.068 230.014 133.235 229.145 133.381C228.289 133.515 227.453 133.635 226.636 133.741C225.833 133.835 225.181 133.915 224.681 133.982C223.469 134.142 222.337 134.402 221.283 134.762C220.243 135.109 219.4 135.635 218.755 136.342C218.123 137.036 217.807 137.983 217.807 139.183C217.807 140.824 218.406 142.064 219.604 142.904C220.816 143.731 222.35 144.145 224.206 144.145ZM259.104 116.936V120.938H243.381V116.936H259.104ZM247.964 109.574H252.626V138.863C252.626 140.197 252.816 141.197 253.198 141.864C253.593 142.518 254.094 142.958 254.699 143.184C255.318 143.398 255.97 143.505 256.655 143.505C257.168 143.505 257.59 143.478 257.919 143.425C258.248 143.358 258.511 143.304 258.709 143.264L259.657 147.506C259.341 147.626 258.9 147.746 258.334 147.866C257.768 147.999 257.05 148.066 256.181 148.066C254.864 148.066 253.574 147.779 252.31 147.206C251.059 146.632 250.018 145.759 249.189 144.585C248.372 143.411 247.964 141.931 247.964 140.144V109.574ZM278.511 148.306C275.588 148.306 273.066 147.653 270.946 146.345C268.839 145.025 267.212 143.184 266.067 140.824C264.934 138.45 264.368 135.689 264.368 132.541C264.368 129.393 264.934 126.619 266.067 124.219C267.212 121.804 268.806 119.924 270.847 118.577C272.901 117.216 275.298 116.536 278.037 116.536C279.617 116.536 281.177 116.803 282.718 117.336C284.259 117.87 285.661 118.737 286.926 119.937C288.19 121.124 289.197 122.698 289.947 124.659C290.698 126.619 291.074 129.033 291.074 131.901V133.902H267.687V129.82H286.333C286.333 128.086 285.991 126.539 285.306 125.179C284.634 123.818 283.673 122.745 282.422 121.958C281.184 121.171 279.722 120.777 278.037 120.777C276.18 120.777 274.574 121.244 273.217 122.178C271.874 123.098 270.841 124.299 270.116 125.779C269.392 127.26 269.03 128.847 269.03 130.54V133.261C269.03 135.582 269.425 137.549 270.215 139.163C271.018 140.763 272.131 141.984 273.553 142.824C274.975 143.651 276.628 144.065 278.511 144.065C279.736 144.065 280.841 143.891 281.83 143.544C282.83 143.184 283.692 142.651 284.417 141.944C285.141 141.224 285.701 140.33 286.096 139.263L290.599 140.544C290.125 142.091 289.329 143.451 288.209 144.625C287.09 145.785 285.707 146.692 284.062 147.346C282.415 147.986 280.565 148.306 278.511 148.306Z" fill="#292A2D"/>
<mask id="mask0_83_22514" style="mask-type:luminance" maskUnits="userSpaceOnUse" x="30" y="88" width="44" height="44">
<path d="M57.5374 88.7675L30 106.942L45.7358 131.401L73.2732 113.226L57.5374 88.7675Z" fill="white"/>
</mask>
<g mask="url(#mask0_83_22514)">
<path d="M53.1489 112.779C52.7049 113.072 52.0222 113.46 51.29 113.652L45.4282 115.179L43.0747 116.732L44.7218 119.292C45.2283 120.08 46.4626 120.538 47.4774 120.315L54.7417 118.725C55.756 118.502 57.0764 117.632 57.6896 116.784L62.1192 110.647C62.7318 109.798 62.8174 108.471 62.3109 107.683L60.6637 105.123L58.0667 106.837L54.835 111.241C54.4465 111.771 53.8471 112.318 53.1489 112.779Z" fill="#3C3D40"/>
<path d="M36.7866 116.121L50.9222 112.44C51.9317 112.176 53.2523 111.278 53.8725 110.433L62.271 98.9885L66.2029 105.1L66.8229 107.577L68.7994 106.272L66.7754 104.692L62.6981 98.3547L62.6783 98.3678C62.9675 97.7599 62.6214 97.4685 61.7698 97.7106L48.2253 101.582C47.2199 101.869 45.8778 102.77 45.2258 103.595L36.139 115.103C35.4873 115.928 35.7777 116.384 36.7866 116.121Z" fill="#3C3D40"/>
</g>
<path d="M173.585 101.17L192.178 121.155L192.361 126.192L187.297 125.588L168.704 105.603L173.585 101.17Z" fill="#FAFAFA"/>
<path d="M173.64 101.232L172.38 99.8316C172.097 99.5272 171.219 99.9122 170.471 100.591L168.38 102.491C167.633 103.169 167.231 104.021 167.514 104.325L168.76 105.664L173.64 101.232Z" fill="#3C3D40"/>
<path d="M192.152 125.97L192.06 123.452L189.62 125.668L192.152 125.97Z" fill="black"/>
<path d="M191.81 121.453L189.265 122.865L187.626 125.252L187.53 125.396L189.389 125.616L192.029 123.219L191.962 121.37L191.81 121.453Z" fill="#3C3D40"/>
<path d="M192.705 126.068C192.658 126.166 192.593 126.244 192.493 126.334C192.344 126.47 192.157 126.565 192.085 126.537L187.021 125.933C186.986 125.946 186.967 125.925 186.948 125.905L168.355 105.92C168.279 105.839 168.372 105.642 168.571 105.461C168.77 105.28 168.977 105.206 169.052 105.287L187.626 125.252L191.965 125.766L191.81 121.452L173.236 101.487C173.16 101.406 173.252 101.21 173.452 101.028C173.651 100.848 173.857 100.773 173.933 100.854L192.526 120.839C192.545 120.859 192.53 120.892 192.549 120.912L192.732 125.949C192.717 125.982 192.736 126.002 192.705 126.068Z" fill="#3C3D40"/>
<path d="M192.502 121.01C192.44 121.142 192.275 121.31 192.107 121.425L189.36 122.966L187.575 125.542C187.463 125.718 187.211 125.891 187.054 125.921C186.899 125.95 186.888 125.791 187 125.615L188.912 122.83C188.993 122.72 189.142 122.584 189.261 122.514L192.229 120.865C192.416 120.77 192.576 120.794 192.533 120.945C192.533 120.945 192.518 120.978 192.502 121.01Z" fill="#3C3D40"/>
<path d="M173.983 101.107C173.937 101.205 173.872 101.283 173.772 101.374C173.573 101.555 173.367 101.63 173.291 101.549L172.046 100.21C171.819 99.9659 171.201 100.19 170.603 100.733L168.511 102.633C167.914 103.176 167.636 103.766 167.862 104.009L169.108 105.348C169.183 105.429 169.09 105.626 168.892 105.807C168.692 105.988 168.486 106.063 168.411 105.982L167.165 104.642C166.806 104.257 167.301 103.209 168.248 102.349L170.339 100.449C171.286 99.5898 172.384 99.1908 172.743 99.5762L173.989 100.915C174.027 100.956 174.015 101.042 173.983 101.107Z" fill="#3C3D40"/>
<path d="M173.928 101.046C173.882 101.144 173.816 101.222 173.716 101.313L168.836 105.745C168.636 105.926 168.43 106.001 168.355 105.92C168.279 105.839 168.372 105.642 168.571 105.461L173.452 101.028C173.651 100.848 173.857 100.773 173.933 100.854C173.986 100.862 173.974 100.948 173.928 101.046Z" fill="#3C3D40"/>
<path d="M174.454 101.616C174.408 101.714 174.342 101.792 174.243 101.882L169.362 106.315C169.163 106.496 168.957 106.571 168.881 106.49C168.805 106.409 168.898 106.212 169.098 106.031L173.978 101.598C174.178 101.417 174.383 101.343 174.459 101.424C174.512 101.431 174.5 101.517 174.454 101.616Z" fill="#3C3D40"/>
<path d="M187.285 120.246C187.239 120.345 187.173 120.422 187.074 120.513C186.875 120.694 186.669 120.769 186.593 120.688L171.322 104.273C171.247 104.192 171.339 103.996 171.538 103.815C171.738 103.634 171.944 103.559 172.019 103.64L187.29 120.054C187.328 120.095 187.332 120.148 187.285 120.246Z" fill="#3C3D40"/>
<path d="M189.534 122.659C189.487 122.757 189.422 122.835 189.322 122.926C189.122 123.107 188.916 123.183 188.84 123.101L187.915 122.107C187.84 122.026 187.933 121.829 188.132 121.648C188.333 121.466 188.539 121.391 188.614 121.472L189.539 122.466C189.577 122.507 189.581 122.56 189.534 122.659Z" fill="#3C3D40"/>
<path d="M192.512 123.097C192.466 123.195 192.401 123.273 192.301 123.364L189.512 125.897C189.313 126.078 189.107 126.153 189.031 126.072C188.956 125.991 189.049 125.794 189.248 125.613L192.037 123.08C192.236 122.899 192.443 122.824 192.518 122.905C192.555 122.946 192.559 122.999 192.512 123.097Z" fill="#3C3D40"/>
<path d="M187.196 122.609C187.15 122.708 187.085 122.786 186.985 122.876C186.786 123.057 186.58 123.132 186.505 123.051L171.233 106.637C171.158 106.555 171.25 106.359 171.45 106.178C171.649 105.997 171.855 105.922 171.93 106.003L187.202 122.418C187.239 122.458 187.243 122.511 187.196 122.609Z" fill="#3C3D40"/>
<path d="M189.537 120.445C189.49 120.544 189.424 120.623 189.325 120.714C189.125 120.896 188.92 120.971 188.845 120.889C182.969 114.384 179.675 110.736 173.799 104.231C173.725 104.149 173.818 103.95 174.018 103.768C174.217 103.586 174.423 103.511 174.497 103.594L189.544 120.251C189.581 120.292 189.584 120.346 189.537 120.445Z" fill="#3C3D40"/>
<path d="M204.734 105.4L186.443 126.388L181.458 127.093L181.636 121.873L199.927 100.885L204.734 105.4Z" fill="#FAFAFA"/>
<path d="M204.677 105.463L205.962 104.036C206.241 103.717 205.786 102.861 205.05 102.17L202.99 100.235C202.254 99.5442 201.375 99.2223 201.096 99.542L199.871 100.949L204.677 105.463Z" fill="#3C3D40"/>
<path d="M181.661 126.857L184.153 126.505L181.75 124.247L181.661 126.857Z" fill="black"/>
<path d="M186.116 126.043L184.502 123.597L181.996 122.174L181.846 122.09L181.781 124.007L184.381 126.448L186.211 126.191L186.116 126.043Z" fill="#3C3D40"/>
<path d="M181.61 127.429C181.508 127.392 181.425 127.334 181.327 127.242C181.18 127.103 181.07 126.922 181.092 126.846L181.27 121.627C181.254 121.593 181.273 121.572 181.292 121.55L199.583 100.562C199.657 100.477 199.86 100.551 200.056 100.736C200.253 100.92 200.344 101.122 200.27 101.207L181.997 122.174L181.848 126.645L186.117 126.044L204.39 105.077C204.464 104.992 204.667 105.066 204.863 105.251C205.059 105.435 205.151 105.637 205.077 105.722L186.785 126.71C186.767 126.732 186.733 126.719 186.715 126.741L181.73 127.445C181.696 127.433 181.678 127.454 181.61 127.429Z" fill="#3C3D40"/>
<path d="M186.613 126.703C186.477 126.654 186.297 126.504 186.168 126.344L184.41 123.704L181.705 122.151C181.52 122.056 181.328 121.816 181.285 121.66C181.243 121.504 181.4 121.478 181.584 121.573L184.507 123.234C184.624 123.305 184.771 123.443 184.851 123.557L186.734 126.411C186.845 126.592 186.834 126.757 186.681 126.728C186.681 126.728 186.647 126.716 186.613 126.703Z" fill="#3C3D40"/>
<path d="M204.829 105.8C204.728 105.763 204.645 105.705 204.546 105.612C204.351 105.428 204.259 105.226 204.334 105.141L205.559 103.734C205.782 103.479 205.508 102.872 204.919 102.319L202.859 100.384C202.27 99.8313 201.662 99.6085 201.439 99.8642L200.213 101.271C200.139 101.356 199.936 101.282 199.74 101.097C199.544 100.913 199.452 100.711 199.527 100.626L200.752 99.2192C201.105 98.8143 202.187 99.2104 203.119 100.086L205.179 102.021C206.111 102.896 206.599 103.974 206.246 104.379L205.02 105.786C204.983 105.828 204.897 105.825 204.829 105.8Z" fill="#3C3D40"/>
<path d="M204.886 105.737C204.785 105.7 204.702 105.641 204.604 105.549L199.797 101.034C199.601 100.85 199.509 100.648 199.583 100.562C199.658 100.477 199.86 100.551 200.057 100.736L204.863 105.251C205.06 105.435 205.151 105.637 205.077 105.722C205.073 105.777 204.987 105.774 204.886 105.737Z" fill="#3C3D40"/>
<path d="M204.364 106.331C204.262 106.294 204.179 106.236 204.082 106.144L199.275 101.629C199.079 101.444 198.987 101.242 199.061 101.157C199.136 101.072 199.338 101.146 199.535 101.33L204.341 105.845C204.538 106.03 204.629 106.232 204.555 106.317C204.551 106.372 204.465 106.369 204.364 106.331Z" fill="#3C3D40"/>
<path d="M186.938 121.312C186.836 121.275 186.753 121.216 186.655 121.124C186.459 120.94 186.367 120.738 186.442 120.653L201.465 103.415C201.539 103.329 201.742 103.404 201.938 103.588C202.134 103.772 202.226 103.974 202.152 104.06L187.128 121.298C187.092 121.34 187.039 121.349 186.938 121.312Z" fill="#3C3D40"/>
<path d="M184.73 123.85C184.628 123.813 184.545 123.754 184.447 123.662C184.25 123.477 184.159 123.274 184.232 123.189L185.143 122.145C185.217 122.06 185.42 122.134 185.617 122.319C185.814 122.504 185.906 122.707 185.831 122.792L184.921 123.836C184.884 123.879 184.832 123.888 184.73 123.85Z" fill="#3C3D40"/>
<path d="M184.543 126.929C184.441 126.892 184.358 126.833 184.26 126.741L181.514 124.161C181.317 123.977 181.226 123.774 181.3 123.689C181.374 123.604 181.577 123.678 181.773 123.862L184.52 126.442C184.716 126.627 184.808 126.829 184.734 126.914C184.697 126.957 184.644 126.966 184.543 126.929Z" fill="#3C3D40"/>
<path d="M184.584 121.465C184.483 121.428 184.4 121.369 184.302 121.277C184.105 121.093 184.014 120.891 184.088 120.805L199.111 103.567C199.186 103.482 199.389 103.556 199.585 103.741C199.781 103.925 199.872 104.127 199.798 104.212L184.775 121.451C184.738 121.493 184.685 121.502 184.584 121.465Z" fill="#3C3D40"/>
<path d="M186.927 123.626C186.825 123.588 186.742 123.529 186.643 123.437C186.446 123.253 186.354 123.051 186.43 122.967C192.398 116.315 195.744 112.585 201.712 105.933C201.788 105.849 201.993 105.924 202.19 106.108C202.388 106.293 202.479 106.494 202.404 106.579L187.121 123.613C187.083 123.655 187.03 123.664 186.927 123.626Z" fill="#3C3D40"/>
<path d="M206.956 100.074L207.403 141.058L204.188 146.801L200.847 140.977L200.401 99.9922L206.956 100.074Z" fill="#FAFAFA"/>
<path d="M206.956 100.199V97.3709C206.95 96.7468 206.045 96.2768 205.041 96.2643L202.231 96.2292C201.228 96.2167 200.365 96.7468 200.371 97.3709L200.401 100.117L206.956 100.199Z" fill="#3C3D40"/>
<path d="M204.18 146.343L205.787 143.472L202.51 143.431L204.18 146.343Z" fill="black"/>
<path d="M206.932 141.011L204.112 139.977L201.313 140.941L201.146 141.001L202.374 143.138L205.919 143.182L207.1 141.075L206.932 141.011Z" fill="#3C3D40"/>
<path d="M204.524 147.013C204.424 147.074 204.324 147.094 204.19 147.092C203.99 147.09 203.788 147.004 203.753 146.9L200.413 141.075C200.379 141.054 200.379 141.012 200.378 140.97L199.932 99.9867C199.93 99.8202 200.129 99.6979 200.397 99.7012C200.665 99.7046 200.867 99.8319 200.869 99.9983L201.314 140.941L204.178 145.927L206.933 141.011L206.488 100.068C206.486 99.902 206.685 99.7796 206.952 99.783C207.22 99.7863 207.422 99.9136 207.424 100.08L207.87 141.064C207.871 141.106 207.838 141.126 207.838 141.168L204.623 146.91C204.59 146.931 204.59 146.972 204.524 147.013Z" fill="#3C3D40"/>
<path d="M207.739 141.229C207.606 141.31 207.372 141.328 207.171 141.284L204.116 140.185L201.083 141.208C200.883 141.289 200.582 141.222 200.446 141.096C200.311 140.97 200.41 140.784 200.61 140.703L203.875 139.579C204.008 139.539 204.209 139.541 204.343 139.585L207.633 140.791C207.835 140.876 207.937 141.065 207.805 141.188C207.805 141.188 207.771 141.209 207.739 141.229Z" fill="#3C3D40"/>
<path d="M207.293 100.411C207.194 100.472 207.093 100.492 206.959 100.49C206.692 100.487 206.49 100.359 206.488 100.193L206.458 97.4468C206.453 96.9475 205.846 96.5656 205.043 96.5555L202.234 96.5205C201.432 96.5105 200.833 96.8775 200.839 97.3768L200.869 100.123C200.871 100.289 200.672 100.412 200.404 100.408C200.136 100.405 199.934 100.278 199.932 100.111L199.902 97.3651C199.894 96.5745 200.957 95.9222 202.228 95.938L205.037 95.9731C206.308 95.9889 207.386 96.668 207.394 97.4585L207.425 100.205C207.425 100.288 207.359 100.37 207.293 100.411Z" fill="#3C3D40"/>
<path d="M207.292 100.286C207.193 100.348 207.093 100.367 206.959 100.366L200.403 100.284C200.136 100.28 199.934 100.153 199.932 99.9867C199.93 99.8202 200.129 99.6979 200.397 99.7012L206.952 99.783C207.22 99.7863 207.422 99.9136 207.424 100.08C207.458 100.143 207.392 100.225 207.292 100.286Z" fill="#3C3D40"/>
<path d="M207.302 101.451C207.203 101.512 207.103 101.532 206.969 101.53L200.414 101.449C200.146 101.445 199.944 101.318 199.942 101.151C199.94 100.985 200.14 100.863 200.407 100.866L206.963 100.948C207.23 100.951 207.432 101.078 207.434 101.245C207.468 101.308 207.402 101.39 207.302 101.451Z" fill="#3C3D40"/>
<path d="M204.391 135.072C204.292 135.133 204.192 135.152 204.058 135.151C203.79 135.147 203.588 135.02 203.586 134.854L203.22 101.192C203.218 101.026 203.417 100.904 203.684 100.907C203.952 100.91 204.154 101.038 204.156 101.204L204.523 134.865C204.524 134.948 204.491 135.01 204.391 135.072Z" fill="#3C3D40"/>
<path d="M204.449 140.023C204.349 140.084 204.249 140.104 204.114 140.102C203.846 140.099 203.643 139.971 203.641 139.805L203.619 137.766C203.618 137.6 203.817 137.477 204.086 137.481C204.354 137.484 204.557 137.612 204.559 137.778L204.581 139.817C204.581 139.9 204.549 139.962 204.449 140.023Z" fill="#3C3D40"/>
<path d="M206.358 143.541C206.258 143.602 206.158 143.622 206.024 143.62L202.278 143.574C202.011 143.57 201.809 143.443 201.807 143.276C201.805 143.11 202.004 142.988 202.272 142.991L206.018 143.037C206.286 143.041 206.488 143.168 206.49 143.334C206.491 143.418 206.457 143.48 206.358 143.541Z" fill="#3C3D40"/>
<path d="M202.754 137.588C202.654 137.65 202.554 137.669 202.42 137.668C202.153 137.664 201.951 137.537 201.949 137.37L201.583 103.709C201.581 103.543 201.78 103.421 202.047 103.424C202.315 103.427 202.517 103.555 202.519 103.721L202.886 137.382C202.886 137.465 202.854 137.527 202.754 137.588Z" fill="#3C3D40"/>
<path d="M205.923 137.585C205.822 137.646 205.722 137.666 205.587 137.665C205.319 137.663 205.117 137.536 205.117 137.37C205.102 124.209 205.093 116.83 205.078 103.669C205.078 103.503 205.279 103.379 205.548 103.382C205.816 103.384 206.018 103.511 206.019 103.677L206.057 137.377C206.057 137.461 206.024 137.523 205.923 137.585Z" fill="#3C3D40"/>
<path d="M172.572 101.098L173.018 142.082L169.803 147.825L166.463 142.001L166.016 101.017L172.572 101.098Z" fill="#FAFAFA"/>
<path d="M172.571 101.223V98.3953C172.565 97.7712 171.659 97.3012 170.656 97.2887L167.846 97.2536C166.843 97.2411 165.979 97.7712 165.986 98.3953L166.016 101.141L172.571 101.223Z" fill="#3C3D40"/>
<path d="M169.796 147.367L171.403 144.496L168.125 144.455L169.796 147.367Z" fill="black"/>
<path d="M172.547 142.035L169.727 141.002L166.929 141.965L166.762 142.026L167.989 144.163L171.534 144.207L172.715 142.1L172.547 142.035Z" fill="#3C3D40"/>
<path d="M170.139 148.038C170.039 148.099 169.939 148.118 169.805 148.116C169.604 148.114 169.403 148.028 169.368 147.924L166.028 142.099C165.994 142.078 165.993 142.037 165.993 141.995L165.547 101.011C165.545 100.844 165.744 100.722 166.012 100.725C166.28 100.729 166.481 100.856 166.483 101.023L166.929 141.965L169.792 146.951L172.548 142.035L172.102 101.093C172.1 100.926 172.299 100.804 172.567 100.807C172.834 100.81 173.037 100.938 173.039 101.104L173.485 142.088C173.485 142.13 173.452 142.15 173.453 142.192L170.238 147.935C170.205 147.955 170.205 147.997 170.139 148.038Z" fill="#3C3D40"/>
<path d="M173.353 142.253C173.22 142.335 172.986 142.353 172.786 142.308L169.73 141.21L166.698 142.232C166.498 142.313 166.197 142.247 166.061 142.121C165.926 141.994 166.025 141.808 166.225 141.727L169.49 140.603C169.623 140.563 169.823 140.566 169.958 140.609L173.248 141.815C173.45 141.901 173.552 142.089 173.42 142.212C173.42 142.212 173.386 142.233 173.353 142.253Z" fill="#3C3D40"/>
<path d="M172.907 101.435C172.808 101.497 172.708 101.516 172.574 101.515C172.307 101.511 172.104 101.384 172.102 101.217L172.073 98.4713C172.067 97.972 171.461 97.59 170.658 97.58L167.849 97.5449C167.046 97.5349 166.448 97.9019 166.454 98.4012L166.483 101.147C166.485 101.314 166.286 101.436 166.018 101.433C165.751 101.429 165.549 101.302 165.547 101.136L165.517 98.3895C165.509 97.599 166.571 96.9466 167.843 96.9624L170.652 96.9975C171.923 97.0133 173 97.6924 173.009 98.4829L173.039 101.229C173.04 101.312 172.974 101.395 172.907 101.435Z" fill="#3C3D40"/>
<path d="M172.907 101.311C172.808 101.372 172.708 101.391 172.574 101.39L166.018 101.308C165.751 101.305 165.548 101.177 165.547 101.011C165.545 100.844 165.744 100.722 166.012 100.725L172.567 100.807C172.834 100.81 173.037 100.938 173.039 101.104C173.073 101.167 173.006 101.249 172.907 101.311Z" fill="#3C3D40"/>
<path d="M172.917 102.476C172.817 102.537 172.717 102.556 172.584 102.555L166.028 102.473C165.761 102.47 165.559 102.342 165.557 102.176C165.555 102.009 165.754 101.887 166.022 101.89L172.578 101.972C172.845 101.976 173.047 102.103 173.049 102.269C173.083 102.332 173.017 102.415 172.917 102.476Z" fill="#3C3D40"/>
<path d="M170.007 136.096C169.907 136.157 169.807 136.177 169.673 136.175C169.405 136.172 169.203 136.044 169.202 135.878L168.835 102.217C168.833 102.05 169.032 101.928 169.3 101.931C169.568 101.935 169.769 102.062 169.771 102.229L170.138 135.89C170.139 135.973 170.106 136.035 170.007 136.096Z" fill="#3C3D40"/>
<path d="M170.064 141.048C169.964 141.109 169.863 141.128 169.729 141.127C169.461 141.124 169.258 140.996 169.256 140.83L169.234 138.791C169.232 138.624 169.432 138.502 169.701 138.505C169.969 138.509 170.171 138.636 170.173 138.802L170.196 140.841C170.196 140.924 170.163 140.986 170.064 141.048Z" fill="#3C3D40"/>
<path d="M171.973 144.565C171.874 144.627 171.774 144.646 171.64 144.645L167.894 144.598C167.626 144.594 167.424 144.467 167.422 144.3C167.42 144.135 167.62 144.012 167.887 144.015L171.633 144.062C171.901 144.065 172.103 144.193 172.105 144.359C172.106 144.442 172.072 144.504 171.973 144.565Z" fill="#3C3D40"/>
<path d="M168.369 138.613C168.269 138.674 168.169 138.694 168.036 138.692C167.768 138.689 167.566 138.561 167.564 138.395L167.198 104.734C167.196 104.567 167.395 104.445 167.662 104.448C167.93 104.452 168.132 104.579 168.134 104.745L168.501 138.407C168.501 138.49 168.469 138.552 168.369 138.613Z" fill="#3C3D40"/>
<path d="M171.538 138.609C171.438 138.671 171.337 138.691 171.203 138.689C170.934 138.687 170.732 138.561 170.732 138.394C170.717 125.233 170.709 117.854 170.693 104.694C170.693 104.527 170.895 104.404 171.163 104.406C171.432 104.408 171.633 104.535 171.634 104.702L171.672 138.402C171.672 138.485 171.639 138.548 171.538 138.609Z" fill="#3C3D40"/>
<path d="M106.114 143.031L88.2525 143.483L85.75 140.227L88.2879 136.843L106.149 136.391L106.114 143.031Z" fill="#FAFAFA"/>
<path d="M106.06 143.031H107.292C107.564 143.024 107.769 142.107 107.774 141.091L107.789 138.245C107.795 137.229 107.564 136.354 107.292 136.361L106.095 136.391L106.06 143.031Z" fill="#3C3D40"/>
<path d="M85.9492 140.22L87.2002 141.847L87.2184 138.528L85.9492 140.22Z" fill="black"/>
<path d="M88.2728 143.006L88.7233 140.15L88.3036 137.315L88.2773 137.147L87.3459 138.39L87.3267 141.98L88.2449 143.177L88.2728 143.006Z" fill="#3C3D40"/>
<path d="M85.657 140.567C85.6307 140.466 85.6221 140.365 85.6226 140.229C85.6236 140.026 85.661 139.822 85.7065 139.787L88.2449 136.403C88.254 136.369 88.2722 136.369 88.2905 136.368L106.152 135.916C106.224 135.914 106.278 136.116 106.276 136.387C106.275 136.658 106.219 136.863 106.147 136.865L88.3036 137.316L86.1303 140.217L88.2728 143.007L106.116 142.556C106.189 142.554 106.242 142.756 106.24 143.027C106.239 143.298 106.184 143.503 106.111 143.505L88.25 143.956C88.2318 143.957 88.2227 143.924 88.2045 143.924L85.702 140.668C85.6929 140.634 85.6752 140.634 85.657 140.567Z" fill="#3C3D40"/>
<path d="M88.1786 143.823C88.1427 143.688 88.1351 143.452 88.1543 143.248L88.6332 140.153L88.1872 137.082C88.1523 136.88 88.1811 136.574 88.2362 136.437C88.2913 136.301 88.3722 136.4 88.4076 136.602L88.8971 139.909C88.9148 140.044 88.9138 140.248 88.8946 140.384L88.3692 143.717C88.3318 143.921 88.2499 144.024 88.1963 143.89C88.1963 143.89 88.1872 143.856 88.1786 143.823Z" fill="#3C3D40"/>
<path d="M105.967 143.371C105.94 143.271 105.932 143.169 105.933 143.033C105.934 142.763 105.989 142.558 106.062 142.556L107.259 142.526C107.476 142.521 107.643 141.907 107.647 141.093L107.663 138.248C107.667 137.435 107.507 136.829 107.289 136.835L106.092 136.865C106.02 136.867 105.967 136.665 105.968 136.394C105.97 136.123 106.025 135.918 106.098 135.917L107.294 135.886C107.639 135.878 107.923 136.954 107.916 138.242L107.901 141.087C107.894 142.374 107.598 143.466 107.254 143.474L106.057 143.505C106.021 143.506 105.985 143.439 105.967 143.371Z" fill="#3C3D40"/>
<path d="M106.022 143.371C105.995 143.271 105.986 143.169 105.987 143.033L106.023 136.394C106.024 136.123 106.079 135.918 106.152 135.916C106.224 135.914 106.278 136.116 106.277 136.387L106.241 143.027C106.24 143.298 106.184 143.503 106.111 143.505C106.084 143.539 106.048 143.472 106.022 143.371Z" fill="#3C3D40"/>
<path d="M105.514 143.381C105.487 143.28 105.479 143.179 105.479 143.044L105.515 136.404C105.516 136.133 105.572 135.928 105.644 135.926C105.717 135.924 105.77 136.126 105.769 136.397L105.733 143.037C105.732 143.308 105.676 143.513 105.603 143.514C105.576 143.549 105.54 143.482 105.514 143.381Z" fill="#3C3D40"/>
<path d="M90.8616 140.433C90.8353 140.332 90.8267 140.231 90.8272 140.095C90.8287 139.824 90.8843 139.62 90.9566 139.618L105.627 139.246C105.699 139.245 105.752 139.446 105.751 139.717C105.75 139.989 105.694 140.193 105.622 140.195L90.9516 140.566C90.9152 140.567 90.8884 140.534 90.8616 140.433Z" fill="#3C3D40"/>
<path d="M88.7039 140.491C88.6771 140.39 88.6685 140.288 88.669 140.152C88.6705 139.88 88.7261 139.675 88.7989 139.673L89.6874 139.651C89.7597 139.649 89.8133 139.852 89.8118 140.123C89.8102 140.395 89.7546 140.6 89.6823 140.602L88.7939 140.625C88.7575 140.625 88.7302 140.592 88.7039 140.491Z" fill="#3C3D40"/>
<path d="M87.1707 142.425C87.1439 142.324 87.1353 142.223 87.1363 142.087L87.1565 138.293C87.1581 138.022 87.2132 137.817 87.286 137.815C87.3583 137.814 87.4119 138.015 87.4104 138.287L87.3902 142.08C87.3886 142.352 87.333 142.557 87.2607 142.558C87.2243 142.559 87.197 142.525 87.1707 142.425Z" fill="#3C3D40"/>
<path d="M89.7649 138.775C89.7381 138.674 89.73 138.572 89.7305 138.437C89.732 138.166 89.7876 137.961 89.8599 137.959L104.53 137.588C104.603 137.586 104.656 137.788 104.654 138.059C104.653 138.33 104.597 138.535 104.525 138.536L89.8549 138.908C89.8185 138.909 89.7917 138.875 89.7649 138.775Z" fill="#3C3D40"/>
<path d="M89.7664 141.984C89.7396 141.883 89.731 141.781 89.7315 141.644C89.7325 141.372 89.7876 141.168 89.8604 141.168C95.5961 141.153 98.8116 141.144 104.547 141.129C104.62 141.129 104.674 141.333 104.673 141.604C104.672 141.876 104.616 142.081 104.544 142.081L89.8569 142.12C89.8205 142.12 89.7932 142.086 89.7664 141.984Z" fill="#3C3D40"/>
<path d="M88.4368 101.985L106.298 101.533L108.801 104.789L106.262 108.173L88.4009 108.625L88.4368 101.985Z" fill="#FAFAFA"/>
<path d="M88.4907 101.985H87.2584C86.9864 101.992 86.7816 102.908 86.776 103.925L86.7608 106.771C86.7553 107.787 86.9864 108.662 87.2584 108.655L88.4553 108.624L88.4907 101.985Z" fill="#3C3D40"/>
<path d="M108.602 104.796L107.35 103.168L107.333 106.488L108.602 104.796Z" fill="black"/>
<path d="M106.278 102.009L105.827 104.866L106.247 107.7L106.273 107.869L107.205 106.626L107.224 103.035L106.306 101.839L106.278 102.009Z" fill="#3C3D40"/>
<path d="M108.893 104.448C108.92 104.549 108.929 104.651 108.928 104.786C108.927 104.99 108.889 105.194 108.844 105.229L106.305 108.612C106.296 108.647 106.278 108.647 106.26 108.647L88.3983 109.1C88.326 109.101 88.2729 108.899 88.2739 108.628C88.2755 108.357 88.3311 108.153 88.4039 108.151L106.247 107.699L108.42 104.799L106.278 102.008L88.4342 102.46C88.3614 102.462 88.3083 102.26 88.3098 101.989C88.3114 101.718 88.367 101.513 88.4393 101.511L106.301 101.059C106.319 101.059 106.328 101.092 106.346 101.092L108.848 104.348C108.857 104.382 108.876 104.381 108.893 104.448Z" fill="#3C3D40"/>
<path d="M106.373 101.193C106.408 101.327 106.416 101.564 106.396 101.768L105.917 104.862L106.363 107.933C106.399 108.136 106.37 108.441 106.314 108.578C106.259 108.715 106.178 108.616 106.144 108.413L105.654 105.106C105.636 104.971 105.637 104.768 105.656 104.632L106.181 101.299C106.219 101.095 106.301 100.991 106.355 101.125C106.355 101.125 106.363 101.159 106.373 101.193Z" fill="#3C3D40"/>
<path d="M88.5832 101.644C88.61 101.745 88.6186 101.846 88.6181 101.982C88.6166 102.253 88.561 102.458 88.4882 102.459L87.2918 102.49C87.0738 102.495 86.9075 103.109 86.9029 103.922L86.8877 106.768C86.8837 107.581 87.0435 108.186 87.2609 108.181L88.4578 108.151C88.5306 108.149 88.5837 108.351 88.5822 108.622C88.5807 108.893 88.5251 109.097 88.4528 109.099L87.2559 109.129C86.9115 109.138 86.6273 108.062 86.6339 106.774L86.6491 103.929C86.6561 102.641 86.952 101.55 87.2968 101.541L88.4937 101.511C88.5296 101.51 88.5655 101.577 88.5832 101.644Z" fill="#3C3D40"/>
<path d="M88.5293 101.645C88.5561 101.745 88.5642 101.847 88.5637 101.982L88.5283 108.622C88.5268 108.893 88.4711 109.098 88.3983 109.099C88.326 109.101 88.2729 108.899 88.2739 108.628L88.3098 101.989C88.3114 101.718 88.367 101.513 88.4393 101.511C88.4666 101.477 88.5025 101.544 88.5293 101.645Z" fill="#3C3D40"/>
<path d="M89.0371 101.634C89.0639 101.735 89.072 101.837 89.0715 101.972L89.0361 108.612C89.0346 108.883 88.979 109.088 88.9061 109.089C88.8338 109.091 88.7807 108.889 88.7818 108.618L88.8177 101.978C88.8192 101.708 88.8748 101.503 88.9471 101.501C88.9744 101.466 89.0103 101.533 89.0371 101.634Z" fill="#3C3D40"/>
<path d="M103.689 104.583C103.716 104.684 103.724 104.785 103.723 104.921C103.722 105.192 103.667 105.396 103.594 105.398L88.9242 105.77C88.8514 105.771 88.7983 105.57 88.7998 105.298C88.8014 105.027 88.8565 104.823 88.9293 104.821L103.599 104.45C103.635 104.449 103.662 104.482 103.689 104.583Z" fill="#3C3D40"/>
<path d="M105.847 104.525C105.873 104.626 105.882 104.728 105.882 104.864C105.88 105.136 105.824 105.341 105.752 105.343L104.864 105.365C104.791 105.367 104.738 105.165 104.739 104.893C104.741 104.621 104.796 104.416 104.869 104.414L105.757 104.391C105.794 104.39 105.82 104.424 105.847 104.525Z" fill="#3C3D40"/>
<path d="M107.38 102.591C107.407 102.692 107.415 102.793 107.415 102.929L107.394 106.723C107.393 106.994 107.337 107.199 107.265 107.201C107.192 107.202 107.139 107.001 107.141 106.73L107.161 102.935C107.162 102.664 107.218 102.46 107.29 102.458C107.327 102.457 107.354 102.49 107.38 102.591Z" fill="#3C3D40"/>
<path d="M104.786 106.241C104.813 106.342 104.821 106.444 104.82 106.579C104.819 106.85 104.763 107.055 104.691 107.057L90.0209 107.428C89.9486 107.43 89.895 107.228 89.8965 106.957C89.898 106.686 89.9537 106.481 90.026 106.479L104.696 106.108C104.732 106.107 104.759 106.14 104.786 106.241Z" fill="#3C3D40"/>
<path d="M104.784 103.031C104.811 103.133 104.82 103.235 104.819 103.371C104.818 103.643 104.763 103.848 104.691 103.848C98.9551 103.863 95.7391 103.872 90.0033 103.887C89.931 103.887 89.8774 103.683 89.8784 103.411C89.8794 103.139 89.9346 102.935 90.0069 102.935L104.694 102.896C104.73 102.896 104.758 102.929 104.784 103.031Z" fill="#3C3D40"/>
<path d="M114.363 103.554L126.479 116.855L125.713 120.908L121.527 121.207L109.412 107.906L114.363 103.554Z" fill="#FAFAFA"/>
<path d="M114.399 103.596L113.586 102.657C113.402 102.455 112.586 102.904 111.828 103.57L109.706 105.435C108.948 106.101 108.452 106.854 108.636 107.056L109.448 107.948L114.399 103.596Z" fill="#3C3D40"/>
<path d="M125.576 120.761L125.959 118.735L123.483 120.91L125.576 120.761Z" fill="black"/>
<path d="M126.111 117.154L123.694 118.694L121.867 120.884L121.76 121.015L123.296 120.904L125.974 118.551L126.256 117.063L126.111 117.154Z" fill="#3C3D40"/>
<path d="M126.026 120.754C125.969 120.841 125.899 120.914 125.798 121.003C125.647 121.136 125.47 121.242 125.414 121.231L121.229 121.53C121.198 121.545 121.185 121.532 121.173 121.518L109.058 108.218C109.009 108.164 109.123 107.99 109.326 107.812C109.527 107.635 109.716 107.542 109.765 107.596L121.868 120.883L125.454 120.625L126.112 117.153L114.009 103.866C113.96 103.812 114.074 103.638 114.277 103.46C114.478 103.283 114.667 103.19 114.717 103.244L126.832 116.545C126.844 116.558 126.825 116.587 126.837 116.601L126.071 120.654C126.052 120.683 126.065 120.696 126.026 120.754Z" fill="#3C3D40"/>
<path d="M126.779 116.687C126.704 116.803 126.533 116.965 126.369 117.085L123.757 118.761L121.771 121.126C121.644 121.286 121.399 121.466 121.261 121.514C121.123 121.562 121.143 121.435 121.27 121.275L123.401 118.721C123.49 118.619 123.641 118.485 123.755 118.41L126.575 116.612C126.751 116.506 126.882 116.5 126.818 116.629C126.818 116.629 126.799 116.659 126.779 116.687Z" fill="#3C3D40"/>
<path d="M114.713 103.442C114.656 103.528 114.586 103.602 114.485 103.691C114.282 103.868 114.094 103.961 114.045 103.907L113.233 103.016C113.086 102.854 112.52 103.132 111.914 103.665L109.792 105.53C109.186 106.063 108.842 106.584 108.989 106.746L109.801 107.637C109.85 107.691 109.736 107.865 109.533 108.043C109.331 108.22 109.143 108.313 109.094 108.259L108.282 107.368C108.048 107.111 108.66 106.185 109.62 105.341L111.741 103.476C112.702 102.632 113.706 102.138 113.941 102.394L114.752 103.285C114.777 103.312 114.751 103.384 114.713 103.442Z" fill="#3C3D40"/>
<path d="M114.677 103.401C114.619 103.487 114.55 103.561 114.449 103.65L109.498 108.001C109.295 108.179 109.107 108.272 109.058 108.218C109.009 108.164 109.123 107.99 109.326 107.812L114.277 103.46C114.478 103.283 114.667 103.19 114.717 103.244C114.76 103.242 114.734 103.314 114.677 103.401Z" fill="#3C3D40"/>
<path d="M115.019 103.78C114.962 103.867 114.892 103.941 114.791 104.029L109.84 108.381C109.638 108.559 109.45 108.651 109.4 108.597C109.351 108.543 109.466 108.37 109.668 108.192L114.619 103.84C114.821 103.663 115.009 103.57 115.059 103.624C115.102 103.622 115.077 103.693 115.019 103.78Z" fill="#3C3D40"/>
<path d="M122.494 116.88C122.437 116.967 122.367 117.04 122.266 117.129C122.064 117.307 121.876 117.4 121.826 117.346L111.876 106.421C111.826 106.367 111.941 106.194 112.144 106.016C112.345 105.838 112.534 105.746 112.583 105.8L122.534 116.724C122.558 116.751 122.552 116.793 122.494 116.88Z" fill="#3C3D40"/>
<path d="M123.96 118.485C123.903 118.572 123.833 118.645 123.732 118.735C123.529 118.913 123.34 119.006 123.291 118.952L122.688 118.29C122.639 118.236 122.754 118.062 122.957 117.884C123.159 117.706 123.348 117.613 123.397 117.667L124 118.328C124.025 118.355 124.018 118.398 123.96 118.485Z" fill="#3C3D40"/>
<path d="M126.407 118.377C126.35 118.464 126.28 118.537 126.179 118.626L123.35 121.113C123.147 121.29 122.959 121.383 122.91 121.329C122.861 121.275 122.975 121.101 123.177 120.924L126.006 118.437C126.209 118.259 126.397 118.166 126.446 118.22C126.471 118.247 126.464 118.29 126.407 118.377Z" fill="#3C3D40"/>
<path d="M121.987 118.809C121.93 118.896 121.86 118.969 121.759 119.058C121.557 119.236 121.369 119.329 121.319 119.274L111.369 108.35C111.32 108.296 111.434 108.123 111.636 107.945C111.838 107.767 112.027 107.675 112.076 107.729L122.027 118.653C122.051 118.68 122.044 118.722 121.987 118.809Z" fill="#3C3D40"/>
<path d="M124.368 116.691C124.311 116.778 124.24 116.852 124.139 116.942C123.936 117.121 123.748 117.213 123.7 117.158C119.906 112.801 117.779 110.359 113.985 106.002C113.937 105.947 114.053 105.771 114.255 105.593C114.458 105.414 114.646 105.321 114.694 105.376L124.41 116.533C124.433 116.56 124.426 116.603 124.368 116.691Z" fill="#3C3D40"/>
<path d="M125.171 126.606L113.728 140.503L109.661 140.261L108.823 136.097L120.267 122.2L125.171 126.606Z" fill="#FAFAFA"/>
<path d="M125.135 126.647L125.948 125.709C126.122 125.497 125.577 124.737 124.826 124.062L122.724 122.174C121.974 121.499 121.172 121.098 120.998 121.31L120.231 122.241L125.135 126.647Z" fill="#3C3D40"/>
<path d="M109.786 140.104L111.82 140.225L109.368 138.023L109.786 140.104Z" fill="black"/>
<path d="M113.387 140.173L111.564 137.947L109.184 136.397L109.042 136.306L109.349 137.835L112.002 140.217L113.495 140.307L113.387 140.173Z" fill="#3C3D40"/>
<path d="M109.852 140.557C109.76 140.51 109.679 140.449 109.579 140.36C109.428 140.225 109.302 140.062 109.306 140.004L108.468 135.84C108.449 135.81 108.461 135.796 108.472 135.782L119.916 121.885C119.962 121.828 120.148 121.921 120.348 122.101C120.548 122.28 120.663 122.458 120.617 122.514L109.185 136.397L109.904 139.965L113.388 140.174L124.82 126.291C124.867 126.234 125.052 126.326 125.252 126.506C125.452 126.686 125.567 126.863 125.521 126.92L114.077 140.817C114.065 140.832 114.035 140.816 114.023 140.83L109.956 140.588C109.926 140.573 109.914 140.587 109.852 140.557Z" fill="#3C3D40"/>
<path d="M113.931 140.784C113.807 140.723 113.626 140.572 113.488 140.423L111.507 138.018L108.934 136.332C108.76 136.225 108.552 136.002 108.487 135.87C108.422 135.737 108.549 135.741 108.723 135.848L111.5 137.656C111.612 137.732 111.762 137.866 111.851 137.971L113.978 140.568C114.104 140.732 114.127 140.862 113.992 140.815C113.992 140.815 113.961 140.799 113.931 140.784Z" fill="#3C3D40"/>
<path d="M125.327 126.942C125.235 126.896 125.154 126.836 125.053 126.746C124.854 126.566 124.738 126.389 124.785 126.332L125.551 125.401C125.691 125.232 125.345 124.7 124.744 124.161L122.642 122.272C122.042 121.733 121.487 121.455 121.348 121.625L120.581 122.556C120.534 122.612 120.35 122.52 120.149 122.34C119.949 122.16 119.834 121.983 119.88 121.926L120.647 120.995C120.868 120.727 121.854 121.221 122.805 122.075L124.907 123.963C125.858 124.817 126.473 125.762 126.252 126.031L125.486 126.962C125.462 126.99 125.389 126.973 125.327 126.942Z" fill="#3C3D40"/>
<path d="M125.363 126.9C125.27 126.854 125.189 126.794 125.089 126.704L120.185 122.298C119.984 122.118 119.869 121.941 119.916 121.885C119.962 121.828 120.147 121.921 120.347 122.101L125.252 126.506C125.452 126.686 125.567 126.863 125.521 126.92C125.528 126.964 125.455 126.947 125.363 126.9Z" fill="#3C3D40"/>
<path d="M125.035 127.294C124.943 127.247 124.862 127.187 124.762 127.097L119.857 122.691C119.657 122.512 119.542 122.334 119.588 122.278C119.635 122.222 119.82 122.314 120.02 122.494L124.925 126.9C125.124 127.079 125.24 127.257 125.193 127.313C125.201 127.357 125.128 127.34 125.035 127.294Z" fill="#3C3D40"/>
<path d="M113.184 136.505C113.092 136.459 113.011 136.399 112.911 136.309C112.71 136.129 112.595 135.952 112.642 135.895L122.04 124.481C122.087 124.425 122.272 124.517 122.472 124.697C122.672 124.877 122.788 125.054 122.741 125.11L113.342 136.525C113.319 136.553 113.277 136.552 113.184 136.505Z" fill="#3C3D40"/>
<path d="M111.805 138.187C111.712 138.14 111.631 138.08 111.53 137.989C111.329 137.809 111.214 137.631 111.26 137.575L111.829 136.884C111.876 136.827 112.062 136.92 112.262 137.1C112.463 137.281 112.579 137.458 112.532 137.515L111.963 138.206C111.94 138.234 111.897 138.233 111.805 138.187Z" fill="#3C3D40"/>
<path d="M112.229 140.629C112.136 140.583 112.055 140.523 111.955 140.433L109.152 137.915C108.953 137.735 108.837 137.558 108.884 137.502C108.93 137.445 109.115 137.538 109.315 137.718L112.118 140.235C112.318 140.415 112.433 140.592 112.387 140.649C112.363 140.677 112.321 140.675 112.229 140.629Z" fill="#3C3D40"/>
<path d="M111.23 136.247C111.138 136.201 111.057 136.14 110.957 136.05C110.757 135.871 110.641 135.693 110.688 135.637L120.087 124.223C120.133 124.166 120.318 124.259 120.518 124.438C120.718 124.618 120.834 124.795 120.787 124.852L111.388 136.266C111.365 136.294 111.323 136.293 111.23 136.247Z" fill="#3C3D40"/>
<path d="M113.614 138.362C113.52 138.316 113.439 138.255 113.338 138.165C113.137 137.985 113.021 137.808 113.069 137.753C116.84 133.375 118.955 130.921 122.726 126.544C122.774 126.489 122.961 126.582 123.161 126.763C123.363 126.943 123.478 127.12 123.43 127.175L113.774 138.383C113.75 138.411 113.707 138.409 113.614 138.362Z" fill="#3C3D40"/>
<path d="M99.2502 101.611L99.6967 142.595L96.4817 148.337L93.1413 142.513L92.6948 101.529L99.2502 101.611Z" fill="#FAFAFA"/>
<path d="M99.2503 101.735V98.9073C99.2437 98.2832 98.3386 97.8132 97.3349 97.8007L94.5254 97.7656C93.5222 97.7531 92.6585 98.2832 92.6651 98.9073L92.6949 101.653L99.2503 101.735Z" fill="#3C3D40"/>
<path d="M96.4749 147.879L98.0819 145.008L94.8042 144.967L96.4749 147.879Z" fill="black"/>
<path d="M99.2262 142.547L96.4061 141.514L93.6078 142.477L93.4409 142.538L94.6682 144.675L98.2134 144.719L99.3946 142.612L99.2262 142.547Z" fill="#3C3D40"/>
<path d="M96.818 148.55C96.7184 148.611 96.6183 148.63 96.4843 148.629C96.2835 148.626 96.0823 148.541 96.0474 148.436L92.707 142.611C92.6731 142.59 92.6726 142.549 92.6721 142.507L92.2261 101.523C92.2241 101.357 92.4233 101.234 92.6908 101.238C92.9588 101.241 93.1606 101.368 93.1626 101.535L93.6081 142.477L96.4716 147.464L99.227 142.547L98.7815 101.605C98.7795 101.438 98.9787 101.316 99.2462 101.319C99.5137 101.323 99.716 101.45 99.718 101.616L100.164 142.601C100.164 142.642 100.132 142.663 100.132 142.705L96.9171 148.447C96.8837 148.467 96.8842 148.509 96.818 148.55Z" fill="#3C3D40"/>
<path d="M100.033 142.765C99.8996 142.847 99.6654 142.865 99.4647 142.82L96.4095 141.722L93.377 142.745C93.1773 142.826 92.8759 142.759 92.7404 142.633C92.6054 142.506 92.704 142.321 92.9037 142.24L96.1688 141.115C96.3018 141.076 96.5025 141.078 96.637 141.122L99.9274 142.327C100.129 142.413 100.231 142.601 100.099 142.725C100.099 142.725 100.065 142.745 100.033 142.765Z" fill="#3C3D40"/>
<path d="M99.5866 101.948C99.4875 102.009 99.3869 102.028 99.2529 102.027C98.9859 102.023 98.7836 101.896 98.7816 101.73L98.7517 98.9835C98.7467 98.4842 98.1404 98.1022 97.3374 98.0922L94.5279 98.0571C93.7255 98.0471 93.1273 98.4141 93.1328 98.9134L93.1627 101.66C93.1647 101.826 92.9655 101.948 92.6975 101.945C92.43 101.942 92.2282 101.814 92.2262 101.648L92.1963 98.9017C92.1877 98.1112 93.2506 97.4588 94.5219 97.4746L97.3313 97.5097C98.6021 97.5255 99.6796 98.2046 99.6882 98.9951L99.7186 101.741C99.7191 101.825 99.6533 101.907 99.5866 101.948Z" fill="#3C3D40"/>
<path d="M99.586 101.823C99.4869 101.884 99.3868 101.904 99.2528 101.902L92.6974 101.82C92.4299 101.817 92.2276 101.689 92.2261 101.523C92.2241 101.357 92.4233 101.234 92.6908 101.238L99.2462 101.319C99.5137 101.323 99.716 101.45 99.718 101.616C99.7519 101.679 99.6856 101.762 99.586 101.823Z" fill="#3C3D40"/>
<path d="M99.5963 102.988C99.4966 103.049 99.3965 103.069 99.263 103.067L92.7076 102.985C92.4401 102.982 92.2379 102.854 92.2358 102.688C92.2343 102.522 92.4336 102.399 92.7011 102.403L99.257 102.484C99.5239 102.488 99.7262 102.615 99.7277 102.781C99.7621 102.844 99.6964 102.927 99.5963 102.988Z" fill="#3C3D40"/>
<path d="M96.6858 136.608C96.5862 136.669 96.4861 136.689 96.3521 136.687C96.0846 136.684 95.8823 136.556 95.8808 136.39L95.5142 102.729C95.5122 102.562 95.7114 102.44 95.9789 102.443C96.2469 102.447 96.4486 102.574 96.4507 102.741L96.8173 136.402C96.8183 136.485 96.7854 136.547 96.6858 136.608Z" fill="#3C3D40"/>
<path d="M96.7429 141.56C96.6428 141.621 96.5426 141.64 96.4081 141.639C96.1401 141.636 95.9374 141.508 95.9353 141.342L95.9131 139.303C95.9116 139.136 96.1113 139.014 96.3798 139.017C96.6478 139.021 96.8506 139.148 96.8526 139.315L96.8749 141.353C96.8754 141.437 96.8425 141.499 96.7429 141.56Z" fill="#3C3D40"/>
<path d="M98.652 145.077C98.5524 145.139 98.4523 145.158 98.3183 145.157L94.5724 145.11C94.3049 145.107 94.1026 144.98 94.1011 144.813C94.0991 144.647 94.2983 144.524 94.5658 144.527L98.3117 144.574C98.5797 144.578 98.782 144.705 98.7835 144.871C98.7845 144.955 98.7512 145.017 98.652 145.077Z" fill="#3C3D40"/>
<path d="M95.0481 139.125C94.948 139.186 94.8479 139.206 94.7144 139.204C94.4469 139.201 94.2446 139.074 94.2431 138.907L93.8765 105.246C93.8745 105.08 94.0737 104.957 94.3412 104.961C94.6092 104.964 94.8109 105.091 94.813 105.258L95.1796 138.919C95.1801 139.002 95.1477 139.064 95.0481 139.125Z" fill="#3C3D40"/>
<path d="M98.2175 139.121C98.1169 139.183 98.0163 139.203 97.8818 139.202C97.6133 139.199 97.4115 139.073 97.4115 138.906C97.3963 125.745 97.3877 118.367 97.3726 105.206C97.3726 105.039 97.5738 104.916 97.8423 104.918C98.1108 104.921 98.3126 105.047 98.3131 105.214L98.3515 138.914C98.3515 138.998 98.3181 139.06 98.2175 139.121Z" fill="#3C3D40"/>
</g>
<path d="M191 86.5075C191 93.1644 196.416 98.5796 203.072 98.5796C207.27 98.5796 210.974 96.4242 213.138 93.1626L234.568 98.4616C235.241 98.6257 235.912 98.6082 236.504 98.4597C236.506 98.4588 236.508 98.4588 236.511 98.4588L257.667 93.17C259.699 96.2279 263.087 98.3095 266.965 98.5529L272.005 112.059C272.303 112.859 272.848 113.543 273.56 114.012L297.974 130.109C299.211 130.925 300.795 130.994 302.097 130.292C303.4 129.59 304.213 128.229 304.213 126.749V105.091L318.085 98.1546C319.448 97.4724 320.309 96.0794 320.309 94.5556V73.7431C324.993 72.0818 328.357 67.6088 328.357 62.3624C328.357 56.0917 323.551 50.9236 317.429 50.3456L312.141 29.1929C311.853 28.0378 311.068 27.079 310.022 26.5618L287.756 15.5462C287.815 15.0622 287.849 14.5708 287.849 14.0721C287.849 7.41516 282.433 2 275.776 2C270.529 2 266.056 5.36488 264.395 10.0481H246.914C245.253 5.36396 240.78 2 235.534 2C228.877 2 223.461 7.41608 223.461 14.0721C223.461 15.926 223.883 17.6822 224.632 19.2531L208.296 35.3824C206.714 34.621 204.943 34.1932 203.073 34.1932C196.416 34.1932 191.001 39.6093 191.001 46.2653C191.001 51.5118 194.366 55.9847 199.049 57.646V75.1268C194.364 76.789 191 81.262 191 86.5075ZM203.072 90.5315C200.853 90.5315 199.048 88.7265 199.048 86.5075C199.048 84.2885 200.853 82.4835 203.072 82.4835C205.291 82.4835 207.096 84.2885 207.096 86.5075C207.096 88.7265 205.291 90.5315 203.072 90.5315ZM284.158 22.748L301.396 31.2754L282.751 49.715L271.745 46.0468C271.688 42.8848 270.41 40.0168 268.364 37.8937L274.286 26.0502C274.775 26.111 275.271 26.1451 275.776 26.1451C279.03 26.1451 281.986 24.849 284.158 22.748ZM309.622 52.3018C306.365 54.4664 304.212 58.1669 304.212 62.3624C304.212 64.2237 304.636 65.9881 305.392 67.5637L300.787 72.1694L289.03 54.8241L306.045 37.996L309.622 52.3018ZM277.793 79.8524C277.385 79.2384 276.923 78.6641 276.413 78.1349L284.349 62.2619L293.619 75.9381L277.793 79.8524ZM238.173 89.7479L232.22 71.8901L240.905 65.3769L256.835 81.3062C256.235 82.5554 255.846 83.9234 255.711 85.3643L238.173 89.7479ZM214.781 83.5667L225.322 76.6461L229.405 88.8952L215.088 85.3551C215.03 84.7448 214.927 84.1475 214.781 83.5667ZM214.453 50.2903H225.819L235.157 59.628L227.843 65.1133L213.976 51.4445C214.154 51.0702 214.313 50.6848 214.453 50.2903ZM239.144 25.5938L249.633 39.5798C248.353 41.4955 247.606 43.7946 247.606 46.2662C247.606 47.5237 247.799 48.736 248.158 49.8763L241.66 54.7494L231.942 45.0309L236.678 26.0889C237.529 26.0096 238.354 25.8418 239.144 25.5938ZM259.679 42.2422C261.898 42.2422 263.703 44.0472 263.703 46.2662C263.703 48.4852 261.898 50.2903 259.679 50.2903C257.46 50.2903 255.655 48.4852 255.655 46.2662C255.655 44.0472 257.46 42.2422 259.679 42.2422ZM262.525 75.6145L247.409 60.4983L252.992 56.3111C254.908 57.5907 257.207 58.3383 259.679 58.3383C263.541 58.3383 266.985 56.5121 269.195 53.68L278.149 56.6651L269.216 74.5303C268.727 74.4704 268.231 74.4354 267.726 74.4354C265.866 74.4354 264.102 74.8595 262.525 75.6145ZM267.091 22.4456L261.168 34.2891C260.68 34.2282 260.184 34.1941 259.679 34.1941C258.421 34.1941 257.209 34.3877 256.069 34.7463L245.579 20.7604C246.129 19.9381 246.579 19.0448 246.914 18.098H264.395C264.977 19.738 265.905 21.2167 267.091 22.4456ZM224.344 42.2422H214.453C214.313 41.8467 214.154 41.4604 213.974 41.0852L228.125 27.114L224.344 42.2422ZM208.297 57.1482L221.113 69.7808L210.326 76.8636C209.353 76.1298 208.266 75.5416 207.096 75.1268V57.646C207.507 57.5012 207.908 57.3362 208.297 57.1482ZM263.703 86.5075C263.703 84.2885 265.508 82.4835 267.727 82.4835C269.946 82.4835 271.751 84.2885 271.751 86.5075C271.751 88.7265 269.946 90.5315 267.727 90.5315C265.508 90.5315 263.703 88.7265 263.703 86.5075ZM279.087 108.016L274.728 96.3348C274.834 96.2592 274.94 96.1818 275.044 96.1025L296.165 105.248V119.276L279.087 108.016ZM300.067 98.1666L279.481 89.2529C279.603 88.7338 279.691 88.2029 279.744 87.6608L301.155 82.3664C301.882 82.1866 302.604 81.7561 303.078 81.262L311.085 73.2554C311.467 73.4379 311.86 73.6002 312.262 73.7431V92.0692L300.067 98.1666ZM320.309 62.3624C320.309 64.5813 318.504 66.3864 316.285 66.3864C314.066 66.3864 312.261 64.5813 312.261 62.3624C312.261 60.1434 314.066 58.3383 316.285 58.3383C318.504 58.3383 320.309 60.1443 320.309 62.3624ZM275.776 10.049C277.995 10.049 279.8 11.854 279.8 14.073C279.8 16.292 277.995 18.0971 275.776 18.0971C273.557 18.0971 271.752 16.292 271.752 14.073C271.752 11.854 273.557 10.049 275.776 10.049ZM235.534 10.049C237.753 10.049 239.558 11.854 239.558 14.073C239.558 16.292 237.753 18.0971 235.534 18.0971C233.315 18.0971 231.51 16.292 231.51 14.073C231.51 11.854 233.315 10.049 235.534 10.049ZM203.072 42.2422C205.291 42.2422 207.096 44.0472 207.096 46.2662C207.096 48.4852 205.291 50.2903 203.072 50.2903C200.853 50.2903 199.048 48.4852 199.048 46.2662C199.048 44.0472 200.853 42.2422 203.072 42.2422Z" fill="url(#paint0_linear_83_22514)"/>
<path d="M304.207 114.342H296.17V157.189H304.207V114.342Z" fill="url(#paint1_linear_83_22514)"/>
<path d="M300.583 176.799C293.873 176.799 288.415 171.34 288.415 164.631C288.415 157.921 293.874 152.463 300.583 152.463C307.293 152.463 312.751 157.921 312.751 164.631C312.751 171.34 307.293 176.799 300.583 176.799ZM300.583 159.021C297.49 159.021 294.973 161.538 294.973 164.631C294.973 167.724 297.49 170.24 300.583 170.24C303.676 170.24 306.193 167.724 306.193 164.631C306.192 161.537 303.676 159.021 300.583 159.021Z" fill="url(#paint2_linear_83_22514)"/>
</g>
</g>
<defs>
<filter id="filter0_d_83_22514" x="26" y="2" width="306.357" height="182.799" filterUnits="userSpaceOnUse" color-interpolation-filters="sRGB">
<feFlood flood-opacity="0" result="BackgroundImageFix"/>
<feColorMatrix in="SourceAlpha" type="matrix" values="0 0 0 0 0 0 0 0 0 0 0 0 0 0 0 0 0 0 127 0" result="hardAlpha"/>
<feOffset dy="4"/>
<feGaussianBlur stdDeviation="2"/>
<feComposite in2="hardAlpha" operator="out"/>
<feColorMatrix type="matrix" values="0 0 0 0 0 0 0 0 0 0 0 0 0 0 0 0 0 0 0.25 0"/>
<feBlend mode="normal" in2="BackgroundImageFix" result="effect1_dropShadow_83_22514"/>
<feBlend mode="normal" in="SourceGraphic" in2="effect1_dropShadow_83_22514" result="shape"/>
</filter>
<linearGradient id="paint0_linear_83_22514" x1="259.679" y1="197.994" x2="259.679" y2="-0.620183" gradientUnits="userSpaceOnUse">
<stop stop-color="#6C67FF"/>
<stop offset="1" stop-color="#54FFF8"/>
</linearGradient>
<linearGradient id="paint1_linear_83_22514" x1="300.189" y1="181.634" x2="300.189" y2="21.8617" gradientUnits="userSpaceOnUse">
<stop stop-color="#6C67FF"/>
<stop offset="1" stop-color="#54FFF8"/>
</linearGradient>
<linearGradient id="paint2_linear_83_22514" x1="300.583" y1="184.202" x2="300.583" y2="-14.4116" gradientUnits="userSpaceOnUse">
<stop stop-color="#6C67FF"/>
<stop offset="1" stop-color="#54FFF8"/>
</linearGradient>
<clipPath id="clip0_83_22514">
<rect width="358" height="179" fill="white"/>
</clipPath>
<clipPath id="clip1_83_22514">
<rect width="271.035" height="59.9226" fill="white" transform="translate(30 88.7676)"/>
</clipPath>
</defs>
</svg>
