<svg width="48" height="48" viewBox="0 0 48 48" fill="none" xmlns="http://www.w3.org/2000/svg">
<g filter="url(#filter0_d_1342_14917)">
<rect x="4" width="40" height="40" rx="12" fill="#F0FFFD" shape-rendering="crispEdges"/>
<path d="M16 28C15.45 28 14.9793 27.8043 14.588 27.413C14.1967 27.0217 14.0007 26.5507 14 26V14C14 13.45 14.196 12.9793 14.588 12.588C14.98 12.1967 15.4507 12.0007 16 12H22L24 14H32C32.55 14 33.021 14.196 33.413 14.588C33.805 14.98 34.0007 15.4507 34 16V26C34 26.55 33.8043 27.021 33.413 27.413C33.0217 27.805 32.5507 28.0007 32 28H16ZM26 26H28V24H30V22H28V20H30V18H28V16H26V18H28V20H26V22H28V24H26V26Z" fill="#00C8B3"/>
</g>
<defs>
<filter id="filter0_d_1342_14917" x="0" y="0" width="48" height="48" filterUnits="userSpaceOnUse" color-interpolation-filters="sRGB">
<feFlood flood-opacity="0" result="BackgroundImageFix"/>
<feColorMatrix in="SourceAlpha" type="matrix" values="0 0 0 0 0 0 0 0 0 0 0 0 0 0 0 0 0 0 127 0" result="hardAlpha"/>
<feOffset dy="4"/>
<feGaussianBlur stdDeviation="2"/>
<feComposite in2="hardAlpha" operator="out"/>
<feColorMatrix type="matrix" values="0 0 0 0 0 0 0 0 0 0 0 0 0 0 0 0 0 0 0.03 0"/>
<feBlend mode="normal" in2="BackgroundImageFix" result="effect1_dropShadow_1342_14917"/>
<feBlend mode="normal" in="SourceGraphic" in2="effect1_dropShadow_1342_14917" result="shape"/>
</filter>
</defs>
</svg>
