<svg width="17" height="20" viewBox="0 0 17 20" fill="none" xmlns="http://www.w3.org/2000/svg">
<path d="M2.11865 6.375C2.11865 9.88125 4.9874 12.75 8.49365 12.75C11.9999 12.75 14.8687 9.88125 14.8687 6.375C14.8687 2.86875 11.9999 0 8.49365 0C4.9874 0 2.11865 2.86875 2.11865 6.375ZM13.3687 6.375C13.3687 9.05625 11.1749 11.25 8.49365 11.25C5.8124 11.25 3.61865 9.05625 3.61865 6.375C3.61865 3.69375 5.8124 1.5 8.49365 1.5C11.1749 1.5 13.3687 3.69375 13.3687 6.375Z" fill="#858585"/>
<path d="M1.06875 19.575C3.05625 17.5875 5.68125 16.5 8.49375 16.5C11.3062 16.5 13.9312 17.5875 15.9187 19.575L16.9875 18.5062C14.7188 16.2562 11.7 15 8.49375 15C5.2875 15 2.26875 16.2562 0 18.5062L1.06875 19.575Z" fill="#858585"/>
</svg>
