<svg width="36" height="36" viewBox="0 0 36 36" fill="none" xmlns="http://www.w3.org/2000/svg">
<rect width="36" height="36" rx="4" fill="#FEE2E2"/>
<path d="M15 18.5H16V16.5H17C17.2833 16.5 17.5208 16.4042 17.7125 16.2125C17.9042 16.0208 18 15.7833 18 15.5V14.5C18 14.2167 17.9042 13.9792 17.7125 13.7875C17.5208 13.5958 17.2833 13.5 17 13.5H15V18.5ZM16 15.5V14.5H17V15.5H16ZM19 18.5H21C21.2833 18.5 21.5208 18.4042 21.7125 18.2125C21.9042 18.0208 22 17.7833 22 17.5V14.5C22 14.2167 21.9042 13.9792 21.7125 13.7875C21.5208 13.5958 21.2833 13.5 21 13.5H19V18.5ZM20 17.5V14.5H21V17.5H20ZM23 18.5H24V16.5H25V15.5H24V14.5H25V13.5H23V18.5ZM14 24C13.45 24 12.9792 23.8042 12.5875 23.4125C12.1958 23.0208 12 22.55 12 22V10C12 9.45 12.1958 8.97917 12.5875 8.5875C12.9792 8.19583 13.45 8 14 8H26C26.55 8 27.0208 8.19583 27.4125 8.5875C27.8042 8.97917 28 9.45 28 10V22C28 22.55 27.8042 23.0208 27.4125 23.4125C27.0208 23.8042 26.55 24 26 24H14ZM14 22H26V10H14V22ZM10 28C9.45 28 8.97917 27.8042 8.5875 27.4125C8.19583 27.0208 8 26.55 8 26V12H10V26H24V28H10ZM14 10V22V10Z" fill="#DC2626"/>
</svg>
