<svg width="24" height="24" viewBox="0 0 24 24" fill="none" xmlns="http://www.w3.org/2000/svg">
<path d="M5 17.6555V21.4215L6.515 20.5125L11.277 17.6555H16C17.103 17.6555 18 16.7585 18 15.6555V7.65552C18 6.55252 17.103 5.65552 16 5.65552H4C2.897 5.65552 2 6.55252 2 7.65552V15.6555C2 16.7585 2.897 17.6555 4 17.6555H5ZM4 7.65552H16V15.6555H10.723L7 17.8895V15.6555H4V7.65552Z" fill="#3572EF"/>
<path d="M20 1.65552H8C6.897 1.65552 6 2.55252 6 3.65552H18C19.103 3.65552 20 4.55252 20 5.65552V13.6555C21.103 13.6555 22 12.7585 22 11.6555V3.65552C22 2.55252 21.103 1.65552 20 1.65552Z" fill="#3572EF"/>
</svg>
