<svg width="14" height="18" viewBox="0 0 14 18" fill="none" xmlns="http://www.w3.org/2000/svg">
<path d="M1.616 18C1.15533 18 0.771 17.846 0.463 17.538C0.155 17.23 0.000666667 16.8457 0 16.385V1.615C0 1.155 0.154333 0.771 0.463 0.463C0.771667 0.155 1.156 0.000666667 1.616 0H12.385C12.845 0 13.2293 0.154333 13.538 0.463C13.8467 0.771667 14.0007 1.156 14 1.616V16.385C14 16.845 13.846 17.2293 13.538 17.538C13.23 17.8467 12.8453 18.0007 12.384 18H1.616ZM1.616 17H12.385C12.5383 17 12.6793 16.936 12.808 16.808C12.9367 16.68 13.0007 16.5387 13 16.384V1.616C13 1.462 12.936 1.32067 12.808 1.192C12.68 1.06333 12.5387 0.999333 12.384 1H11V7.116L9 5.923L7 7.116V1H1.616C1.462 1 1.32067 1.064 1.192 1.192C1.06333 1.32 0.999333 1.461 1 1.615V16.385C1 16.5383 1.064 16.6793 1.192 16.808C1.32 16.9367 1.461 17.0007 1.615 17" fill="#7C8088"/>
</svg>
